<svg xmlns="http://www.w3.org/2000/svg" width="20.536" height="20.885" viewBox="0 0 20.536 20.885">
  <g id="contact_instagram_icon" transform="translate(-6907.232)">
    <g id="Instagram" transform="translate(6912.122 3.702)">
      <path id="パス_84" data-name="パス 84" d="M129.527,134.9a5.379,5.379,0,1,0-5.378-5.378A5.385,5.385,0,0,0,129.527,134.9Zm0-9.081a3.7,3.7,0,1,1-3.7,3.7A3.706,3.706,0,0,1,129.527,125.821Z" transform="translate(-124.149 -122.783)" fill="#fff"/>
      <ellipse id="楕円形_5" data-name="楕円形 5" cx="1.205" cy="1.205" rx="1.205" ry="1.205" transform="translate(9.709)" fill="snow"/>
    </g>
    <path id="パス_83" data-name="パス 83" d="M18.915,0H10.183a5.9,5.9,0,0,0-5.9,5.9v9.081a5.9,5.9,0,0,0,5.9,5.9h8.731a5.9,5.9,0,0,0,5.9-5.9V5.9A5.9,5.9,0,0,0,18.915,0ZM6.377,5.9A3.811,3.811,0,0,1,10.183,2.1h8.731A3.811,3.811,0,0,1,22.722,5.9v9.081a3.811,3.811,0,0,1-3.807,3.807H10.183a3.811,3.811,0,0,1-3.807-3.807Z" transform="translate(6902.952)" fill="#fff"/>
  </g>
</svg>
