<svg xmlns="http://www.w3.org/2000/svg" width="160" height="30" viewBox="0 0 160 30">
  <g id="footer_logo_SP" transform="translate(-80 -5289.5)">
    <path id="パス_4095" data-name="パス 4095" d="M-187.762-7.9c.452,0,.486.287.486.593,0,.593.017,1.014.5,1.014a.8.8,0,0,0,.64-.314,1.053,1.053,0,0,0,.214-.758c0-.4-.017-2.45-.017-2.909,0-.785-.034-4.613-.034-5.474a13.611,13.611,0,0,1,.1-2.105c.017-.057.285-.364.285-.44,0-.421-1.541-.823-1.625-.823-.1,0-.134.057-.134.172,0,.134.067.8.067.938.017.23.05,2.431.05,4.077,0,.67-.034,4.019-.034,4.766,0,.459-.033.766-.5.766h-3.417c-.368,0-.5-.172-.5-.67,0-3.235,0-7.79.05-11.331a2.526,2.526,0,0,1,.084-.823,4.735,4.735,0,0,0,.352-.651c0-.249-.218-.287-.569-.364-.184-.038-.938-.211-1.055-.211s-.151.038-.151.153c0,.134.084.8.084.957,0,.172.033,2.335.033,4.038,0,2.488-.084,8.4-.1,8.517a.472.472,0,0,1-.164.3.363.363,0,0,1-.305.078h-3.383c-.435,0-.486-.287-.486-.67,0-1.014.017-5.991.017-7.12a4.579,4.579,0,0,1,.134-1.455c.251-.306.3-.364.3-.5,0-.4-1.658-.766-1.708-.766-.134,0-.151.038-.151.172,0,.1.033.517.05.612a23.4,23.4,0,0,1,.1,2.546c0,1.263-.084,7.388-.084,8.766,0,.555.117.766.553.766.787,0,.787-.612.787-1.168,0-.325,0-.689.486-.689Zm18,.077c.184,0,.385,0,.385.345,0,.364,0,.651.469.651a.781.781,0,0,0,.634-.284,1.034,1.034,0,0,0,.237-.73c0-.211-.084-1.148-.084-1.34-.05-1.091-.033-3.158-.033-3.636v-3.809c0-.44-.05-2.66-.05-2.737a2.229,2.229,0,0,1,.167-1.11,3.672,3.672,0,0,0,.352-.593c0-.4-.921-1.091-1.189-1.091-.167,0-.251.134-.536.536-.184.249-.268.249-1.022.249h-8.358a1.592,1.592,0,0,1-.837-.172A4.546,4.546,0,0,0-180.946-22c-.084,0-.1.1-.1.153,0,.153.151.766.167.9.1.746.1,3.522.1,4.536,0,2.392-.033,5.416-.117,7.637-.017.287-.084,1.531-.084,1.8,0,.459.033.919.519.919.837,0,.854-.842.871-1.34.017-.421.234-.421.435-.421Zm-5.812-6.871a.415.415,0,0,1,.469.364v5.4c0,.593-.251.593-.536.593h-3.5c-.2,0-.419,0-.469-.536-.017-.172-.017-3.33-.017-3.981,0-1.78,0-1.837.5-1.837Zm2.177-.5c-.318,0-.486-.115-.486-.555,0-1.11.017-3.6.05-4.613.017-.364.117-.5.5-.5h3.4c.486,0,.5.325.5.632,0,.1.05,3.943.05,4.421,0,.306-.017.612-.452.612Zm-5.728,0c-.469,0-.5-.287-.5-.574,0-.67.034-3.6.034-4.211,0-.67,0-.88.553-.88h3.45c.486,0,.519.23.519.651,0,.67-.034,3.636-.017,4.249,0,.44.017.766-.486.766Zm9.312.5a.407.407,0,0,1,.419.249c.05.153.05,3.483.05,3.962,0,2.086-.017,2.144-.486,2.144h-3.534c-.368,0-.586-.019-.586-.67,0-.287.05-5.244.084-5.359a.413.413,0,0,1,.469-.325Zm15.61,1.282c-.435,0-.435-.191-.435-1.512a.463.463,0,0,1,.142-.308.353.353,0,0,1,.293-.094h1.206c.3,0,.368,0,.469.172.134.211.2.325.469.325a.7.7,0,0,0,.67-.612c.033-.172.05-1.168.05-1.761,0-.421,0-.632.519-.632h.586c.6,0,.9,0,.9-.287a2.486,2.486,0,0,0-1.055-1.129c-.151,0-.268.191-.335.345-.167.4-.234.536-.419.536-.2,0-.2-.153-.2-.478,0-.574,0-.651.084-.746.067-.077.452-.4.452-.517a2.977,2.977,0,0,0-1.089-1.072c-.117,0-.234.115-.4.325-.268.345-.3.383-.553.383h-1.323c-.419,0-.469-.191-.469-.5q0-.345.033-.689c.034-.115.486-.44.486-.574,0-.172-.268-.287-.435-.345a10.367,10.367,0,0,0-1.407-.325c-.017,0-.067,0-.067.038q.088.274.2.536a6.4,6.4,0,0,1,.117,1.034c0,.632,0,.823-.452.823-.653,0-.854,0-1.976-.057-.167,0-.988-.077-1.055-.077-.034,0-.067,0-.067.038s.017.038.084.134l.318.44c.067.077.084.115.151.115.05,0,.3-.038.352-.038.452-.038,1.323-.057,2.01-.057.385,0,.67,0,.67.478,0,1.014,0,1.148-.519,1.148h-.938c-.787,0-1.524-.019-2.295-.057-.1,0-.62-.077-.737-.077-.05,0-.067.019-.067.057,0,.019,0,.038.067.115l.335.44c.05.077.084.134.134.134a2.454,2.454,0,0,0,.368-.057c.586-.038,1.725-.038,2.11-.038h1c.184,0,.519,0,.519.421,0,1.4,0,1.569-.419,1.569-.318,0-1.775-.134-1.96-.134a.041.041,0,0,0-.038.014.055.055,0,0,0-.012.043c0,.019,0,.038.067.115l.318.44c.067.1.1.134.151.134.134,0,1.239-.1,1.44-.1.419,0,.419.364.419.517,0,1.244,0,1.378-.5,1.378-.318,0-1.859-.115-2.211-.115-.033,0-.05,0-.05.038a.2.2,0,0,0,.067.134l.318.44c.067.077.1.115.151.115a1,1,0,0,0,.234-.038c.3-.019,1.105-.057,1.44-.057.268,0,.536.038.536.478,0,1.168,0,1.3-.452,1.3-.72,0-.888,0-2.077-.057-.167,0-.988-.077-1.055-.077a.041.041,0,0,0-.038.014.055.055,0,0,0-.012.043c0,.019,0,.038.067.115l.318.44c.067.077.1.134.151.134a2.245,2.245,0,0,0,.352-.057c.586-.038,1.742-.038,2.127-.038.318,0,.6,0,.6.536,0,.172-.067,1.014-.067,1.206,0,.1,0,.574.4.574a.829.829,0,0,0,.854-.689v-.957c0-.364.017-.67.486-.67h4.087c.553,0,.888,0,.888-.268a4.649,4.649,0,0,0-1.373-1.244c-.184,0-.218.057-.636.67-.218.325-.3.325-1.072.325h-2.01a.372.372,0,0,1-.335-.211,6.079,6.079,0,0,1-.067-1.148.434.434,0,0,1,.114-.319.325.325,0,0,1,.288-.1h2.713c.536,0,.888,0,.888-.249,0-.325-.971-1.148-1.156-1.148-.134,0-.6.746-.754.823a1.8,1.8,0,0,1-.8.077Zm1.239-6.565c.536,0,.536.153.536,1.11,0,.517-.3.517-.536.517h-1.172c-.536,0-.536-.153-.536-1,0-.555.167-.632.536-.632Zm.034,2.144c.5,0,.5.345.5.823,0,.919,0,1.168-.5,1.168h-1.256c-.486,0-.486-.23-.486-1.187,0-.459,0-.8.486-.8Zm-8.374,2.086c-.251,0-.435,0-.435-.345,0-.134.7-3.139.871-3.847.151-.651.167-.708.419-.861.318-.191.352-.211.352-.364a2.582,2.582,0,0,0-1.038-1.148c-.134,0-.167.057-.452.536-.151.249-.218.287-.452.287-.368,0-2.01-.115-2.328-.115-.034,0-.067,0-.067.038,0,.019.017.038.067.134l.335.44c.05.077.084.115.151.115s.385-.057.452-.057c.4-.019.8-.038,1.206-.038a.278.278,0,0,1,.3.306c0,.115-.218,1.3-.737,3.464-.1.4-.72,2.584-.72,2.66a.419.419,0,0,0,.452.383c.486,0,.653-.364.854-.8.117-.268.234-.268.553-.268h1.306c.3,0,.419.038.419.306a19.842,19.842,0,0,1-.938,3.617c-.251.67-.335.9-.519.9-.251,0-1.022-1.3-1.407-2.852-.067-.306-.1-.4-.2-.4-.067,0-.067.115-.067.172a9.564,9.564,0,0,0,.636,2.66,9.151,9.151,0,0,1,.636,1.378,9.632,9.632,0,0,1-1.993,2.928c-.117.134-.8.708-.8.823,0,.019,0,.038.017.038a6.755,6.755,0,0,0,2.964-2.507c.234-.325.335-.478.435-.478a8.9,8.9,0,0,1,.938.785c.955.727,2.144,1.627,8.592,1.627,1.189,0,1.323,0,1.457-.172a5.082,5.082,0,0,0,.2-.727,2.259,2.259,0,0,1,.636-.957c.251-.172.285-.191.285-.23,0-.057-.05-.057-.117-.057-.05,0-.536.134-.687.172a29.306,29.306,0,0,1-5.008.421c-1.122,0-3.517-.038-5.008-1.053-.218-.153-.77-.574-.77-.823a6.682,6.682,0,0,1,.3-.727,19.986,19.986,0,0,0,1.34-4.134A.776.776,0,0,1-158.6-15c.285-.23.3-.268.3-.383,0-.364-.854-1.053-1.022-1.053-.1,0-.134.057-.536.478a.486.486,0,0,1-.486.211Zm23.28-.364c-.017.019,0,.077.034.134a5.681,5.681,0,0,1,.419,1.416c.034.345.067.708.435.708a.763.763,0,0,0,.636-.8c0-.708-.62-1.034-.988-1.244C-137.55-15.918-137.969-16.147-138.019-16.109Zm-6.867-.938c.05.077.084.115.151.115.151,0,1.122-.077,1.323-.077.469,0,.469.211.469,1.206,0,.9,0,1-.167,1.129a6.167,6.167,0,0,1-1.491.191c-.167,0-1-.134-1.122-.134-.067,0-.117.019-.117.134,0,.134.4,1.627.687,1.627a4.642,4.642,0,0,0,.536-.383c.318-.172,4.388-1.416,4.388-1.761,0-.038-.05-.038-.1-.038-.184,0-1.038.172-1.122.172-.368,0-.4-.287-.4-.727,0-1.282,0-1.435.553-1.435h.737c.569,0,.888,0,.888-.268,0-.172-.452-.8-.72-.8-.117,0-.2.1-.318.249-.234.325-.318.325-1.072.325h-.4c-.787,0-1.474-.038-2.295-.077-.1,0-.62-.057-.737-.057-.034,0-.067,0-.067.038s.017.038.084.134Zm3.768,5.914c.184,0,.4,0,.4.211,0,.191-.2.421-.435.67a21.255,21.255,0,0,1-5.309,4.038c-.084.057-.117.115-.117.134,0,.038.05.038.067.038a9.083,9.083,0,0,0,2.043-.612,15.184,15.184,0,0,0,4-2.794,3.863,3.863,0,0,1,.72-.574c.167,0,.167.364.167.421,0,1.168,0,1.723-.017,1.991,0,.211-.084,1.244-.084,1.474a.576.576,0,0,0,.1.427.435.435,0,0,0,.352.185c.151,0,.77-.153.77-.727,0-.134-.067-.785-.067-.938-.05-.9-.05-1.168-.05-3.177,0-.057,0-.153.084-.153.1,0,.134.057.486.593a9.935,9.935,0,0,0,4.907,4,.314.314,0,0,0,.2-.134,3.864,3.864,0,0,1,.921-1.014c.067-.038.5-.249.5-.345,0-.057-1.239-.191-1.474-.249-2.78-.593-5.309-3-5.309-3.349,0-.115.117-.115.218-.115h5.762c.553,0,.888,0,.888-.268a3.48,3.48,0,0,0-1.273-1.263c-.167,0-.7.766-.854.9-.134.134-.2.134-.9.134h-3.6c-.218,0-.519,0-.519-.44a.8.8,0,0,1,.167-.536c.151-.172.184-.211.184-.325,0-.191-.5-.4-.787-.5-.5-.191-.553-.191-.553-.345,0-.057.033-.1.3-.421a4.205,4.205,0,0,0,.971-2.258c.1-.88.117-.9.553-.9h1.189c.184,0,.452.019.5.325q.063,1.032.034,2.067c0,.766,0,1.531,2.261,1.531,1.256,0,2.027-.421,2.027-.88,0-.1-.017-.115-.151-.383a2.86,2.86,0,0,1-.218-1.187c-.05-.536-.05-.593-.084-.593s-.084.191-.134.325c-.368,1.282-.569,1.665-1.625,1.665a2,2,0,0,1-1-.23c-.134-.115-.134-.746-.134-1.034,0-.861.017-1.053.017-1.148.017-.077.117-.153.167-.191.084-.057.285-.211.285-.364,0-.287-1.022-.88-1.089-.88s-.3.364-.368.4a.83.83,0,0,1-.352.057H-137.7a.957.957,0,0,1-.569-.153c-.636-.421-.67-.459-.821-.459-.1,0-.1.115-.1.191,0,.134.05.746.05.88a4.915,4.915,0,0,1-2.094,4.383,3.764,3.764,0,0,0-.553.478.058.058,0,0,0,.05.057,4.281,4.281,0,0,0,.871-.383c.151-.077.888-.593.971-.593.3,0,.3,1.014.3,1.3,0,.459-.184.536-.486.536h-3.3c-.787,0-1.474-.038-2.295-.077-.1,0-.62-.057-.737-.057-.034,0-.05.019-.05.038,0,.038,0,.038.067.134l.318.44c.067.077.084.115.151.115.05,0,.3-.038.352-.038.435-.038.871-.057,2.127-.057Zm.9-9.378c.8,0,.888,0,.888-.23a1.948,1.948,0,0,0-.854-1.053c-.134,0-.368.268-.435.364-.3.421-.385.421-1.055.421h-1.055c-.167,0-.352,0-.352-.172a1.5,1.5,0,0,1,.519-.766c.318-.191.368-.211.368-.345,0-.191-.134-.249-.469-.383-.05-.019-1.022-.364-1.105-.364a4.977,4.977,0,0,0-.3,1.053,16.824,16.824,0,0,1-2.295,4.019c-.084.134-.117.172-.117.211a8.053,8.053,0,0,0,2.429-2.239.99.99,0,0,1,1.022-.517c.285,0,.8,0,.8,1.55,0,.593,0,.88.4.88a.828.828,0,0,0,.72-.88,1.455,1.455,0,0,0-.435-.938c-.2-.249-.3-.364-.3-.459,0-.153.2-.153.352-.153Zm7.369-.057c.8,0,.9,0,.9-.23a3.07,3.07,0,0,0-1.122-1.263c-.134,0-.519.67-.6.785-.151.191-.285.211-.9.211h-2.5c-.151,0-.3,0-.3-.172a1.4,1.4,0,0,1,.352-.612c.3-.249.385-.325.385-.44,0-.306-1.306-.632-1.373-.632-.167,0-.184.038-.218.536a8.83,8.83,0,0,1-1.105,2.986c-.084.153-.6.976-.6,1.034,0,.115.553-.306,1.608-1.646.3-.383.419-.555.888-.555h.636c.5,0,.67.1,1.072,1.282.318.938.352,1.034.687,1.034a.569.569,0,0,0,.432-.209.745.745,0,0,0,.171-.5,1.3,1.3,0,0,0-.67-1.091c-.167-.115-.435-.268-.435-.383,0-.134.184-.134.352-.134Zm10.769.651c.335,0,.335.325.335.536,0,1.014,0,1.11-.368,1.11h-1.809a1.51,1.51,0,0,1-.67-.115,7.1,7.1,0,0,0-1.306-.766c-.1,0-.117.077-.117.172q.03.251.084.5c.033.383.033,1.627.033,1.684,0,.249-.05,1.455-.05,1.723,0,.249.05.5.435.5a.756.756,0,0,0,.77-.593c.067-.287.084-.364.4-.364h2.211c.352,0,.352.306.352.517,0,.823,0,1.034-.368,1.034h-2.228c-.787,0-1.474,0-2.295-.057-.117,0-.62-.077-.737-.077-.05,0-.067.019-.067.057,0,.019.017.038.067.115l.335.459c.05.077.084.115.151.115.05,0,.285-.057.352-.057.151-.019.636-.038,2.11-.038h2.311c.352,0,.352.306.352.727,0,.536,0,.785-.368.785h-3.634c-.787,0-1.474-.019-2.295-.057-.1,0-.62-.077-.737-.077a.061.061,0,0,0-.067.057c0,.019.017.038.084.115l.318.44c.05.077.1.134.167.134.05,0,.285-.057.335-.057.167-.019.653-.038,2.11-.038h3.718c.352,0,.352.306.352.593,0,.88,0,1.091-.4,1.091h-1.708c-.787,0-1.474-.038-2.295-.077-.117,0-.636-.057-.754-.057-.034,0-.05.019-.05.038,0,.038,0,.038.067.134l.335.44c.05.077.084.115.134.115s.3-.038.368-.038c.151-.019.921-.057,2.11-.057h1.792a.32.32,0,0,1,.295.118.432.432,0,0,1,.09.342c0,1.493,0,1.55-.921,1.55-.2,0-1.189-.153-1.407-.153-.033,0-.218,0-.218.1,0,.172.352.306.536.364,1.022.383,1.273.823,1.39,1.129.084.211.1.268.218.268a3.569,3.569,0,0,0,.837-.23,1.394,1.394,0,0,0,.787-1.512c0-.191-.034-1.129-.034-1.34,0-.364,0-.632.4-.632h2.6c.2,0,.335.077.368.44.067.612.084.823.486.823a.748.748,0,0,0,.632-.259,1,1,0,0,0,.239-.717c0-.211-.05-1.589-.05-1.895,0-.249,0-.574.352-.574h1.273c.435,0,.737,0,.737-.23,0-.364-1.122-1.187-1.29-1.187-.134,0-.167.077-.519.612a.6.6,0,0,1-.368.249c-.184,0-.184-.172-.184-.287,0-.67,0-.746.1-.861.3-.383.318-.421.318-.517,0-.249-.921-.957-1.072-.957-.184,0-.3.134-.5.364a.766.766,0,0,1-.7.268H-120.3c-.368,0-.368-.268-.368-.746,0-.517,0-.8.368-.8h2.144a.3.3,0,0,1,.318.249c.1.4.134.555.569.555a.71.71,0,0,0,.72-.689v-1.818a.4.4,0,0,1,.151-.364c.218-.23.3-.306.3-.44,0-.249-.938-.957-1.055-.957-.151,0-.251.134-.519.459a.513.513,0,0,1-.519.268h-2.094c-.352,0-.368-.287-.368-.478.017-1.053.017-1.168.419-1.168h5.376c.569,0,.9,0,.9-.268,0-.249-1.474-1.263-1.574-1.263-.151,0-.2.077-.67.708-.251.325-.318.325-1.072.325h-2.964a.312.312,0,0,1-.28-.116.419.419,0,0,1-.089-.324,2.753,2.753,0,0,1,.05-.536,5.863,5.863,0,0,0,.385-.727c0-.4-1.407-.842-1.574-.842-.067,0-.151.038-.151.249,0,.23.151,1.455.151,1.742,0,.211,0,.555-.352.555h-3.266c-.787,0-1.474-.038-2.295-.077-.117,0-.62-.057-.737-.057-.05,0-.067,0-.067.038s.017.038.067.134l.335.44c.05.077.084.115.151.115.05,0,.285-.038.352-.038.318-.019.837-.057,2.11-.057Zm-2.261,3.885c-.419,0-.419-.191-.419-.861s0-.861.4-.861h2.211c.368,0,.368.287.368.842,0,.593,0,.88-.368.88Zm6.23-1.723c.368,0,.368.306.368.708,0,.785,0,1.014-.4,1.014h-2.144c-.385,0-.385-.23-.385-1.034,0-.364,0-.689.385-.689Zm-2.194,5.8c-.368,0-.368-.23-.368-.9,0-.287,0-.612.368-.612h2.8c.368,0,.368.325.368.612,0,.67-.067.9-.4.9Zm2.764.517c.368,0,.368.306.368.632,0,.9-.067,1.053-.452,1.053h-2.63c-.4,0-.4-.115-.4-1.148,0-.23,0-.536.368-.536Zm16.2-8.67c-.117,0-.318,0-.318-.191a4.815,4.815,0,0,1,1.022-1.455c.318-.23.352-.249.352-.4,0-.115-.067-.172-.251-.268a12.836,12.836,0,0,0-1.39-.593c-.05,0-.117.019-.117.1a3.7,3.7,0,0,0,.017.421,12.533,12.533,0,0,1-1.859,4.287c-.067.115-.5.593-.5.746a.1.1,0,0,0,.016.064.074.074,0,0,0,.051.032c.4,0,1.641-1.761,1.893-1.761.117,0,.167.077.234.172.251.383.586,1.053.837,1.455a3.434,3.434,0,0,1,.419.785c0,.44-1.407,1.512-1.893,1.837a21.515,21.515,0,0,0-1.876,1.129c0,.038.067.057.1.057a8.448,8.448,0,0,0,3.8-1.933c.285-.249.335-.306.469-.306a.534.534,0,0,1,.352.23A13.884,13.884,0,0,0-97-13.544c.067,0,.1-.057.134-.134a1.054,1.054,0,0,1,.368-.593,5.633,5.633,0,0,0,.821-.517c0-.038-.05-.038-.452-.134-1.507-.364-3.417-1.378-3.417-1.761a.337.337,0,0,1,.1-.211c.067-.115.469-.612.553-.708.653-.842.737-.938,1.156-1.129a.311.311,0,0,0,.234-.287c0-.115-.067-.191-.184-.306-.084-.057-.1-.077-.1-.134,0-.134.067-.134.3-.134h.7c.469,0,.687,0,.687-.23,0-.287-1.072-1.282-1.323-1.282-.134,0-.167.057-.5.689-.167.306-.251.306-.988.306Zm1.775.517c.134,0,.368,0,.368.306a3.6,3.6,0,0,1-1.206,1.933c-.385,0-1.558-1.761-1.558-2.029,0-.211.151-.211.419-.211Zm-8.023-2.105c-.938,0-1.809-.038-2.295-.077-.117,0-.636-.057-.737-.057-.017,0-.05,0-.05.038a.254.254,0,0,0,.067.134l.318.44c.067.077.1.134.151.134.033,0,.435-.057.486-.057.67-.038,1.507-.057,1.976-.057h1.608c.218,0,.419.019.419.211a12.683,12.683,0,0,1-.971,1.761c-.218.364-.318.478-.5.478a16.43,16.43,0,0,0-1.742-.746c-.033,0-.134,0-.134.077,0,.038.335.4.385.478a6.006,6.006,0,0,1,1.089,1.876c.084.23.234.612.62.612.05,0,.6,0,.6-.785a1.651,1.651,0,0,0-.318-1.014.368.368,0,0,1-.067-.191c0-.153.117-.268.335-.459,1.96-1.818,1.976-1.818,2.228-1.876.586-.134.653-.134.653-.325,0-.383-1.29-1.359-1.424-1.359s-.184.134-.318.44c-.134.287-.2.325-.921.325Zm3.685,10.106c.067.077.1.134.151.134.034,0,.419-.057.486-.057.5-.038,1.038-.038,1.541-.038.151,0,.3.019.3.249A8.931,8.931,0,0,1-104-6.846c-.268.23-.737.536-1,.766a.213.213,0,0,0-.1.153c0,.057.05.057.1.057a6.424,6.424,0,0,0,4-3.636,14.89,14.89,0,0,1,.837-1.933.473.473,0,0,1,.385-.115h1.156c.134,0,.452,0,.452.478A18.2,18.2,0,0,1-98.51-8.09c-.218,1.053-.636,1.053-.888,1.053a3.831,3.831,0,0,1-.9-.153,2.643,2.643,0,0,0-.352-.134c-.033,0-.1,0-.1.077,0,.057.569.88.67,1.053.034.077.167.383.2.44a.361.361,0,0,0,.368.211,2.04,2.04,0,0,0,1.842-1.569,18.5,18.5,0,0,0,.536-3.349,1.26,1.26,0,0,1,.268-.842c.184-.211.234-.268.234-.421,0-.268-.938-.976-1.072-.976-.117,0-.151.057-.352.4-.134.23-.234.23-1.022.23h-.569c-.268,0-.385-.057-.385-.287a6.6,6.6,0,0,1,.218-1.014c.033-.1.318-.459.318-.555,0-.306-1.558-.708-1.574-.708a.14.14,0,0,0-.117.044.186.186,0,0,0-.05.129,3.461,3.461,0,0,0,.134.459,1.143,1.143,0,0,1,.067.44,9.269,9.269,0,0,1-.1.957c-.067.383-.067.536-.419.536-.519,0-1.976-.057-2.077-.077-.084,0-.519-.057-.6-.057a.058.058,0,0,0-.05.057c0,.019,0,.038.067.115Zm-1.692-4.211c.4,0,.5,0,.5.211,0,.268-.435,1.34-.435,1.512,0,.019,0,.1.067.1.084,0,.285-.23.335-.306.737-.919,1.022-.957,1.306-.976.452-.019.737-.038.737-.478,0-.287-.134-.364-.569-.689a10.843,10.843,0,0,0-1-.651c-.084,0-.1.038-.335.4-.218.325-.234.364-.469.364h-2.646c-.854,0-2.027-.057-2.194-.057-.117-.019-.636-.077-.754-.077a.058.058,0,0,0-.05.057.565.565,0,0,0,.067.115l.318.44c.067.077.1.134.151.134s.636-.077.72-.077c.653-.019,1.206-.019,2.027-.019a.28.28,0,0,1,.3.268,18.734,18.734,0,0,1-2.228,4.651c-.218.325-1.373,1.971-1.373,2.01a.167.167,0,0,0,.151.153,10.169,10.169,0,0,0,2.144-2.163c.62-.823,1.038-1.474,1.139-1.627.034-.057.117-.153.184-.153.117,0,.117.249.117.421,0,1.168,0,2.833.017,3.981,0,1.148-.017,1.321-1.105,1.321-.117,0-.653-.057-.754-.057-.05,0-.2,0-.2.1,0,.077.218.153.4.23.7.306.821.517.888.708.1.249.134.325.285.325,1.457,0,1.457-1.608,1.457-2.086s-.017-5.474-.017-6.431c0-1.569,0-1.646.519-1.646Zm16.715,2.756c.469,0,.469.345.469.612,0,.4.034.593.435.593.134,0,1-.019,1-1.3,0-.536-.034-3.177-.034-3.79,0-.517,0-.574.067-.67.268-.364.285-.4.285-.555a2.275,2.275,0,0,0-1.223-1.187c-.234,0-.268.057-.62.612a.418.418,0,0,1-.435.23h-1.39a1.322,1.322,0,0,1-.854-.306,10.586,10.586,0,0,0-.955-.574c-.05,0-.05.057-.05.1,0,.1.067.517.084.612a24.136,24.136,0,0,1,.167,3.273A23.342,23.342,0,0,1-93.15-6.884c-.067.172-.435,1.014-.435,1.091,0,.057.05.057.067.057.1,0,.218-.115.519-.5a12.447,12.447,0,0,0,2.027-5.895c.1-.766.117-.919.469-.919Zm-1.457-.5c-.469,0-.469-.4-.469-.574,0-.345.067-2.546.067-3.024.017-.593.017-.842.5-.842h1.474a.428.428,0,0,1,.469.325c.05.268.05,2.737.05,3.158,0,.708,0,.957-.519.957Zm.3-8.134c-.553,0-1.373-.038-1.943-.077-.117,0-.636-.057-.754-.057-.017,0-.067,0-.067.038,0,.019.017.038.067.115l.335.44c.067.1.1.134.167.134.1,0,.586-.057.687-.057.469-.019.988-.038,1.457-.038h2.914c.536,0,.871-.019.871-.172a7.657,7.657,0,0,0-1.541-1.34c-.151,0-.569.766-.67.9-.067.077-.167.115-.871.115Zm11.121,5.838c.569,0,.9,0,.9-.268A5.8,5.8,0,0,0-79.7-17.64c-.151,0-.2.1-.67.976-.184.325-.368.325-1.072.325H-83.8c-.318,0-.318-.23-.318-.536,0-.287-.017-1.723-.017-2.029,0-.211,0-1.206.033-1.3s.084-.115.218-.153c.67-.172,3.886-1.187,4.154-1.244.486-.115.553-.134.553-.249,0-.1-.05-.134-.5-.383-.2-.115-1.29-.766-1.323-.766-.05,0-.921.842-1.072.976a6.261,6.261,0,0,1-2.144,1.4c-.151,0-1.105-.4-1.29-.4-.05,0-.05.057-.05.134,0,.153.067.842.084,1,.017.306.184,2.871.184,4.345,0,4.479-.62,6.68-2.295,8.823a1.323,1.323,0,0,0-.251.4.061.061,0,0,0,.067.057,4.155,4.155,0,0,0,1.357-1.187c1.357-1.627,2.06-3.215,2.278-7.79.017-.5.067-.593.385-.593h1.29a.442.442,0,0,1,.435.23c.067.153.067,3.369.067,3.713,0,1.321,0,2.871-.05,4.192-.017.268-.084,1.531-.084,1.7,0,.306.05.459.385.459A1.027,1.027,0,0,0-80.689-6.6c0-.976-.05-5.761-.05-6.833a21.334,21.334,0,0,1,.067-2.163.411.411,0,0,1,.435-.249Z" transform="translate(318.01 5312.538)" fill="#fff"/>
    <path id="パス_4096" data-name="パス 4096" d="M1.9-6.6v.128a.809.809,0,0,0-.318.037.182.182,0,0,0-.106.188.432.432,0,0,0,.017.109.787.787,0,0,0,.08.173L2.47-4.438l.866-1.554A.742.742,0,0,0,3.4-6.153a.431.431,0,0,0,.016-.094.188.188,0,0,0-.139-.2A.962.962,0,0,0,3-6.476V-6.6H4.319v.128a.564.564,0,0,0-.327.125,2.422,2.422,0,0,0-.5.663L2.6-4.134v1.342q0,.4.113.5a.935.935,0,0,0,.508.122v.125H1.375V-2.17a.8.8,0,0,0,.508-.139,1,1,0,0,0,.1-.563v-1.2L1.192-5.393a8.058,8.058,0,0,0-.571-.876.552.552,0,0,0-.4-.207V-6.6ZM6.032-3.909a2.54,2.54,0,0,0-.559.282.835.835,0,0,0-.424.68.55.55,0,0,0,.177.451.394.394,0,0,0,.256.094.641.641,0,0,0,.372-.124.372.372,0,0,0,.178-.316ZM4.524-2.715a.986.986,0,0,1,.427-.814,6.069,6.069,0,0,1,1.081-.548v-.286a1.334,1.334,0,0,0-.059-.478.4.4,0,0,0-.415-.225.518.518,0,0,0-.285.087.285.285,0,0,0-.134.249,1.037,1.037,0,0,0,.015.136,1.1,1.1,0,0,1,.015.122.3.3,0,0,1-.109.263.248.248,0,0,1-.147.044.234.234,0,0,1-.2-.1.371.371,0,0,1-.07-.22.724.724,0,0,1,.255-.493,1,1,0,0,1,.746-.257.774.774,0,0,1,.774.424,1.648,1.648,0,0,1,.109.676v1.35a1.027,1.027,0,0,0,.023.269.157.157,0,0,0,.159.131.239.239,0,0,0,.112-.024,1.141,1.141,0,0,0,.153-.114v.171a1.024,1.024,0,0,1-.2.215.545.545,0,0,1-.335.128.312.312,0,0,1-.29-.148A.727.727,0,0,1,6.041-2.5a2.841,2.841,0,0,1-.383.33.919.919,0,0,1-.509.181A.575.575,0,0,1,4.708-2.2a.743.743,0,0,1-.184-.517Zm3.015.582a.6.6,0,0,0,.306-.087.5.5,0,0,0,.118-.39V-4.35a.614.614,0,0,0-.058-.326.22.22,0,0,0-.19-.077.47.47,0,0,0-.092.007.448.448,0,0,0-.072.024v-.118l.212-.08q.115-.044.377-.158a2.919,2.919,0,0,1,.277-.114.015.015,0,0,1,.012,0,.019.019,0,0,1,.006.013.448.448,0,0,1,0,.064v.454a2.287,2.287,0,0,1,.5-.419.9.9,0,0,1,.435-.116.576.576,0,0,1,.483.236,1.082,1.082,0,0,1,.156.347,2.581,2.581,0,0,1,.38-.374.948.948,0,0,1,.571-.208.615.615,0,0,1,.633.441,2.474,2.474,0,0,1,.091.787V-2.57a.44.44,0,0,0,.092.325.6.6,0,0,0,.335.113v.088H10.791v-.094a.531.531,0,0,0,.335-.118.6.6,0,0,0,.08-.37v-1.45a1.386,1.386,0,0,0-.062-.481.416.416,0,0,0-.427-.276.622.622,0,0,0-.38.145,1.986,1.986,0,0,0-.268.269V-2.7a.825.825,0,0,0,.084.414.4.4,0,0,0,.355.153v.084H9.16v-.087a.5.5,0,0,0,.356-.153,1.246,1.246,0,0,0,.076-.562v-.942A2.875,2.875,0,0,0,9.534-4.5a.4.4,0,0,0-.412-.33.643.643,0,0,0-.353.113,1.162,1.162,0,0,0-.306.295v1.837a.589.589,0,0,0,.078.353.438.438,0,0,0,.34.1v.089H7.541Zm6.785-1.776a2.54,2.54,0,0,0-.559.282.835.835,0,0,0-.424.68.55.55,0,0,0,.177.451.394.394,0,0,0,.256.094.641.641,0,0,0,.372-.125.372.372,0,0,0,.178-.316ZM12.817-2.715a.986.986,0,0,1,.427-.814,6.07,6.07,0,0,1,1.081-.548v-.286a1.334,1.334,0,0,0-.059-.478.4.4,0,0,0-.415-.225.518.518,0,0,0-.285.087.285.285,0,0,0-.134.249,1.037,1.037,0,0,0,.015.136,1.1,1.1,0,0,1,.015.122.3.3,0,0,1-.109.263.248.248,0,0,1-.147.044.234.234,0,0,1-.2-.1.371.371,0,0,1-.07-.22.724.724,0,0,1,.255-.493,1,1,0,0,1,.746-.257.774.774,0,0,1,.774.424,1.648,1.648,0,0,1,.109.676v1.35a1.027,1.027,0,0,0,.023.269A.157.157,0,0,0,15-2.385a.239.239,0,0,0,.112-.024,1.14,1.14,0,0,0,.153-.114v.171a1.024,1.024,0,0,1-.2.215.545.545,0,0,1-.335.128.312.312,0,0,1-.29-.148.728.728,0,0,1-.1-.348,2.841,2.841,0,0,1-.383.33.919.919,0,0,1-.509.181A.576.576,0,0,1,13-2.2a.742.742,0,0,1-.186-.517Zm4.352-2.51a.753.753,0,0,1,.395.108.965.965,0,0,1,.226.2V-5.993a.692.692,0,0,0-.04-.282q-.04-.077-.19-.077a.5.5,0,0,0-.062,0l-.118.014v-.111l.241-.07q.134-.041.268-.084t.232-.084q.047-.017.156-.064l.017.007-.006.353q0,.191-.006.4t0,.4l-.006,2.748a.7.7,0,0,0,.047.306q.047.087.251.087h.067a.427.427,0,0,0,.067-.008v.11l-.427.168-.462.2L17.8-2.015v-.413a1.621,1.621,0,0,1-.3.3.842.842,0,0,1-.5.153.95.95,0,0,1-.811-.443,1.739,1.739,0,0,1-.311-1.024A2.105,2.105,0,0,1,16.256-4.7,1.1,1.1,0,0,1,17.169-5.225Zm.109,2.88a.477.477,0,0,0,.371-.153.448.448,0,0,0,.141-.292V-4.235a.793.793,0,0,0-.2-.617.615.615,0,0,0-.4-.18.636.636,0,0,0-.577.375,1.9,1.9,0,0,0-.206.923,2.072,2.072,0,0,0,.219.965.7.7,0,0,0,.655.424Zm3.671-1.564a2.54,2.54,0,0,0-.559.282.835.835,0,0,0-.424.68.55.55,0,0,0,.177.451A.394.394,0,0,0,20.4-2.4a.641.641,0,0,0,.372-.125.372.372,0,0,0,.178-.316ZM19.441-2.714a.986.986,0,0,1,.427-.814,6.069,6.069,0,0,1,1.081-.548v-.286a1.334,1.334,0,0,0-.059-.478.4.4,0,0,0-.415-.225.518.518,0,0,0-.291.087.285.285,0,0,0-.134.249,1.037,1.037,0,0,0,.015.136,1.1,1.1,0,0,1,.015.122.3.3,0,0,1-.109.263.248.248,0,0,1-.147.044.234.234,0,0,1-.2-.1.371.371,0,0,1-.07-.22.724.724,0,0,1,.255-.493,1,1,0,0,1,.746-.257.774.774,0,0,1,.774.424,1.648,1.648,0,0,1,.109.676v1.35a1.026,1.026,0,0,0,.023.269.157.157,0,0,0,.159.131.239.239,0,0,0,.112-.024,1.14,1.14,0,0,0,.153-.114v.171a1.024,1.024,0,0,1-.2.215.545.545,0,0,1-.335.128.311.311,0,0,1-.293-.145.73.73,0,0,1-.1-.351,2.841,2.841,0,0,1-.383.33.919.919,0,0,1-.509.181.576.576,0,0,1-.439-.205.742.742,0,0,1-.186-.517Zm7.249-1.1-.7-1.9-.689,1.9Zm-2.6,1.77V-2.17a.471.471,0,0,0,.349-.2,5.962,5.962,0,0,0,.4-.932l1.254-3.381h.12l1.5,3.9a1.735,1.735,0,0,0,.24.483.528.528,0,0,0,.3.126v.126H26.722V-2.17a1.2,1.2,0,0,0,.342-.066q.076-.039.076-.19A.944.944,0,0,0,27.11-2.6a2.132,2.132,0,0,0-.082-.269l-.251-.663H25.2q-.236.676-.281.826a.869.869,0,0,0-.044.238A.252.252,0,0,0,25-2.23a.875.875,0,0,0,.289.06v.125Zm4.757-.111a.646.646,0,0,0,.359-.109.5.5,0,0,0,.091-.351V-4.134a1.476,1.476,0,0,0-.054-.476.2.2,0,0,0-.2-.143.481.481,0,0,0-.078.008q-.049.008-.1.022v-.111l.344-.138q.177-.07.245-.1.147-.064.3-.145a.022.022,0,0,1,.025.017.349.349,0,0,1,0,.07v.552a2.494,2.494,0,0,1,.364-.468.525.525,0,0,1,.364-.168.316.316,0,0,1,.245.1.366.366,0,0,1,.094.257.37.37,0,0,1-.072.23.22.22,0,0,1-.181.094.322.322,0,0,1-.228-.117.312.312,0,0,0-.178-.118q-.1,0-.253.19a.625.625,0,0,0-.15.392v1.52a.549.549,0,0,0,.118.4.534.534,0,0,0,.391.106v.112h-1.45Zm3.944-3.062A.972.972,0,0,1,33.423-5a.612.612,0,0,1,.268.476.352.352,0,0,1-.067.207.238.238,0,0,1-.209.1.244.244,0,0,1-.181-.08.49.49,0,0,1-.113-.236L33.085-4.7a.423.423,0,0,0-.134-.253.423.423,0,0,0-.256-.07.676.676,0,0,0-.567.335,1.541,1.541,0,0,0-.231.89,1.673,1.673,0,0,0,.255.912.779.779,0,0,0,.687.4.766.766,0,0,0,.545-.23,2.094,2.094,0,0,0,.306-.417l.082.057a2.746,2.746,0,0,1-.353.639,1.037,1.037,0,0,1-.824.451,1.048,1.048,0,0,1-.813-.414,1.677,1.677,0,0,1-.353-1.124,1.907,1.907,0,0,1,.386-1.2,1.18,1.18,0,0,1,.973-.5ZM34.484-2.14a.479.479,0,0,0,.317-.135.917.917,0,0,0,.075-.469V-5.975a.678.678,0,0,0-.043-.278q-.043-.089-.208-.089a.392.392,0,0,0-.063.005l-.067.011v-.121l.32-.106q.19-.062.263-.089l.283-.1.006.024V-4.65a2.065,2.065,0,0,1,.33-.357.893.893,0,0,1,.559-.2.644.644,0,0,1,.651.459A1.786,1.786,0,0,1,37-4.114v1.369a.963.963,0,0,0,.072.464.411.411,0,0,0,.3.142v.094H36.1v-.094a.51.51,0,0,0,.33-.138.921.921,0,0,0,.074-.468V-4.108a1.243,1.243,0,0,0-.1-.528.36.36,0,0,0-.36-.2.671.671,0,0,0-.451.19q-.215.188-.215.246v1.657a.888.888,0,0,0,.081.47.53.53,0,0,0,.327.135v.095h-1.3Zm3.923-4.248a.373.373,0,0,1,.087-.25.275.275,0,0,1,.218-.1.278.278,0,0,1,.216.1.367.367,0,0,1,.09.25.362.362,0,0,1-.09.247.278.278,0,0,1-.216.1.276.276,0,0,1-.218-.1.367.367,0,0,1-.087-.247ZM38.03-2.139a.681.681,0,0,0,.4-.122.847.847,0,0,0,.082-.483V-4.353a1.161,1.161,0,0,0-.027-.306A.179.179,0,0,0,38.3-4.8a.3.3,0,0,0-.063.007q-.031.007-.178.054v-.1l.127-.047q.515-.191.718-.289a.351.351,0,0,1,.106-.041.207.207,0,0,1,.006.051v2.422a.886.886,0,0,0,.081.481.551.551,0,0,0,.366.125v.094H38.028Zm3.555-3.008v.242h-.6l-.005,1.942a1.473,1.473,0,0,0,.038.387.278.278,0,0,0,.277.23.3.3,0,0,0,.184-.057,1.022,1.022,0,0,0,.178-.181l.076.077-.067.1a1,1,0,0,1-.324.333.666.666,0,0,1-.33.1.468.468,0,0,1-.469-.353,1.657,1.657,0,0,1-.067-.531V-4.9h-.321a.089.089,0,0,1-.022-.02.045.045,0,0,1-.007-.027A.084.084,0,0,1,40.137-5a.936.936,0,0,1,.084-.086,2.706,2.706,0,0,0,.293-.311q.09-.119.423-.631a.087.087,0,0,1,.046.007s.007.021.007.051v.828ZM43.571-5.2a.974.974,0,0,1,.727.328,1.3,1.3,0,0,1,.312.93H42.739a1.978,1.978,0,0,0,.31,1.138.825.825,0,0,0,.663.357.764.764,0,0,0,.523-.185,1.816,1.816,0,0,0,.391-.525l.1.041a1.956,1.956,0,0,1-.454.791,1.055,1.055,0,0,1-.811.364.955.955,0,0,1-.856-.478,2.017,2.017,0,0,1-.3-1.1,1.958,1.958,0,0,1,.35-1.168,1.074,1.074,0,0,1,.912-.492Zm-.171.246a.555.555,0,0,0-.513.34,1.472,1.472,0,0,0-.134.459h1.239a1.559,1.559,0,0,0-.112-.5.5.5,0,0,0-.482-.3Zm3.429-.263A.972.972,0,0,1,47.464-5a.612.612,0,0,1,.268.476.352.352,0,0,1-.067.207.238.238,0,0,1-.209.1.244.244,0,0,1-.181-.08.49.49,0,0,1-.113-.236L47.126-4.7a.423.423,0,0,0-.134-.253.423.423,0,0,0-.256-.07.676.676,0,0,0-.567.335,1.541,1.541,0,0,0-.231.89,1.674,1.674,0,0,0,.255.912.779.779,0,0,0,.687.4.766.766,0,0,0,.545-.23,2.093,2.093,0,0,0,.306-.417l.082.057a2.747,2.747,0,0,1-.353.639,1.037,1.037,0,0,1-.824.451,1.048,1.048,0,0,1-.813-.414,1.677,1.677,0,0,1-.353-1.124,1.907,1.907,0,0,1,.386-1.2,1.181,1.181,0,0,1,.971-.5ZM50-5.147v.242h-.6l0,1.942a1.473,1.473,0,0,0,.038.387.278.278,0,0,0,.277.23A.3.3,0,0,0,49.9-2.4a1.022,1.022,0,0,0,.178-.181l.076.077-.067.1a1,1,0,0,1-.324.333.666.666,0,0,1-.33.1.468.468,0,0,1-.469-.353,1.657,1.657,0,0,1-.067-.531V-4.9h-.321a.089.089,0,0,1-.022-.02.045.045,0,0,1-.007-.027A.085.085,0,0,1,48.558-5a.936.936,0,0,1,.084-.086,2.707,2.707,0,0,0,.293-.311q.09-.119.423-.631a.087.087,0,0,1,.046.007s.007.021.007.051v.828Zm1.541-.014v2.154a1,1,0,0,0,.056.367.4.4,0,0,0,.4.256.628.628,0,0,0,.391-.153,1.221,1.221,0,0,0,.221-.23V-4.612a.472.472,0,0,0-.088-.34.6.6,0,0,0-.353-.1V-5.16h.951v2.368a.51.51,0,0,0,.072.315.374.374,0,0,0,.3.077v.094l-.239.077q-.076.025-.256.093-.076.031-.335.145a.017.017,0,0,1-.017-.015.188.188,0,0,1,0-.035v-.544a2.143,2.143,0,0,1-.365.4.832.832,0,0,1-.53.2.7.7,0,0,1-.491-.208.891.891,0,0,1-.23-.689V-4.626a.488.488,0,0,0-.1-.36.544.544,0,0,0-.277-.08V-5.16Zm2.569,3a.646.646,0,0,0,.359-.109.5.5,0,0,0,.088-.351V-4.134a1.476,1.476,0,0,0-.054-.476.2.2,0,0,0-.2-.143.481.481,0,0,0-.078.008q-.049.008-.1.022v-.111l.344-.138q.177-.07.245-.1.147-.064.3-.145a.022.022,0,0,1,.025.017.349.349,0,0,1,0,.07v.552a2.494,2.494,0,0,1,.364-.468.525.525,0,0,1,.364-.168.316.316,0,0,1,.245.1.366.366,0,0,1,.094.257.37.37,0,0,1-.072.23.22.22,0,0,1-.181.094.322.322,0,0,1-.225-.118.312.312,0,0,0-.178-.118q-.1,0-.253.19a.625.625,0,0,0-.15.392v1.52a.549.549,0,0,0,.118.4.534.534,0,0,0,.391.106v.112h-1.45Zm4.174-1.753a2.54,2.54,0,0,0-.559.282.835.835,0,0,0-.424.68.55.55,0,0,0,.177.451.394.394,0,0,0,.256.094.641.641,0,0,0,.372-.125.372.372,0,0,0,.178-.316ZM56.781-2.715a.986.986,0,0,1,.427-.814,6.069,6.069,0,0,1,1.081-.548v-.286a1.334,1.334,0,0,0-.059-.478.4.4,0,0,0-.415-.225.518.518,0,0,0-.285.087.285.285,0,0,0-.134.249,1.038,1.038,0,0,0,.015.136,1.1,1.1,0,0,1,.015.122.3.3,0,0,1-.109.263.248.248,0,0,1-.147.044.234.234,0,0,1-.2-.1.371.371,0,0,1-.07-.22.724.724,0,0,1,.255-.493,1,1,0,0,1,.746-.257.774.774,0,0,1,.774.424,1.648,1.648,0,0,1,.109.676v1.35a1.027,1.027,0,0,0,.023.269.157.157,0,0,0,.159.131.239.239,0,0,0,.112-.024,1.141,1.141,0,0,0,.153-.114v.171a1.024,1.024,0,0,1-.2.215.545.545,0,0,1-.335.128.312.312,0,0,1-.29-.148A.727.727,0,0,1,58.3-2.5a2.841,2.841,0,0,1-.383.33.919.919,0,0,1-.509.181.575.575,0,0,1-.442-.205.743.743,0,0,1-.182-.517Zm3.044.575a.636.636,0,0,0,.371-.126.537.537,0,0,0,.1-.375V-5.927a.974.974,0,0,0-.032-.306.231.231,0,0,0-.239-.142.444.444,0,0,0-.09.01q-.049.01-.122.031v-.111q.4-.121.957-.323a.023.023,0,0,1,.025.02.523.523,0,0,1,0,.087v4.035a.558.558,0,0,0,.088.378.622.622,0,0,0,.365.109v.094H59.824Zm4.85-2.183a2.777,2.777,0,0,0,.374,1.608,1.1,1.1,0,0,0,.918.518,1.112,1.112,0,0,0,.912-.5,2.743,2.743,0,0,0,.379-1.62,2.722,2.722,0,0,0-.383-1.627,1.12,1.12,0,0,0-.907-.5,1.105,1.105,0,0,0-.917.52,2.776,2.776,0,0,0-.375,1.608Zm-.683,0A2.53,2.53,0,0,1,64.6-6.093a1.782,1.782,0,0,1,1.369-.612,1.78,1.78,0,0,1,1.372.612,2.525,2.525,0,0,1,.6,1.766,2.5,2.5,0,0,1-.624,1.783,1.791,1.791,0,0,1-1.351.592,1.771,1.771,0,0,1-1.407-.656,2.566,2.566,0,0,1-.571-1.715ZM68.748-2.14a.578.578,0,0,0,.408-.135.823.823,0,0,0,.1-.489V-4.921h-.5v-.225h.5a2.776,2.776,0,0,1,.127-.9.9.9,0,0,1,.886-.7.913.913,0,0,1,.464.118.353.353,0,0,1,.2.316.307.307,0,0,1-.07.2.213.213,0,0,1-.171.087.206.206,0,0,1-.147-.059.97.97,0,0,1-.147-.207l-.05-.087a.473.473,0,0,0-.1-.119.229.229,0,0,0-.156-.049.307.307,0,0,0-.3.253,1.162,1.162,0,0,0-.044.353v.8h.737v.225h-.729v2.159a.85.85,0,0,0,.09.486.742.742,0,0,0,.469.136v.094H68.749Zm2.366,0a.577.577,0,0,0,.411-.133.823.823,0,0,0,.1-.489V-4.921h-.5v-.225h.5a2.776,2.776,0,0,1,.127-.9.9.9,0,0,1,.886-.7.913.913,0,0,1,.464.118.353.353,0,0,1,.2.316.307.307,0,0,1-.07.2.213.213,0,0,1-.171.087.206.206,0,0,1-.147-.059.97.97,0,0,1-.147-.207l-.05-.087a.473.473,0,0,0-.1-.119.229.229,0,0,0-.156-.049.307.307,0,0,0-.3.253,1.162,1.162,0,0,0-.044.353v.8h.737v.225h-.73v2.159a.85.85,0,0,0,.09.486.742.742,0,0,0,.469.136v.094H71.114Zm2.849-4.249a.373.373,0,0,1,.088-.25.275.275,0,0,1,.218-.1.278.278,0,0,1,.216.1.367.367,0,0,1,.09.25.362.362,0,0,1-.09.247.278.278,0,0,1-.216.1.276.276,0,0,1-.218-.1.366.366,0,0,1-.088-.246ZM73.587-2.14a.681.681,0,0,0,.4-.122.847.847,0,0,0,.082-.483V-4.353a1.16,1.16,0,0,0-.027-.306.179.179,0,0,0-.186-.138.3.3,0,0,0-.063.007q-.031.007-.178.054v-.1l.127-.047q.515-.191.718-.289a.351.351,0,0,1,.106-.041.208.208,0,0,1,.006.051v2.423a.886.886,0,0,0,.081.481.551.551,0,0,0,.366.125v.094H73.587Zm3.521-3.078A.972.972,0,0,1,77.742-5a.612.612,0,0,1,.268.476.352.352,0,0,1-.067.207.238.238,0,0,1-.209.1.244.244,0,0,1-.181-.08.49.49,0,0,1-.113-.236L77.4-4.7a.423.423,0,0,0-.134-.253.423.423,0,0,0-.256-.07.676.676,0,0,0-.567.335,1.541,1.541,0,0,0-.231.89,1.674,1.674,0,0,0,.255.912.779.779,0,0,0,.687.4.766.766,0,0,0,.545-.23,2.094,2.094,0,0,0,.306-.417l.082.057a2.746,2.746,0,0,1-.353.639,1.037,1.037,0,0,1-.824.451A1.048,1.048,0,0,1,76.1-2.4a1.677,1.677,0,0,1-.353-1.124,1.907,1.907,0,0,1,.386-1.2,1.181,1.181,0,0,1,.971-.5Zm3.023.017a.974.974,0,0,1,.727.328,1.3,1.3,0,0,1,.312.93H79.3a1.979,1.979,0,0,0,.308,1.138.824.824,0,0,0,.663.357.764.764,0,0,0,.521-.185,1.816,1.816,0,0,0,.391-.525l.1.041a1.957,1.957,0,0,1-.452.791,1.055,1.055,0,0,1-.811.364.955.955,0,0,1-.856-.478,2.017,2.017,0,0,1-.3-1.1,1.958,1.958,0,0,1,.35-1.168,1.073,1.073,0,0,1,.914-.492Zm-.171.246a.555.555,0,0,0-.513.34,1.472,1.472,0,0,0-.134.459h1.242a1.559,1.559,0,0,0-.112-.5.5.5,0,0,0-.485-.3Z" transform="translate(118.492 5320.686)" fill="#fff"/>
    <g id="グループ_1" data-name="グループ 1" transform="translate(80 5290.659)">
      <path id="パス_1" data-name="パス 1" d="M0,0V28.841L14.565,16.423,29.13,28.841V0Z" fill="#fff"/>
      <path id="パス_2" data-name="パス 2" d="M40.59,67.643l.032,1.684,1.46-.024L42.05,67.62Z" transform="translate(-27.886 -43.303)" fill="#fff"/>
      <path id="パス_3" data-name="パス 3" d="M41.886,60.259l-1.46.023.032,1.684,1.46-.023Z" transform="translate(-27.775 -38.701)" fill="#fff"/>
      <path id="パス_4" data-name="パス 4" d="M49.222,61.835l-.032-1.684-1.459.024.031,1.684Z" transform="translate(-32.793 -38.633)" fill="#fff"/>
      <path id="パス_5" data-name="パス 5" d="M47.92,69.221l1.46-.023-.032-1.684-1.46.024Z" transform="translate(-32.902 -43.234)" fill="#fff"/>
    </g>
  </g>
</svg>
