<svg xmlns="http://www.w3.org/2000/svg" xmlns:xlink="http://www.w3.org/1999/xlink" width="1367" height="3503" viewBox="0 0 1367 3503">
  <defs>
    <clipPath id="clip-k231204_赤城巧_山田建築事務所_DAY3課題_2回目">
      <rect width="1367" height="3503"/>
    </clipPath>
  </defs>
  <g id="k231204_赤城巧_山田建築事務所_DAY3課題_2回目" clip-path="url(#clip-k231204_赤城巧_山田建築事務所_DAY3課題_2回目)">
    <rect width="1367" height="3503" fill="#fff"/>
    <rect id="長方形_62" data-name="長方形 62" width="1366" height="298" transform="translate(0 3205)" fill="#e5e5e5"/>
    <rect id="長方形_2" data-name="長方形 2" width="1366" height="667" transform="translate(0 100)" fill="#d6d6d6"/>
    <text id="コンセプト" transform="translate(643 832)" fill="#333" font-size="16" font-family="NotoSansJP-Bold, Noto Sans JP" font-weight="700"><tspan x="0" y="0">コンセプト</tspan></text>
    <text id="Andante" transform="translate(133 140)" fill="#333" font-size="48" font-family="NotoSansJP-Bold, Noto Sans JP" font-weight="700"><tspan x="0" y="56">Andante</tspan></text>
    <g id="グループ_122" data-name="グループ 122" transform="translate(971 1205)">
      <g id="長方形_5" data-name="長方形 5" fill="#fff" stroke="#707070" stroke-width="1">
        <rect width="262" height="436" stroke="none"/>
        <rect x="0.5" y="0.5" width="261" height="435" fill="none"/>
      </g>
      <rect id="長方形_6" data-name="長方形 6" width="262" height="230" fill="#d6d6d6"/>
      <text id="イメージ写真から_イベント詳細へリンク" data-name="イメージ写真から
イベント詳細へリンク" transform="translate(125 97)" fill="#5298d6" font-size="18" font-family="NotoSansJP-Regular, Noto Sans JP"><tspan x="-71.82" y="0">イメージ写真から</tspan><tspan x="-90" y="26">イベント詳細へリンク</tspan></text>
      <g id="グループ_157" data-name="グループ 157" transform="translate(0 374.71)">
        <text id="時計ロゴ" transform="translate(0 2.29)" fill="#707070" font-size="14" font-family="NotoSansJP-Regular, Noto Sans JP"><tspan x="0" y="16">時計ロゴ</tspan></text>
        <text id="_2024.01.01_2024.01.31" data-name="2024.01.01 ～ 2024.01.31" transform="translate(63 0.29)" fill="#707070" font-size="16" font-family="NotoSansJP-Regular, Noto Sans JP"><tspan x="0" y="19">2024.01.01 ～ 2024.01.31</tspan></text>
      </g>
      <g id="グループ_159" data-name="グループ 159" transform="translate(0 403.71)">
        <g id="グループ_158" data-name="グループ 158" transform="translate(0 2)">
          <text id="位置ロゴ" transform="translate(0 0.29)" fill="#707070" font-size="14" font-family="NotoSansJP-Regular, Noto Sans JP"><tspan x="0" y="16">位置ロゴ</tspan></text>
        </g>
        <text id="郡山市_町" data-name="郡山市○○町" transform="translate(63 0.29)" fill="#707070" font-size="16" font-family="NotoSansJP-Regular, Noto Sans JP"><tspan x="0" y="19">郡山市○○町</tspan></text>
      </g>
      <text id="ご家族6人が暮らす二世帯住宅_キッチンは大人数でも調理ができるようにアイランド型にし_回遊動線も確保しました_" data-name="ご家族6人が暮らす二世帯住宅。
キッチンは大人数でも調理ができるようにアイランド型にし、回遊動線も確保しました。" transform="translate(7 240)" fill="#707070" font-size="16" font-family="NotoSansJP-Regular, Noto Sans JP"><tspan x="0" y="19">ご家族6人が暮らす二世帯住宅。</tspan><tspan x="0" y="43">キッチンは大人数でも調理ができ</tspan><tspan x="0" y="67">るようにアイランド型にし、回遊</tspan><tspan x="0" y="91">動線も確保しました。</tspan></text>
    </g>
    <g id="グループ_122-2" data-name="グループ 122" transform="translate(691 1205)">
      <g id="長方形_5-2" data-name="長方形 5" fill="#fff" stroke="#707070" stroke-width="1">
        <rect width="262" height="434" stroke="none"/>
        <rect x="0.5" y="0.5" width="261" height="433" fill="none"/>
      </g>
      <rect id="長方形_6-2" data-name="長方形 6" width="262" height="230" fill="#d6d6d6"/>
      <text id="イメージ写真から_イベント詳細へリンク-2" data-name="イメージ写真から
イベント詳細へリンク" transform="translate(125 95)" fill="#5298d6" font-size="18" font-family="NotoSansJP-Regular, Noto Sans JP"><tspan x="-71.82" y="0">イメージ写真から</tspan><tspan x="-90" y="26">イベント詳細へリンク</tspan></text>
      <g id="グループ_155" data-name="グループ 155" transform="translate(0 372.71)">
        <text id="時計ロゴ-2" data-name="時計ロゴ" transform="translate(0 2.29)" fill="#707070" font-size="14" font-family="NotoSansJP-Regular, Noto Sans JP"><tspan x="0" y="16">時計ロゴ</tspan></text>
        <text id="_2024.01.01_2024.01.31-2" data-name="2024.01.01 ～ 2024.01.31" transform="translate(63 0.29)" fill="#707070" font-size="16" font-family="NotoSansJP-Regular, Noto Sans JP"><tspan x="0" y="19">2024.01.01 ～ 2024.01.31</tspan></text>
      </g>
      <g id="グループ_156" data-name="グループ 156" transform="translate(0 401.71)">
        <text id="位置ロゴ-2" data-name="位置ロゴ" transform="translate(0 2.29)" fill="#707070" font-size="14" font-family="NotoSansJP-Regular, Noto Sans JP"><tspan x="0" y="16">位置ロゴ</tspan></text>
        <text id="郡山市_町-2" data-name="郡山市○○町" transform="translate(63 0.29)" fill="#707070" font-size="16" font-family="NotoSansJP-Regular, Noto Sans JP"><tspan x="0" y="19">郡山市○○町</tspan></text>
      </g>
      <text id="若い世代のご夫婦が住まう平屋の家_敷地は140坪あります_平屋の敷地面積は_約30坪_これから家族が増えることも考えて_子ども部屋も2部屋確保しました_" data-name="若い世代のご夫婦が住まう平屋の家。敷地は140坪あります。平屋の敷地面積は、約30坪。これから家族が増えることも考えて、子ども部屋も2部屋確保しました。" transform="translate(7 240)" fill="#707070" font-size="16" font-family="NotoSansJP-Regular, Noto Sans JP"><tspan x="0" y="19">若い世代のご夫婦が住まう平屋の</tspan><tspan x="0" y="43">家。敷地は140坪あります。平屋</tspan><tspan x="0" y="67">の敷地面積は、約30坪。これから</tspan><tspan x="0" y="91">家族が増えることも考えて、子ど</tspan><tspan x="0" y="115">も部屋も2部屋確保しました。</tspan></text>
    </g>
    <g id="グループ_122-3" data-name="グループ 122" transform="translate(412 1205)">
      <g id="長方形_5-3" data-name="長方形 5" fill="#fff" stroke="#707070" stroke-width="1">
        <rect width="262" height="436" stroke="none"/>
        <rect x="0.5" y="0.5" width="261" height="435" fill="none"/>
      </g>
      <rect id="長方形_6-3" data-name="長方形 6" width="262" height="230" fill="#d6d6d6"/>
      <text id="イメージ写真から_イベント詳細へリンク-3" data-name="イメージ写真から
イベント詳細へリンク" transform="translate(125 97)" fill="#5298d6" font-size="18" font-family="NotoSansJP-Regular, Noto Sans JP"><tspan x="-71.82" y="0">イメージ写真から</tspan><tspan x="-90" y="26">イベント詳細へリンク</tspan></text>
      <g id="グループ_153" data-name="グループ 153" transform="translate(0 374.71)">
        <text id="時計ロゴ-3" data-name="時計ロゴ" transform="translate(0 2.29)" fill="#707070" font-size="14" font-family="NotoSansJP-Regular, Noto Sans JP"><tspan x="0" y="16">時計ロゴ</tspan></text>
        <text id="_2024.01.01_2024.01.31-3" data-name="2024.01.01 ～ 2024.01.31" transform="translate(63 0.29)" fill="#707070" font-size="16" font-family="NotoSansJP-Regular, Noto Sans JP"><tspan x="0" y="19">2024.01.01 ～ 2024.01.31</tspan></text>
      </g>
      <g id="グループ_154" data-name="グループ 154" transform="translate(0 403.71)">
        <text id="位置ロゴ-3" data-name="位置ロゴ" transform="translate(0 2.29)" fill="#707070" font-size="14" font-family="NotoSansJP-Regular, Noto Sans JP"><tspan x="0" y="16">位置ロゴ</tspan></text>
        <text id="郡山市_町-3" data-name="郡山市○○町" transform="translate(63 0.29)" fill="#707070" font-size="16" font-family="NotoSansJP-Regular, Noto Sans JP"><tspan x="0" y="19">郡山市○○町</tspan></text>
      </g>
      <text id="家族は_ご夫婦とお子様_人の_人暮らし_約50坪の敷地に立つ_階建ての家_シンプルな外観は_落ち着きがあって飽きのこないデザインです_" data-name="家族は、ご夫婦とお子様２人の４人暮らし。約50坪の敷地に立つ２階建ての家。シンプルな外観は、落ち着きがあって飽きのこないデザインです。" transform="translate(7 240)" fill="#707070" font-size="16" font-family="NotoSansJP-Regular, Noto Sans JP"><tspan x="0" y="19">家族は、ご夫婦とお子様２人の４</tspan><tspan x="0" y="43">人暮らし。約50坪の敷地に立つ２</tspan><tspan x="0" y="67">階建ての家。シンプルな外観は、</tspan><tspan x="0" y="91">落ち着きがあって飽きのこないデ</tspan><tspan x="0" y="115">ザインです。</tspan></text>
    </g>
    <g id="グループ_122-4" data-name="グループ 122" transform="translate(132 1205)">
      <g id="長方形_5-4" data-name="長方形 5" fill="#fff" stroke="#707070" stroke-width="1">
        <rect width="262" height="434" stroke="none"/>
        <rect x="0.5" y="0.5" width="261" height="433" fill="none"/>
      </g>
      <rect id="長方形_6-4" data-name="長方形 6" width="262" height="230" fill="#d6d6d6"/>
      <text id="イメージ写真から_イベント詳細へリンク-4" data-name="イメージ写真から
イベント詳細へリンク" transform="translate(131 95)" fill="#5298d6" font-size="18" font-family="NotoSansJP-Regular, Noto Sans JP"><tspan x="-71.82" y="0">イメージ写真から</tspan><tspan x="-90" y="26">イベント詳細へリンク</tspan></text>
      <g id="グループ_151" data-name="グループ 151" transform="translate(0 371.71)">
        <text id="時計ロゴ-4" data-name="時計ロゴ" transform="translate(0 2.29)" fill="#707070" font-size="14" font-family="NotoSansJP-Regular, Noto Sans JP"><tspan x="0" y="16">時計ロゴ</tspan></text>
        <text id="_2024.01.01_2024.01.31-4" data-name="2024.01.01 ～ 2024.01.31" transform="translate(63 0.29)" fill="#707070" font-size="16" font-family="NotoSansJP-Regular, Noto Sans JP"><tspan x="0" y="19">2024.01.01 ～ 2024.01.31</tspan></text>
      </g>
      <g id="グループ_152" data-name="グループ 152" transform="translate(0 401.71)">
        <text id="位置ロゴ-4" data-name="位置ロゴ" transform="translate(0 2.29)" fill="#707070" font-size="14" font-family="NotoSansJP-Regular, Noto Sans JP"><tspan x="0" y="16">位置ロゴ</tspan></text>
        <text id="郡山市_町-4" data-name="郡山市○○町" transform="translate(63 0.29)" fill="#707070" font-size="16" font-family="NotoSansJP-Regular, Noto Sans JP"><tspan x="0" y="19">郡山市○○町</tspan></text>
      </g>
      <text id="家族は_ご夫婦とお子様_人の_人暮らし_約60坪の敷地に立つ_階建ての家_家事がはかどる間取りが特徴のモデルハウスです_" data-name="家族は、ご夫婦とお子様２人の４人暮らし。約60坪の敷地に立つ２階建ての家。家事がはかどる間取りが特徴のモデルハウスです。" transform="translate(7 241)" fill="#707070" font-size="16" font-family="NotoSansJP-Regular, Noto Sans JP"><tspan x="0" y="19">家族は、ご夫婦とお子様２人の４</tspan><tspan x="0" y="43">人暮らし。約60坪の敷地に立つ２</tspan><tspan x="0" y="67">階建ての家。家事がはかどる間取</tspan><tspan x="0" y="91">りが特徴のモデルハウスです。</tspan></text>
    </g>
    <g id="グループ_126" data-name="グループ 126" transform="translate(33 -32)">
      <text id="あるくような速さで_あなたのくらしに寄り添う家" data-name="あるくような速さで　あなたのくらしに寄り添う家" transform="translate(100 252)" fill="#333" font-size="28" font-family="NotoSansJP-Regular, Noto Sans JP"><tspan x="0" y="32">あるくような速さで　あなたのくらしに寄り添う家</tspan></text>
    </g>
    <text id="イベント" transform="translate(651 1166)" fill="#333" font-size="16" font-family="NotoSansJP-Bold, Noto Sans JP" font-weight="700"><tspan x="-32" y="19">イベント</tspan></text>
    <text id="実例一覧" transform="translate(651 1782)" fill="#333" font-size="16" font-family="NotoSansJP-Bold, Noto Sans JP" font-weight="700"><tspan x="-32" y="19">実例一覧</tspan></text>
    <g id="長方形_50" data-name="長方形 50" transform="translate(300 2570)" fill="#d6d6d6" stroke="#707070" stroke-width="1" opacity="0.6">
      <rect width="767" height="197" stroke="none"/>
      <rect x="0.5" y="0.5" width="766" height="196" fill="none"/>
    </g>
    <g id="グループ_125" data-name="グループ 125" transform="translate(40.51 -74.547)">
      <rect id="長方形_3" data-name="長方形 3" width="456" height="168" transform="translate(736.49 936.547)" fill="#d6d6d6"/>
      <text id="イメージ写真から_コンセプトページへリンク" data-name="イメージ写真から
コンセプトページへリンク" transform="translate(802.49 982.547)" fill="#5298d6" font-size="27" font-family="NotoSansJP-Regular, Noto Sans JP"><tspan x="-107.73" y="31">イメージ写真から</tspan><tspan x="-161.73" y="70">コンセプトページへリンク</tspan></text>
      <g id="長方形_51" data-name="長方形 51" transform="translate(736.49 936.547)" fill="none" stroke="#707070" stroke-width="1">
        <rect width="456" height="168" stroke="none"/>
        <rect x="0.5" y="0.5" width="455" height="167" fill="none"/>
      </g>
    </g>
    <text id="無料DLバナー" transform="translate(684 2674)" fill="#5298d6" font-size="32" font-family="NotoSansJP-Regular, Noto Sans JP"><tspan x="-99.696" y="0">無料DLバナー</tspan></text>
    <text id="メインビジュアル写真" transform="translate(550 384)" fill="#333" font-size="27" font-family="NotoSansJP-Regular, Noto Sans JP"><tspan x="0" y="31">メインビジュアル写真</tspan></text>
    <g id="長方形_44" data-name="長方形 44" transform="translate(133 1816)" fill="#fff" stroke="#707070" stroke-width="1">
      <rect width="356" height="569" stroke="none"/>
      <rect x="0.5" y="0.5" width="355" height="568" fill="none"/>
    </g>
    <rect id="長方形_45" data-name="長方形 45" width="356" height="280" transform="translate(133 1816)" fill="#d6d6d6"/>
    <text id="新築戸建" transform="translate(151 2125)" fill="#707070" font-size="16" font-family="NotoSansJP-Regular, Noto Sans JP"><tspan x="0" y="0">新築戸建</tspan></text>
    <text id="イメージ写真から_実例詳細へリンク" data-name="イメージ写真から
実例詳細へリンク" transform="translate(239 1938)" fill="#5298d6" font-size="18" font-family="NotoSansJP-Regular, Noto Sans JP"><tspan x="-71.82" y="21">イメージ写真から</tspan><tspan x="-72" y="47">実例詳細へリンク</tspan></text>
    <g id="グループ_161" data-name="グループ 161" transform="translate(-419 11)">
      <g id="グループ_160" data-name="グループ 160" transform="translate(392.5)">
        <text id="イベント一覧を見る" transform="translate(601.5 1663)" fill="#5298d6" font-size="18" font-family="NotoSansJP-Bold, Noto Sans JP" font-weight="700"><tspan x="-81" y="21">イベント一覧を見る</tspan></text>
        <g id="右矢印_" data-name="右矢印→" transform="translate(789.779 1669)">
          <path id="パス_103" data-name="パス 103" d="M615.28,854.378l12.07,8.259-12.07,6.035" transform="translate(-615.28 -854.378)" fill="#5298d6" stroke="#5298d6" stroke-width="1"/>
        </g>
        <g id="右矢印_2" data-name="右矢印→" transform="translate(811.846 1669)">
          <path id="パス_103-2" data-name="パス 103" d="M615.28,854.378l12.07,8.259-12.07,6.035" transform="translate(-621.28 -854.378)" fill="#5298d6" stroke="#5298d6" stroke-width="1"/>
        </g>
      </g>
      <g id="長方形_52" data-name="長方形 52" transform="translate(971 1650)" fill="none" stroke="#5298d6" stroke-width="1">
        <rect width="262" height="55" stroke="none"/>
        <rect x="0.5" y="0.5" width="261" height="54" fill="none"/>
      </g>
    </g>
    <text id="CONCEPT" transform="translate(608 767)" fill="#333" font-size="32" font-family="NotoSansJP-Bold, Noto Sans JP" font-weight="700"><tspan x="0" y="37">CONCEPT</tspan></text>
    <text id="EVENT" transform="translate(631 1120)" fill="#333" font-size="32" font-family="NotoSansJP-Bold, Noto Sans JP" font-weight="700"><tspan x="-51.568" y="37">EVENT</tspan></text>
    <g id="グループ_165" data-name="グループ 165" transform="translate(-419 754.967)">
      <g id="グループ_160-2" data-name="グループ 160" transform="translate(383.5)">
        <text id="実例一覧を見る" transform="translate(619.5 1664)" fill="#5298d6" font-size="18" font-family="NotoSansJP-Bold, Noto Sans JP" font-weight="700"><tspan x="-63" y="21">実例一覧を見る</tspan></text>
        <g id="右矢印_3" data-name="右矢印→" transform="translate(789.779 1670)">
          <path id="パス_103-3" data-name="パス 103" d="M615.28,854.378l12.07,8.259-12.07,6.035" transform="translate(-615.28 -854.378)" fill="#5298d6" stroke="#5298d6" stroke-width="1"/>
        </g>
        <g id="右矢印_4" data-name="右矢印→" transform="translate(811.846 1670)">
          <path id="パス_103-4" data-name="パス 103" d="M615.28,854.378l12.07,8.259-12.07,6.035" transform="translate(-621.28 -854.378)" fill="#5298d6" stroke="#5298d6" stroke-width="1"/>
        </g>
      </g>
      <g id="長方形_52-2" data-name="長方形 52" transform="translate(971 1650)" fill="none" stroke="#5298d6" stroke-width="1">
        <rect width="262" height="55" stroke="none"/>
        <rect x="0.5" y="0.5" width="261" height="54" fill="none"/>
      </g>
    </g>
    <g id="パス_104" data-name="パス 104" transform="translate(151 2140)" fill="none">
      <path d="M0,0H320V110H0Z" stroke="none"/>
      <path d="M 1 1 L 1 109 L 319 109 L 319 1 L 1 1 M 0 0 L 320 0 L 320 110 L 0 110 L 0 0 Z" stroke="none" fill="#707070"/>
    </g>
    <text id="大きめの家具や照明器具_個性的な床材を取り入れたり_アンティーク調の重厚感のあるインテリアを中心に日常をコーディネートしました_" data-name="大きめの家具や照明器具、個性的な床材を取り入れたり、アンティーク調の重厚感のあるインテリアを中心に日常をコーディネートしました。" transform="translate(161 2147)" fill="#707070" font-size="16" font-family="NotoSansJP-Regular, Noto Sans JP"><tspan x="0" y="19">大きめの家具や照明器具、個性的な床材</tspan><tspan x="0" y="43">を取り入れたり、アンティーク調の重厚</tspan><tspan x="0" y="67">感のあるインテリアを中心に日常をコー</tspan><tspan x="0" y="91">ディネートしました。</tspan></text>
    <text id="お客様の声" transform="translate(151 2275)" fill="#333" font-size="16" font-family="NotoSansJP-Bold, Noto Sans JP" font-weight="700"><tspan x="0" y="0">お客様の声</tspan></text>
    <text id="どうしても大きなソファーが欲しくて_妻と相談して買いました_笑_" data-name="どうしても大きなソファーが欲しくて、妻と相談して買いました（笑）" transform="translate(163 2302)" fill="#707070" font-size="16" font-family="NotoSansJP-Bold, Noto Sans JP" font-weight="700"><tspan x="0" y="19">どうしても大きなソファーが欲しくて、</tspan><tspan x="0" y="43">妻と相談して買いました（笑）</tspan></text>
    <g id="パス_105" data-name="パス 105" transform="translate(151 2286)" fill="none">
      <path d="M0,0H320V80H0Z" stroke="none"/>
      <path d="M 1 1 L 1 79 L 319 79 L 319 1 L 1 1 M 0 0 L 320 0 L 320 80 L 0 80 L 0 0 Z" stroke="none" fill="#707070"/>
    </g>
    <text id="Request" transform="translate(619 2479.983)" fill="#333" font-size="32" font-family="NotoSansJP-Bold, Noto Sans JP" font-weight="700"><tspan x="-63.936" y="37">Request</tspan></text>
    <g id="グループ_178" data-name="グループ 178" transform="translate(-4 -33)">
      <text id="あるくように_うたうように_" data-name="あるくように。うたうように、" transform="translate(194 918)" fill="#333" font-size="34" font-family="NotoSansJP-Bold, Noto Sans JP" font-weight="700"><tspan x="0" y="0">あるくように。うたうように、</tspan></text>
      <text id="私達が奏でるのは人生です_" data-name="私達が奏でるのは人生です。" transform="translate(195 980)" fill="#333" font-size="30" font-family="NotoSansJP-Regular, Noto Sans JP"><tspan x="0" y="0">私達が奏でるのは人生です。</tspan></text>
      <text id="あなたがあなたらしく_くつろげる空間を_" data-name="あなたがあなたらしく、くつろげる空間を。" transform="translate(195 1036)" fill="#333" font-size="19" font-family="NotoSansJP-Regular, Noto Sans JP"><tspan x="0" y="0">あなたがあなたらしく、くつろげる空間を。</tspan></text>
      <text id="そして_あなたらしい人生を_" data-name="そして、あなたらしい人生を。" transform="translate(195 1073)" fill="#333" font-size="19" font-family="NotoSansJP-Regular, Noto Sans JP"><tspan x="0" y="0">そして、あなたらしい人生を。</tspan></text>
    </g>
    <text id="CASE" transform="translate(642 1736)" fill="#333" font-size="32" font-family="NotoSansJP-Bold, Noto Sans JP" font-weight="700"><tspan x="-40.576" y="37">CASE</tspan></text>
    <line id="線_1" data-name="線 1" x2="550" transform="translate(133.5 2886)" fill="none" stroke="#707070" stroke-width="1"/>
    <text id="_2023.04.04" data-name="2023.04.04" transform="translate(133 2923.423)" fill="#707070" font-size="16" font-family="NotoSansJP-Regular, Noto Sans JP"><tspan x="0" y="0">2023.04.04</tspan></text>
    <text id="お知らせ詳細_リンク_" data-name="お知らせ詳細（リンク）" transform="translate(298 2923.423)" fill="#5298d6" font-size="16" font-family="NotoSansJP-Regular, Noto Sans JP"><tspan x="-47.84" y="0">お知らせ詳細</tspan><tspan x="-40" y="24">（リンク）</tspan></text>
    <text id="お知らせのタイトルが表示されます" transform="translate(410 2923.423)" fill="#707070" font-size="16" font-family="NotoSansJP-Regular, Noto Sans JP"><tspan x="0" y="0">お知らせのタイトルが表示されます</tspan></text>
    <line id="線_2" data-name="線 2" x2="550" transform="translate(133.5 2957.371)" fill="none" stroke="#707070" stroke-width="1"/>
    <text id="_2023.04.04-2" data-name="2023.04.04" transform="translate(133 2995.48)" fill="#707070" font-size="16" font-family="NotoSansJP-Regular, Noto Sans JP"><tspan x="0" y="0">2023.04.04</tspan></text>
    <text id="お知らせ詳細_リンク_2" data-name="お知らせ詳細
（リンク）" transform="translate(298 2995.48)" fill="#5298d6" font-size="16" font-family="NotoSansJP-Regular, Noto Sans JP"><tspan x="-47.84" y="0">お知らせ詳細</tspan><tspan x="-40" y="24">（リンク）</tspan></text>
    <text id="お知らせのタイトルが表示されます-2" data-name="お知らせのタイトルが表示されます" transform="translate(410 2995.48)" fill="#707070" font-size="16" font-family="NotoSansJP-Regular, Noto Sans JP"><tspan x="0" y="0">お知らせのタイトルが表示されます</tspan></text>
    <line id="線_2-2" data-name="線 2" x2="550" transform="translate(133.5 3029.497)" fill="none" stroke="#707070" stroke-width="1"/>
    <text id="_2023.04.04-3" data-name="2023.04.04" transform="translate(133 3067.539)" fill="#707070" font-size="16" font-family="NotoSansJP-Regular, Noto Sans JP"><tspan x="0" y="0">2023.04.04</tspan></text>
    <text id="お知らせ詳細_リンク_3" data-name="お知らせ詳細
（リンク）" transform="translate(298 3067.539)" fill="#5298d6" font-size="16" font-family="NotoSansJP-Regular, Noto Sans JP"><tspan x="-47.84" y="0">お知らせ詳細</tspan><tspan x="-40" y="24">（リンク）</tspan></text>
    <text id="お知らせのタイトルが表示されます-3" data-name="お知らせのタイトルが表示されます" transform="translate(410 3067.539)" fill="#707070" font-size="16" font-family="NotoSansJP-Regular, Noto Sans JP"><tspan x="0" y="0">お知らせのタイトルが表示されます</tspan></text>
    <line id="線_2-3" data-name="線 2" x2="550" transform="translate(133.5 3100)" fill="none" stroke="#707070" stroke-width="1"/>
    <g id="グループ_198" data-name="グループ 198" transform="translate(-274.25 32)">
      <text id="お知らせ" transform="translate(651.25 2820)" fill="#333" font-size="16" font-family="NotoSansJP-Bold, Noto Sans JP" font-weight="700"><tspan x="-31.84" y="19">お知らせ</tspan></text>
      <text id="NEWS" transform="translate(648.25 2785)" fill="#333" font-size="24" font-family="NotoSansJP-Bold, Noto Sans JP" font-weight="700"><tspan x="-34.74" y="28">NEWS</tspan></text>
    </g>
    <text id="資料請求" transform="translate(683 2544.983)" fill="#333" font-size="16" font-family="NotoSansJP-Bold, Noto Sans JP" font-weight="700"><tspan x="-32" y="0">資料請求</tspan></text>
    <line id="線_3" data-name="線 3" x2="1100.25" transform="translate(132.875 1120)" fill="none" stroke="#707070" stroke-width="1"/>
    <line id="線_4" data-name="線 4" x2="1100.25" transform="translate(132.875 1736)" fill="none" stroke="#707070" stroke-width="1"/>
    <line id="線_5" data-name="線 5" x2="1100.25" transform="translate(132.875 2479.967)" fill="none" stroke="#707070" stroke-width="1"/>
    <g id="グループ_181" data-name="グループ 181" transform="translate(-419 -605)">
      <g id="グループ_160-3" data-name="グループ 160" transform="translate(392.5)">
        <text id="コンセプトを見る" transform="translate(601.5 1663)" fill="#5298d6" font-size="18" font-family="NotoSansJP-Bold, Noto Sans JP" font-weight="700"><tspan x="-72" y="21">コンセプトを見る</tspan></text>
        <g id="右矢印_5" data-name="右矢印→" transform="translate(789.779 1669)">
          <path id="パス_103-5" data-name="パス 103" d="M615.28,854.378l12.07,8.259-12.07,6.035" transform="translate(-615.28 -854.378)" fill="#5298d6" stroke="#5298d6" stroke-width="1"/>
        </g>
        <g id="右矢印_6" data-name="右矢印→" transform="translate(811.846 1669)">
          <path id="パス_103-6" data-name="パス 103" d="M615.28,854.378l12.07,8.259-12.07,6.035" transform="translate(-621.28 -854.378)" fill="#5298d6" stroke="#5298d6" stroke-width="1"/>
        </g>
      </g>
      <g id="長方形_52-3" data-name="長方形 52" transform="translate(971 1650)" fill="none" stroke="#5298d6" stroke-width="1">
        <rect width="262" height="55" stroke="none"/>
        <rect x="0.5" y="0.5" width="261" height="54" fill="none"/>
      </g>
    </g>
    <g id="グループ_197" data-name="グループ 197" transform="translate(-693 1480)">
      <g id="グループ_160-4" data-name="グループ 160" transform="translate(398.5)">
        <text id="お知らせ一覧を見る" transform="translate(588.5 1664)" fill="#5298d6" font-size="18" font-family="NotoSansJP-Bold, Noto Sans JP" font-weight="700"><tspan x="-80.82" y="21">お知らせ一覧を見る</tspan></text>
        <g id="右矢印_7" data-name="右矢印→" transform="translate(789.779 1670)">
          <path id="パス_103-7" data-name="パス 103" d="M615.28,854.378l12.07,8.259-12.07,6.035" transform="translate(-615.28 -854.378)" fill="#5298d6" stroke="#5298d6" stroke-width="1"/>
        </g>
        <g id="右矢印_8" data-name="右矢印→" transform="translate(811.846 1670)">
          <path id="パス_103-8" data-name="パス 103" d="M615.28,854.378l12.07,8.259-12.07,6.035" transform="translate(-621.28 -854.378)" fill="#5298d6" stroke="#5298d6" stroke-width="1"/>
        </g>
      </g>
      <g id="長方形_52-4" data-name="長方形 52" transform="translate(971 1650)" fill="none" stroke="#5298d6" stroke-width="1">
        <rect width="262" height="55" stroke="none"/>
        <rect x="0.5" y="0.5" width="261" height="54" fill="none"/>
      </g>
    </g>
    <line id="線_6" data-name="線 6" x2="1100.25" transform="translate(132.875 2796.983)" fill="none" stroke="#707070" stroke-width="1"/>
    <g id="グループ_199" data-name="グループ 199" transform="translate(272.75 32)">
      <text id="会社概要" transform="translate(665.25 2820)" fill="#333" font-size="16" font-family="NotoSansJP-Bold, Noto Sans JP" font-weight="700"><tspan x="-32" y="19">会社概要</tspan></text>
      <text id="CONPANY" transform="translate(625.25 2785)" fill="#333" font-size="24" font-family="NotoSansJP-Bold, Noto Sans JP" font-weight="700"><tspan x="-56.472" y="28">CONPANY</tspan></text>
    </g>
    <g id="グループ_200" data-name="グループ 200" transform="translate(10.51 1949.453)">
      <rect id="長方形_3-2" data-name="長方形 3" width="456" height="214" transform="translate(736.49 936.547)" fill="#d6d6d6"/>
      <text id="イメージ写真から_会社概要ページへリンク" data-name="イメージ写真から
会社概要ページへリンク" transform="translate(802.49 1006.518)" fill="#5298d6" font-size="27" font-family="NotoSansJP-Regular, Noto Sans JP"><tspan x="-107.73" y="31">イメージ写真から</tspan><tspan x="-148.23" y="70">会社概要ページへリンク</tspan></text>
      <g id="長方形_51-2" data-name="長方形 51" transform="translate(736.49 936.547)" fill="none" stroke="#707070" stroke-width="1">
        <rect width="456" height="214" stroke="none"/>
        <rect x="0.5" y="0.5" width="455" height="213" fill="none"/>
      </g>
    </g>
    <g id="グループ_201" data-name="グループ 201" transform="translate(-127 1480)">
      <g id="グループ_160-5" data-name="グループ 160" transform="translate(398.5)">
        <text id="会社概要を見る" transform="translate(588.5 1664)" fill="#5298d6" font-size="18" font-family="NotoSansJP-Bold, Noto Sans JP" font-weight="700"><tspan x="-63" y="21">会社概要を見る</tspan></text>
        <g id="右矢印_9" data-name="右矢印→" transform="translate(789.779 1670)">
          <path id="パス_103-9" data-name="パス 103" d="M615.28,854.378l12.07,8.259-12.07,6.035" transform="translate(-615.28 -854.378)" fill="#5298d6" stroke="#5298d6" stroke-width="1"/>
        </g>
        <g id="右矢印_10" data-name="右矢印→" transform="translate(811.846 1670)">
          <path id="パス_103-10" data-name="パス 103" d="M615.28,854.378l12.07,8.259-12.07,6.035" transform="translate(-621.28 -854.378)" fill="#5298d6" stroke="#5298d6" stroke-width="1"/>
        </g>
      </g>
      <g id="長方形_52-5" data-name="長方形 52" transform="translate(971 1650)" fill="none" stroke="#5298d6" stroke-width="1">
        <rect width="262" height="55" stroke="none"/>
        <rect x="0.5" y="0.5" width="261" height="54" fill="none"/>
      </g>
    </g>
    <g id="長方形_58" data-name="長方形 58" transform="translate(506 1816)" fill="#fff" stroke="#707070" stroke-width="1">
      <rect width="356" height="569" stroke="none"/>
      <rect x="0.5" y="0.5" width="355" height="568" fill="none"/>
    </g>
    <rect id="長方形_59" data-name="長方形 59" width="356" height="280" transform="translate(506 1816)" fill="#d6d6d6"/>
    <text id="イメージ写真から_実例詳細へリンク-2" data-name="イメージ写真から
実例詳細へリンク" transform="translate(612 1938)" fill="#5298d6" font-size="18" font-family="NotoSansJP-Regular, Noto Sans JP"><tspan x="-71.82" y="21">イメージ写真から</tspan><tspan x="-72" y="47">実例詳細へリンク</tspan></text>
    <g id="パス_107" data-name="パス 107" transform="translate(524 2140)" fill="none">
      <path d="M0,0H320V110H0Z" stroke="none"/>
      <path d="M 1 1 L 1 109 L 319 109 L 319 1 L 1 1 M 0 0 L 320 0 L 320 110 L 0 110 L 0 0 Z" stroke="none" fill="#707070"/>
    </g>
    <text id="美しさと実用性を兼ね備えた理想の家を実現できました_" data-name="美しさと実用性を兼ね備えた理想の家を実現できました。" transform="translate(534 2147)" fill="#707070" font-size="16" font-family="NotoSansJP-Regular, Noto Sans JP"><tspan x="0" y="19">美しさと実用性を兼ね備えた理想の家を</tspan><tspan x="0" y="43">実現できました。</tspan></text>
    <text id="日あたりがよく_開放感を感じられる_シンプルで飽きの来ない自由な空間を_実現しました_" data-name="日あたりがよく、開放感を感じられる
シンプルで飽きの来ない自由な空間を
実現しました。" transform="translate(536 2292)" fill="#707070" font-size="16" font-family="NotoSansJP-Bold, Noto Sans JP" font-weight="700"><tspan x="0" y="19">日あたりがよく、開放感を感じられる</tspan><tspan x="0" y="43">シンプルで飽きの来ない自由な空間を</tspan><tspan x="0" y="67">実現しました。</tspan></text>
    <g id="パス_108" data-name="パス 108" transform="translate(524 2288)" fill="none">
      <path d="M0,0H320V80H0Z" stroke="none"/>
      <path d="M 1 1 L 1 79 L 319 79 L 319 1 L 1 1 M 0 0 L 320 0 L 320 80 L 0 80 L 0 0 Z" stroke="none" fill="#707070"/>
    </g>
    <text id="新築戸建-2" data-name="新築戸建" transform="translate(524 2125)" fill="#707070" font-size="16" font-family="NotoSansJP-Regular, Noto Sans JP"><tspan x="0" y="0">新築戸建</tspan></text>
    <text id="お客様の声-2" data-name="お客様の声" transform="translate(524 2275)" fill="#333" font-size="16" font-family="NotoSansJP-Bold, Noto Sans JP" font-weight="700"><tspan x="0" y="0">お客様の声</tspan></text>
    <g id="長方形_60" data-name="長方形 60" transform="translate(877 1816)" fill="#fff" stroke="#707070" stroke-width="1">
      <rect width="356" height="569" stroke="none"/>
      <rect x="0.5" y="0.5" width="355" height="568" fill="none"/>
    </g>
    <rect id="長方形_61" data-name="長方形 61" width="356" height="280" transform="translate(877 1816)" fill="#d6d6d6"/>
    <text id="イメージ写真から_実例詳細へリンク-3" data-name="イメージ写真から
実例詳細へリンク" transform="translate(983 1938)" fill="#5298d6" font-size="18" font-family="NotoSansJP-Regular, Noto Sans JP"><tspan x="-71.82" y="21">イメージ写真から</tspan><tspan x="-72" y="47">実例詳細へリンク</tspan></text>
    <g id="パス_109" data-name="パス 109" transform="translate(895 2140)" fill="none">
      <path d="M0,0H320V110H0Z" stroke="none"/>
      <path d="M 1 1 L 1 109 L 319 109 L 319 1 L 1 1 M 0 0 L 320 0 L 320 110 L 0 110 L 0 0 Z" stroke="none" fill="#707070"/>
    </g>
    <text id="無垢材などの自然素材を多く取り入れ_洗練された雰囲気の中にも自然素材特有_の温かみを感じることができます_" data-name="無垢材などの自然素材を多く取り入れ、
洗練された雰囲気の中にも自然素材特有
の温かみを感じることができます。" transform="translate(905 2147)" fill="#707070" font-size="16" font-family="NotoSansJP-Regular, Noto Sans JP"><tspan x="0" y="19">無垢材などの自然素材を多く取り入れ、</tspan><tspan x="0" y="43">洗練された雰囲気の中にも自然素材特有</tspan><tspan x="0" y="67">の温かみを感じることができます。</tspan></text>
    <text id="自然素材の空間はやっぱり気持ちがいいですね_空気感がまったく違います_" data-name="自然素材の空間はやっぱり気持ちがいいですね。空気感がまったく違います。" transform="translate(907 2302)" fill="#707070" font-size="16" font-family="NotoSansJP-Bold, Noto Sans JP" font-weight="700"><tspan x="0" y="19">自然素材の空間はやっぱり気持ちがいい</tspan><tspan x="0" y="43">ですね。空気感がまったく違います。</tspan></text>
    <g id="パス_110" data-name="パス 110" transform="translate(895 2286)" fill="none">
      <path d="M0,0H320V80H0Z" stroke="none"/>
      <path d="M 1 1 L 1 79 L 319 79 L 319 1 L 1 1 M 0 0 L 320 0 L 320 80 L 0 80 L 0 0 Z" stroke="none" fill="#707070"/>
    </g>
    <text id="新築戸建-3" data-name="新築戸建" transform="translate(895 2125)" fill="#707070" font-size="16" font-family="NotoSansJP-Regular, Noto Sans JP"><tspan x="0" y="0">新築戸建</tspan></text>
    <text id="お客様の声-3" data-name="お客様の声" transform="translate(898 2275)" fill="#333" font-size="16" font-family="NotoSansJP-Bold, Noto Sans JP" font-weight="700"><tspan x="0" y="0">お客様の声</tspan></text>
    <g id="グループ_192" data-name="グループ 192" transform="translate(135.1 20)">
      <g id="グループ_195" data-name="グループ 195" transform="translate(1103 140)">
        <g id="グループ_190" data-name="グループ 190">
          <g id="パス_106" data-name="パス 106" fill="#fff">
            <path d="M 122.39990234375 59.5 L 0.4999973177909851 59.5 L 0.4999973177909851 0.5 L 122.39990234375 0.5 L 122.39990234375 59.5 Z" stroke="none"/>
            <path d="M 1 1 L 1 59 L 121.89990234375 59 L 121.89990234375 1 L 1 1 M 0 0 L 122.89990234375 0 L 122.89990234375 60 L 0 60 L 0 0 Z" stroke="none" fill="#333"/>
          </g>
        </g>
        <g id="グループ_191" data-name="グループ 191" transform="translate(1.9 12.108)">
          <text id="EVENT_イベント一覧を見る" data-name="EVENT
イベント一覧を見る" fill="#333" font-size="12" font-family="NotoSansJP-Bold, Noto Sans JP" font-weight="700"><tspan x="-19.338" y="14">EVENT</tspan><tspan x="-54" y="31">イベント一覧を見る</tspan></text>
        </g>
      </g>
    </g>
    <g id="グループ_193" data-name="グループ 193" transform="translate(135.1 80)">
      <g id="グループ_194" data-name="グループ 194" transform="translate(1103 140)">
        <g id="グループ_190-2" data-name="グループ 190">
          <g id="パス_106-2" data-name="パス 106" fill="#fff">
            <path d="M 122.39990234375 59.5 L 0.4999973177909851 59.5 L 0.4999973177909851 0.4999980926513672 L 122.39990234375 0.4999980926513672 L 122.39990234375 59.5 Z" stroke="none"/>
            <path d="M 1 0.9999961853027344 L 1 59 L 121.89990234375 59 L 121.89990234375 0.9999961853027344 L 1 0.9999961853027344 M 0 -3.814697265625e-06 L 122.89990234375 -3.814697265625e-06 L 122.89990234375 60 L 0 60 L 0 -3.814697265625e-06 Z" stroke="none" fill="#333"/>
          </g>
        </g>
        <text id="Request_資料請求する" data-name="Request
資料請求する" transform="translate(1.9 11.934)" fill="#333" font-size="12" font-family="NotoSansJP-Bold, Noto Sans JP" font-weight="700"><tspan x="-23.976" y="14">Request</tspan><tspan x="-36" y="31">資料請求する</tspan></text>
      </g>
    </g>
    <rect id="長方形_1" data-name="長方形 1" width="1364" height="100" transform="translate(1)" fill="#fff"/>
    <g id="グループ_147" data-name="グループ 147" transform="translate(186.392 35)">
      <text id="インスタロゴ" transform="translate(836.608)" fill="#5298d6" font-size="16" font-family="NotoSansJP-Regular, Noto Sans JP"><tspan x="0" y="19">インスタロゴ</tspan></text>
      <text id="お問合せ" transform="translate(752.608)" fill="#5298d6" font-size="16" font-family="NotoSansJP-Regular, Noto Sans JP"><tspan x="0" y="19">お問合せ</tspan></text>
      <text id="会社概要-2" data-name="会社概要" transform="translate(668.608)" fill="#5298d6" font-size="16" font-family="NotoSansJP-Regular, Noto Sans JP"><tspan x="0" y="19">会社概要</tspan></text>
      <text id="お知らせ-2" data-name="お知らせ" transform="translate(584.608)" fill="#5298d6" font-size="16" font-family="NotoSansJP-Regular, Noto Sans JP"><tspan x="0" y="19">お知らせ</tspan></text>
      <text id="資料請求-2" data-name="資料請求" transform="translate(500.608)" fill="#5298d6" font-size="16" font-family="NotoSansJP-Regular, Noto Sans JP"><tspan x="0" y="19">資料請求</tspan></text>
      <text id="実例紹介" transform="translate(416.608)" fill="#5298d6" font-size="16" font-family="NotoSansJP-Regular, Noto Sans JP"><tspan x="0" y="19">実例紹介</tspan></text>
      <text id="イベント-2" data-name="イベント" transform="translate(332.608)" fill="#5298d6" font-size="16" font-family="NotoSansJP-Regular, Noto Sans JP"><tspan x="0" y="19">イベント</tspan></text>
      <text id="コンセプト-2" data-name="コンセプト" transform="translate(232.608)" fill="#5298d6" font-size="16" font-family="NotoSansJP-Regular, Noto Sans JP"><tspan x="0" y="19">コンセプト</tspan></text>
    </g>
    <text id="Mail._yamada_gmail.com" data-name="Mail. yamada@gmail.com" transform="translate(1199 66)" fill="#5298d6" font-size="12" font-family="NotoSansJP-Regular, Noto Sans JP"><tspan x="0" y="14">Mail. yamada@gmail.com</tspan></text>
    <text id="受付時間._9:00_18:00" data-name="受付時間. 9:00 ～ 18:00" transform="translate(1199 44)" fill="#333" font-size="12" font-family="NotoSansJP-Regular, Noto Sans JP" letter-spacing="0.05em"><tspan x="0" y="14">受付時間. 9:00 ～ 18:00</tspan></text>
    <text id="TEL._024-1111-2222" data-name="TEL. 024-1111-2222" transform="translate(1199 24)" fill="#5298d6" font-size="14" font-family="NotoSansJP-Regular, Noto Sans JP"><tspan x="0" y="16">TEL. 024-1111-2222</tspan></text>
    <g id="グループ_203" data-name="グループ 203" transform="translate(133)">
      <text id="LOGO" transform="translate(79 33)" fill="#707070" font-size="20" font-family="NotoSansJP-Regular, Noto Sans JP"><tspan x="0" y="23">LOGO</tspan></text>
      <g id="グループ_177" data-name="グループ 177" transform="translate(-1 20)">
        <g id="長方形_52-6" data-name="長方形 52" fill="none" stroke="#5298d6" stroke-width="1">
          <rect width="211" height="55" stroke="none"/>
          <rect x="0.5" y="0.5" width="210" height="54" fill="none"/>
        </g>
        <g id="長方形_53" data-name="長方形 53" fill="none" stroke="#5298d6" stroke-width="1">
          <rect width="211" height="55" stroke="none"/>
          <rect x="0.5" y="0.5" width="210" height="54" fill="none"/>
        </g>
      </g>
    </g>
    <text id="_963-0207_福島県郡山市鳴神1丁目2_番地_エクセルツリー_2F" data-name="〒963-0207
福島県郡山市鳴神1丁目2−番地
エクセルツリー 2F" transform="translate(280 3316)" fill="#5298d6" font-size="16" font-family="NotoSansJP-Regular, Noto Sans JP"><tspan x="0" y="0">〒963-0207</tspan><tspan x="0" y="24">福島県郡山市鳴神1丁目2−番地</tspan><tspan x="0" y="48">エクセルツリー 2F</tspan></text>
    <g id="グループ_202" data-name="グループ 202" transform="translate(12 6)">
      <text id="LOGO-2" data-name="LOGO" transform="translate(371 3246)" fill="#707070" font-size="20" font-family="NotoSansJP-Regular, Noto Sans JP"><tspan x="0" y="23">LOGO</tspan></text>
      <g id="グループ_179" data-name="グループ 179" transform="translate(266 3231)">
        <g id="長方形_52-7" data-name="長方形 52" fill="none" stroke="#5298d6" stroke-width="1">
          <rect width="262" height="55" stroke="none"/>
          <rect x="0.5" y="0.5" width="261" height="54" fill="none"/>
        </g>
        <g id="長方形_53-2" data-name="長方形 53" fill="none" stroke="#5298d6" stroke-width="1">
          <rect width="262" height="55" stroke="none"/>
          <rect x="0.5" y="0.5" width="261" height="54" fill="none"/>
        </g>
      </g>
    </g>
    <text id="TEL._024-1111-2222-2" data-name="TEL. 024-1111-2222" transform="translate(280 3374)" fill="#5298d6" font-size="16" font-family="NotoSansJP-Regular, Noto Sans JP"><tspan x="0" y="19">TEL. 024-1111-2222</tspan></text>
    <text id="受付時間._9:00_18:00-2" data-name="受付時間. 9:00 ～ 18:00" transform="translate(280 3412)" fill="#707070" font-size="12" font-family="NotoSansJP-Regular, Noto Sans JP"><tspan x="0" y="0">受付時間. 9:00 ～ 18:00</tspan></text>
    <text id="Mail._yamada_gmail.com-2" data-name="Mail. yamada@gmail.com" transform="translate(280 3436)" fill="#5298d6" font-size="14" font-family="NotoSansJP-Regular, Noto Sans JP"><tspan x="0" y="0">Mail. yamada@gmail.com</tspan></text>
    <text id="_Yamada_architecture_office._All_Rights_Reserved." data-name="©︎ Yamada architecture office. All Rights Reserved." transform="translate(499 3498)" fill="#707070" font-size="16" font-family="NotoSansJP-Regular, Noto Sans JP"><tspan x="0" y="0">©︎ Yamada architecture office. All Rights Reserved.</tspan></text>
    <text id="お問合せ-2" data-name="お問合せ" transform="translate(1056 3256)" fill="#5298d6" font-size="18" font-family="NotoSansJP-Regular, Noto Sans JP"><tspan x="0" y="0">お問合せ</tspan></text>
    <text id="Instagram" transform="translate(1056 3312)" fill="#5298d6" font-size="18" font-family="NotoSansJP-Regular, Noto Sans JP"><tspan x="0" y="0">Instagram</tspan></text>
    <text id="会社概要-3" data-name="会社概要" transform="translate(932 3368)" fill="#5298d6" font-size="18" font-family="NotoSansJP-Regular, Noto Sans JP"><tspan x="0" y="0">会社概要</tspan></text>
    <text id="お知らせ-3" data-name="お知らせ" transform="translate(932 3312)" fill="#5298d6" font-size="18" font-family="NotoSansJP-Regular, Noto Sans JP"><tspan x="0" y="0">お知らせ</tspan></text>
    <text id="資料請求-3" data-name="資料請求" transform="translate(932 3256)" fill="#5298d6" font-size="18" font-family="NotoSansJP-Regular, Noto Sans JP"><tspan x="0" y="0">資料請求</tspan></text>
    <text id="実例一覧-2" data-name="実例一覧" transform="translate(808 3368)" fill="#5298d6" font-size="18" font-family="NotoSansJP-Regular, Noto Sans JP"><tspan x="0" y="0">実例一覧</tspan></text>
    <text id="イベント-3" data-name="イベント" transform="translate(808 3312)" fill="#5298d6" font-size="18" font-family="NotoSansJP-Regular, Noto Sans JP"><tspan x="0" y="0">イベント</tspan></text>
    <text id="コンセプト-3" data-name="コンセプト" transform="translate(808 3256)" fill="#5298d6" font-size="18" font-family="NotoSansJP-Regular, Noto Sans JP"><tspan x="0" y="0">コンセプト</tspan></text>
    <text id="受賞経験のある建築家だからできる_自由度の高いデザイン性と安全性を実現_お客様に寄り添った家づくりをご提案させていただきます_" data-name="受賞経験のある建築家だからできる
自由度の高いデザイン性と安全性を実現。
お客様に寄り添った家づくりをご提案させていただきます。" transform="translate(843 588)" fill="#707070" font-size="19" font-family="NotoSansJP-Regular, Noto Sans JP"><tspan x="0" y="22">受賞経験のある建築家だからできる</tspan><tspan x="0" y="67">自由度の高いデザイン性と安全性を実現。</tspan><tspan x="0" y="112">お客様に寄り添った家づくりをご提案させていただきます。</tspan></text>
  </g>
</svg>
