<svg xmlns="http://www.w3.org/2000/svg" xmlns:xlink="http://www.w3.org/1999/xlink" width="262" height="55" viewBox="0 0 262 55">
  <defs>
    <clipPath id="clip-path">
      <rect id="長方形_53" data-name="長方形 53" width="262" height="55" fill="none"/>
    </clipPath>
  </defs>
  <g id="logo_footer" transform="translate(-266 -3231)">
    <g id="グループ_179" data-name="グループ 179" transform="translate(266 3231)">
      <rect id="長方形_52" data-name="長方形 52" width="262" height="55" fill="none"/>
      <g id="マスクグループ_1" data-name="マスクグループ 1" clip-path="url(#clip-path)">
        <g id="グループ_10171" data-name="グループ 10171" transform="translate(0 4.909)">
          <path id="パス_4095" data-name="パス 4095" d="M-180.79-1.344c.74,0,.8.411.8.85,0,.85.027,1.454.823,1.454a1.378,1.378,0,0,0,1.049-.45,1.378,1.378,0,0,0,.35-1.086c0-.576-.027-3.51-.027-4.169,0-1.124-.055-6.61-.055-7.844a17.093,17.093,0,0,1,.165-3.017c.027-.082.466-.521.466-.631,0-.6-2.523-1.179-2.66-1.179-.165,0-.219.082-.219.247,0,.192.11,1.152.11,1.344.027.329.082,3.483.082,5.842,0,.96-.055,5.759-.055,6.829,0,.658-.055,1.1-.823,1.1h-5.595c-.6,0-.823-.247-.823-.96,0-4.635,0-11.162.082-16.236a3.188,3.188,0,0,1,.137-1.179c.055-.137.576-.768.576-.932,0-.357-.357-.411-.932-.521-.3-.055-1.536-.3-1.728-.3s-.247.055-.247.219c0,.192.137,1.152.137,1.371,0,.247.055,3.346.055,5.787,0,3.565-.137,12.04-.165,12.2a.658.658,0,0,1-.268.436.658.658,0,0,1-.5.112h-5.54c-.713,0-.8-.411-.8-.96,0-1.454.027-8.584.027-10.2a5.775,5.775,0,0,1,.219-2.084c.411-.439.494-.521.494-.713,0-.576-2.715-1.1-2.8-1.1-.219,0-.247.055-.247.247,0,.137.055.74.082.878a29.376,29.376,0,0,1,.165,3.648c0,1.81-.137,10.586-.137,12.561,0,.8.192,1.1.905,1.1,1.289,0,1.289-.878,1.289-1.673,0-.466,0-.987.8-.987Zm29.483.11c.3,0,.631,0,.631.494,0,.521,0,.932.768.932a1.365,1.365,0,0,0,1.039-.407,1.365,1.365,0,0,0,.388-1.046c0-.3-.137-1.646-.137-1.92-.082-1.563-.055-4.525-.055-5.211V-13.85c0-.631-.082-3.812-.082-3.922a2.837,2.837,0,0,1,.274-1.591,5.167,5.167,0,0,0,.576-.85c0-.576-1.508-1.563-1.947-1.563-.274,0-.411.192-.878.768-.3.357-.439.357-1.673.357H-166.09a2.925,2.925,0,0,1-1.371-.247,8.177,8.177,0,0,0-2.167-.658c-.137,0-.165.137-.165.219,0,.219.247,1.1.274,1.289.165,1.07.165,5.046.165,6.5,0,3.428-.055,7.761-.192,10.943-.027.411-.137,2.194-.137,2.578,0,.658.055,1.316.85,1.316,1.371,0,1.4-1.207,1.426-1.92.027-.6.384-.6.713-.6Zm-9.517-9.846c.192,0,.713.027.768.521v7.734c0,.85-.411.85-.878.85h-5.732c-.329,0-.686,0-.768-.768-.027-.247-.027-4.772-.027-5.7,0-2.551,0-2.633.823-2.633Zm3.565-.713c-.521,0-.8-.165-.8-.8,0-1.591.027-5.156.082-6.61.027-.521.192-.713.823-.713h5.567c.8,0,.823.466.823.905,0,.137.082,5.65.082,6.335,0,.439-.027.878-.741.878Zm-9.38,0c-.768,0-.823-.411-.823-.823,0-.96.055-5.156.055-6.034,0-.96,0-1.262.905-1.262h5.65c.8,0,.85.329.85.932,0,.96-.055,5.211-.027,6.089,0,.631.027,1.1-.8,1.1Zm15.249.713a.685.685,0,0,1,.686.357c.082.219.082,4.991.082,5.677,0,2.989-.027,3.072-.8,3.072H-157.2c-.6,0-.96-.027-.96-.96,0-.411.082-7.515.137-7.679.11-.466.576-.466.768-.466Zm25.561,1.838c-.713,0-.713-.274-.713-2.167a.632.632,0,0,1,.233-.441.632.632,0,0,1,.48-.135h1.975c.494,0,.6,0,.768.247.219.3.329.466.768.466a1.1,1.1,0,0,0,1.1-.878c.055-.247.082-1.673.082-2.523,0-.6,0-.905.85-.905h.96c.987,0,1.481,0,1.481-.411a3.809,3.809,0,0,0-1.728-1.618c-.247,0-.439.274-.549.494-.274.576-.384.768-.686.768-.329,0-.329-.219-.329-.686,0-.823,0-.932.137-1.07.11-.11.741-.576.741-.74a4.635,4.635,0,0,0-1.783-1.536c-.192,0-.384.165-.658.466-.439.494-.494.549-.905.549h-2.167c-.686,0-.768-.274-.768-.713a9.681,9.681,0,0,1,.055-.987c.055-.165.8-.631.8-.823,0-.247-.439-.411-.713-.494a19.047,19.047,0,0,0-2.3-.466c-.027,0-.11,0-.11.055a8.046,8.046,0,0,0,.329.768,8.074,8.074,0,0,1,.192,1.481c0,.905,0,1.179-.74,1.179-1.07,0-1.4,0-3.236-.082-.274,0-1.618-.11-1.728-.11-.055,0-.11,0-.11.055s.027.055.137.192l.521.631c.11.11.137.165.247.165.082,0,.494-.055.576-.055.74-.055,2.167-.082,3.291-.082.631,0,1.1,0,1.1.686,0,1.454,0,1.646-.85,1.646h-1.536c-1.289,0-2.5-.027-3.757-.082-.165,0-1.015-.11-1.207-.11-.082,0-.11.027-.11.082,0,.027,0,.055.11.165l.549.631c.082.11.137.192.219.192a4.553,4.553,0,0,0,.6-.082c.96-.055,2.825-.055,3.456-.055h1.646c.3,0,.85,0,.85.6,0,2,0,2.249-.686,2.249-.521,0-2.907-.192-3.209-.192a.072.072,0,0,0-.062.02.072.072,0,0,0-.02.062c0,.027,0,.055.11.165l.521.631c.11.137.165.192.247.192.219,0,2.029-.137,2.359-.137.686,0,.686.521.686.74,0,1.783,0,1.975-.823,1.975-.521,0-3.044-.165-3.62-.165-.055,0-.082,0-.082.055s.027.11.11.192l.521.631c.11.11.165.165.247.165a1.852,1.852,0,0,0,.384-.055c.494-.027,1.81-.082,2.359-.082.439,0,.878.055.878.686,0,1.673,0,1.865-.74,1.865-1.179,0-1.454,0-3.4-.082-.274,0-1.618-.11-1.728-.11a.072.072,0,0,0-.062.02.072.072,0,0,0-.02.062c0,.027,0,.055.11.165l.521.631c.11.11.165.192.247.192a4.162,4.162,0,0,0,.576-.082c.96-.055,2.852-.055,3.483-.055.521,0,.987,0,.987.768,0,.247-.11,1.454-.11,1.728,0,.137,0,.823.658.823.3,0,1.289-.137,1.4-.987V-4.278c0-.521.027-.96.8-.96h6.692c.905,0,1.454,0,1.454-.384A7.357,7.357,0,0,0-119.741-7.4c-.3,0-.357.082-1.042.96-.357.466-.494.466-1.755.466h-3.291a.623.623,0,0,1-.549-.3,7.641,7.641,0,0,1-.11-1.646.578.578,0,0,1,.187-.457.578.578,0,0,1,.472-.146h4.443c.878,0,1.454,0,1.454-.357,0-.466-1.591-1.646-1.892-1.646-.219,0-.987,1.07-1.234,1.179a3.357,3.357,0,0,1-1.316.11Zm2.03-9.407c.878,0,.878.219.878,1.591,0,.74-.494.74-.878.74h-1.92c-.878,0-.878-.219-.878-1.426,0-.8.274-.905.878-.905Zm.055,3.072c.823,0,.823.494.823,1.179,0,1.316,0,1.673-.823,1.673H-125.8c-.8,0-.8-.329-.8-1.7,0-.658,0-1.152.8-1.152Zm-13.713,2.989c-.411,0-.713,0-.713-.494,0-.192,1.152-4.5,1.426-5.513.247-.932.274-1.015.686-1.234.521-.274.576-.3.576-.521,0-.384-1.4-1.646-1.7-1.646-.219,0-.274.082-.74.768-.247.357-.357.411-.74.411-.6,0-3.291-.165-3.812-.165-.055,0-.11,0-.11.055,0,.027.027.055.11.192l.549.631c.082.11.137.165.247.165s.631-.082.741-.082c.658-.027,1.316-.055,1.975-.055.247,0,.494.11.494.439,0,.165-.357,1.865-1.207,4.964-.165.576-1.179,3.7-1.179,3.812,0,.329.357.549.741.549.8,0,1.07-.521,1.4-1.152.192-.384.384-.384.905-.384h2.139c.494,0,.686.055.686.439a25.619,25.619,0,0,1-1.536,5.183c-.411.96-.549,1.289-.85,1.289-.411,0-1.673-1.865-2.3-4.086-.11-.439-.165-.576-.329-.576-.11,0-.11.165-.11.247a12.308,12.308,0,0,0,1.042,3.812,12.418,12.418,0,0,1,1.042,1.975A13.886,13.886,0,0,1-141.3.631c-.192.192-1.316,1.015-1.316,1.179,0,.027,0,.055.027.055a10.824,10.824,0,0,0,4.854-3.593c.384-.466.549-.686.713-.686a14.307,14.307,0,0,1,1.536,1.124c1.563,1.042,3.51,2.331,14.069,2.331,1.947,0,2.167,0,2.386-.247A6.583,6.583,0,0,0-118.7-.247a3.246,3.246,0,0,1,1.042-1.371c.411-.247.466-.274.466-.329,0-.082-.082-.082-.192-.082-.082,0-.878.192-1.124.247a54.681,54.681,0,0,1-8.2.6c-1.838,0-5.759-.055-8.2-1.508-.357-.219-1.262-.823-1.262-1.179a8.949,8.949,0,0,1,.494-1.042,26.181,26.181,0,0,0,2.194-5.924,1.087,1.087,0,0,1,.439-.686c.466-.329.494-.384.494-.549,0-.521-1.4-1.508-1.673-1.508-.165,0-.219.082-.878.686a.847.847,0,0,1-.8.3Zm38.122-.521c-.027.027,0,.11.055.192a7.4,7.4,0,0,1,.686,2.03c.055.494.11,1.015.713,1.015a1.14,1.14,0,0,0,1.042-1.152c0-1.015-1.015-1.481-1.618-1.783-.11-.027-.8-.357-.878-.3Zm-11.245-1.344c.082.11.137.165.247.165.247,0,1.838-.11,2.167-.11.768,0,.768.3.768,1.728,0,1.289,0,1.426-.274,1.618a11.465,11.465,0,0,1-2.441.274c-.274,0-1.646-.192-1.838-.192-.11,0-.192.027-.192.192,0,.192.658,2.331,1.124,2.331A7.679,7.679,0,0,0-110.142-9c.521-.247,7.186-2.03,7.186-2.523,0-.055-.082-.055-.165-.055-.3,0-1.7.247-1.838.247-.6,0-.658-.411-.658-1.042,0-1.838,0-2.057.905-2.057h1.207c.932,0,1.454,0,1.454-.384,0-.247-.741-1.152-1.179-1.152-.192,0-.329.137-.521.357-.384.466-.521.466-1.755.466h-.658c-1.289,0-2.413-.055-3.757-.11-.165,0-1.015-.082-1.207-.082-.055,0-.11,0-.11.055s.027.055.137.192Zm6.171,8.475c.3,0,.658,0,.658.3,0,.274-.329.6-.713.96a34.749,34.749,0,0,1-8.694,5.787c-.137.082-.192.165-.192.192,0,.055.082.055.11.055a16.5,16.5,0,0,0,3.346-.878,25.191,25.191,0,0,0,6.555-4,6.264,6.264,0,0,1,1.179-.823c.274,0,.274.521.274.6,0,1.673,0,2.468-.027,2.852,0,.3-.137,1.783-.137,2.112a.747.747,0,0,0,.165.612.747.747,0,0,0,.576.265c.247,0,1.262-.219,1.262-1.042,0-.192-.11-1.124-.11-1.344-.082-1.289-.082-1.673-.082-4.553,0-.082,0-.219.137-.219.165,0,.219.082.8.85,2.825,3.84,7.378,5.732,8.036,5.732a.523.523,0,0,0,.329-.192A5.885,5.885,0,0,1-89.435-.165c.11-.055.823-.357.823-.494,0-.082-2.03-.274-2.413-.357-4.553-.85-8.694-4.306-8.694-4.8,0-.165.192-.165.357-.165h9.434c.905,0,1.454,0,1.454-.384a5.411,5.411,0,0,0-2.084-1.81c-.274,0-1.152,1.1-1.4,1.289-.219.192-.329.192-1.481.192h-5.9c-.357,0-.85,0-.85-.631a1.056,1.056,0,0,1,.274-.768c.247-.247.3-.3.3-.466,0-.274-.823-.576-1.289-.713-.823-.274-.905-.274-.905-.494,0-.082.055-.137.494-.6A5.68,5.68,0,0,0-99.72-13.6c.165-1.262.192-1.289.905-1.289h1.947c.3,0,.74.027.823.466a29.1,29.1,0,0,1,.055,2.962c0,1.1,0,2.194,3.7,2.194,2.057,0,3.319-.6,3.319-1.262,0-.137-.027-.165-.247-.549a3.651,3.651,0,0,1-.357-1.7c-.082-.768-.082-.85-.137-.85s-.137.274-.219.466c-.6,1.838-.932,2.386-2.66,2.386a3.663,3.663,0,0,1-1.646-.329c-.219-.165-.219-1.07-.219-1.481,0-1.234.027-1.508.027-1.646.027-.11.192-.219.274-.274.137-.082.466-.3.466-.521,0-.411-1.673-1.262-1.783-1.262s-.494.521-.6.576a1.536,1.536,0,0,1-.576.082h-2.167a1.74,1.74,0,0,1-.932-.219c-1.042-.6-1.1-.658-1.344-.658-.165,0-.165.165-.165.274,0,.192.082,1.07.082,1.262a6.774,6.774,0,0,1-3.428,6.28,6.011,6.011,0,0,0-.905.686.088.088,0,0,0,.082.082A7.554,7.554,0,0,0-104-8.475c.247-.11,1.454-.85,1.591-.85.494,0,.494,1.454.494,1.865,0,.658-.3.768-.8.768h-5.4c-1.289,0-2.413-.055-3.757-.11-.165,0-1.015-.082-1.207-.082-.055,0-.082.027-.082.055,0,.055,0,.055.11.192l.521.631c.11.11.137.165.247.165.082,0,.494-.055.576-.055.713-.055,1.426-.082,3.483-.082Zm1.481-13.439c1.316,0,1.454,0,1.454-.329a2.906,2.906,0,0,0-1.4-1.508c-.219,0-.6.384-.713.521-.494.6-.631.6-1.728.6h-1.728c-.274,0-.576,0-.576-.247,0-.329.658-1.015.85-1.1.521-.274.6-.3.6-.494,0-.274-.219-.357-.768-.549-.082-.027-1.673-.521-1.81-.521s-.411,1.262-.494,1.508a23.536,23.536,0,0,1-3.757,5.759c-.137.192-.192.247-.192.3a12.7,12.7,0,0,0,3.977-3.209,1.7,1.7,0,0,1,1.673-.74c.466,0,1.316,0,1.316,2.221,0,.85,0,1.262.658,1.262a1.243,1.243,0,0,0,1.179-1.262,1.987,1.987,0,0,0-.713-1.344c-.329-.357-.494-.521-.494-.658,0-.219.329-.219.576-.219Zm12.067-.082c1.316,0,1.481,0,1.481-.329,0-.384-1.536-1.81-1.838-1.81-.219,0-.85.96-.987,1.124-.247.274-.466.3-1.481.3h-4.086c-.247,0-.494,0-.494-.247a1.968,1.968,0,0,1,.576-.878c.494-.357.631-.466.631-.631,0-.439-2.139-.905-2.249-.905-.274,0-.3.055-.357.768a11.712,11.712,0,0,1-1.81,4.278c-.137.219-.987,1.4-.987,1.481,0,.165.905-.439,2.633-2.359.494-.549.686-.8,1.454-.8h1.042c.823,0,1.1.137,1.755,1.838.521,1.344.576,1.481,1.124,1.481a.987.987,0,0,0,.708-.3.987.987,0,0,0,.279-.716,1.854,1.854,0,0,0-1.1-1.563c-.274-.165-.713-.384-.713-.549,0-.192.3-.192.576-.192Zm17.635.932c.549,0,.549.466.549.768,0,1.454,0,1.591-.6,1.591h-2.962a2.789,2.789,0,0,1-1.1-.165,12.1,12.1,0,0,0-2.139-1.1c-.165,0-.192.11-.192.247a6.528,6.528,0,0,0,.137.713c.055.549.055,2.331.055,2.413,0,.357-.082,2.084-.082,2.468,0,.357.082.713.713.713a1.223,1.223,0,0,0,1.262-.85c.11-.411.137-.521.658-.521h3.62c.576,0,.576.439.576.74,0,1.179,0,1.481-.6,1.481h-3.648c-1.289,0-2.413,0-3.757-.082-.192,0-1.015-.11-1.207-.11-.082,0-.11.027-.11.082,0,.027.027.055.11.165l.549.658c.082.11.137.165.247.165.082,0,.466-.082.576-.082.247-.027,1.042-.055,3.456-.055h3.785c.576,0,.576.439.576,1.042,0,.768,0,1.124-.6,1.124h-5.951c-1.289,0-2.413-.027-3.757-.082-.165,0-1.015-.11-1.207-.11-.055,0-.11.027-.11.082,0,.027.027.055.137.165l.521.631c.082.11.165.192.274.192.082,0,.466-.082.549-.082.274-.027,1.07-.055,3.456-.055h6.089c.576,0,.576.439.576.85,0,1.262,0,1.563-.658,1.563h-2.8c-1.289,0-2.413-.055-3.757-.11-.192,0-1.042-.082-1.234-.082-.055,0-.082.027-.082.055,0,.055,0,.055.11.192l.549.631c.082.11.137.165.219.165s.494-.055.6-.055c.247-.027,1.508-.082,3.456-.082h2.935a.564.564,0,0,1,.483.169.564.564,0,0,1,.148.49c0,2.139,0,2.221-1.508,2.221-.329,0-1.947-.219-2.3-.219-.055,0-.357,0-.357.137,0,.247.576.439.878.521,1.673.549,2.084,1.179,2.276,1.618.137.3.165.384.357.384A6.51,6.51,0,0,0-72.1,1.7,1.954,1.954,0,0,0-70.813-.466c0-.274-.055-1.618-.055-1.92,0-.521,0-.905.658-.905h4.251c.329,0,.549.11.6.631.11.878.137,1.179.8,1.179a1.316,1.316,0,0,0,1.034-.372,1.316,1.316,0,0,0,.392-1.027c0-.3-.082-2.276-.082-2.715,0-.357,0-.823.576-.823h2.084c.713,0,1.207,0,1.207-.329,0-.521-1.838-1.7-2.112-1.7-.219,0-.274.11-.85.878a1,1,0,0,1-.6.357c-.3,0-.3-.247-.3-.411,0-.96,0-1.07.165-1.234.494-.549.521-.6.521-.74,0-.357-1.508-1.371-1.755-1.371-.3,0-.494.192-.823.521a1.355,1.355,0,0,1-1.152.384H-70.32c-.6,0-.6-.384-.6-1.07,0-.74,0-1.152.6-1.152h3.51a.486.486,0,0,1,.521.357c.165.576.219.8.932.8a1.109,1.109,0,0,0,1.179-.987v-2.605a.549.549,0,0,1,.247-.521c.357-.329.494-.439.494-.631,0-.357-1.536-1.371-1.728-1.371-.247,0-.411.192-.85.658a.878.878,0,0,1-.85.384h-3.428c-.576,0-.6-.411-.6-.686.027-1.508.027-1.673.686-1.673h8.8c.932,0,1.481,0,1.481-.384,0-.357-2.413-1.81-2.578-1.81-.247,0-.329.11-1.1,1.015-.411.466-.521.466-1.755.466H-70.21a.549.549,0,0,1-.458-.166.549.549,0,0,1-.145-.465,3.469,3.469,0,0,1,.082-.768c.055-.165.631-.85.631-1.042,0-.576-2.3-1.207-2.578-1.207-.11,0-.247.055-.247.357,0,.329.247,2.084.247,2.5,0,.3,0,.8-.576.8H-78.6c-1.289,0-2.413-.055-3.757-.11-.192,0-1.015-.082-1.207-.082-.082,0-.11,0-.11.055s.027.055.11.192l.549.631c.082.11.137.165.247.165.082,0,.466-.055.576-.055.521-.027,1.371-.082,3.456-.082ZM-76.929-13c-.686,0-.686-.274-.686-1.234s0-1.234.658-1.234h3.62c.6,0,.6.411.6,1.207,0,.85,0,1.262-.6,1.262Zm10.2-2.468c.6,0,.6.439.6,1.015,0,1.124,0,1.454-.658,1.454h-3.51c-.631,0-.631-.329-.631-1.481,0-.521,0-.987.631-.987Zm-3.593,8.31c-.6,0-.6-.329-.6-1.289,0-.411,0-.878.6-.878h4.58c.6,0,.6.466.6.878,0,.96-.11,1.289-.658,1.289Zm4.525.74c.6,0,.6.439.6.905,0,1.289-.11,1.508-.74,1.508h-4.306C-70.9-4-70.9-4.169-70.9-5.65c0-.329,0-.768.6-.768Zm26.521-12.424c-.192,0-.521,0-.521-.274A6.982,6.982,0,0,1-38.122-21.2c.521-.329.576-.357.576-.576,0-.165-.11-.247-.411-.384a22.726,22.726,0,0,0-2.276-.85c-.082,0-.192.027-.192.137a4.648,4.648,0,0,0,.027.6c0,.987-1.536,4.169-3.044,6.143-.11.165-.823.85-.823,1.07a.124.124,0,0,0,.026.091.124.124,0,0,0,.083.046c.658,0,2.688-2.523,3.1-2.523.192,0,.274.11.384.247.411.549.96,1.508,1.371,2.084a4.754,4.754,0,0,1,.686,1.124c0,.631-2.3,2.167-3.1,2.633-.494.3-3.072,1.454-3.072,1.618,0,.055.11.082.165.082a14.646,14.646,0,0,0,6.226-2.77c.466-.357.549-.439.768-.439a.893.893,0,0,1,.576.329,22.89,22.89,0,0,0,4.882,3.1c.11,0,.165-.082.219-.192a1.5,1.5,0,0,1,.6-.85A9.5,9.5,0,0,0-30-11.217c0-.055-.082-.055-.74-.192-2.468-.521-5.595-1.975-5.595-2.523a.462.462,0,0,1,.165-.3c.11-.165.768-.878.905-1.015,1.07-1.207,1.207-1.344,1.892-1.618.165-.055.384-.165.384-.411,0-.165-.11-.274-.3-.439-.137-.082-.165-.11-.165-.192,0-.192.11-.192.494-.192h1.152c.768,0,1.124,0,1.124-.329,0-.411-1.755-1.838-2.167-1.838-.219,0-.274.082-.823.987-.274.439-.411.439-1.618.439Zm2.907.74c.219,0,.6,0,.6.439a5.122,5.122,0,0,1-1.975,2.77c-.631,0-2.551-2.523-2.551-2.907,0-.3.247-.3.686-.3ZM-49.5-21.118c-1.536,0-2.962-.055-3.757-.11-.192,0-1.042-.082-1.207-.082-.027,0-.082,0-.082.055a.349.349,0,0,0,.11.192l.521.631c.11.11.165.192.247.192.055,0,.713-.082.8-.082,1.1-.055,2.468-.082,3.236-.082h2.633c.357,0,.686.027.686.3a17.641,17.641,0,0,1-1.591,2.523c-.357.521-.521.686-.823.686a29.08,29.08,0,0,0-2.852-1.07c-.055,0-.219,0-.219.11,0,.055.549.576.631.686a8.428,8.428,0,0,1,1.783,2.688c.137.329.384.878,1.015.878.082,0,.987,0,.987-1.124a2.17,2.17,0,0,0-.521-1.454.487.487,0,0,1-.11-.274c0-.219.192-.384.549-.658,3.209-2.605,3.236-2.605,3.648-2.688.96-.192,1.07-.192,1.07-.466,0-.549-2.112-1.947-2.331-1.947s-.3.192-.521.631c-.219.411-.329.466-1.508.466ZM-43.47-6.637c.11.11.165.192.247.192.055,0,.686-.082.8-.082.823-.055,1.7-.055,2.523-.055.247,0,.494.027.494.357A12.549,12.549,0,0,1-43.634.165c-.439.329-1.207.768-1.646,1.1a.306.306,0,0,0-.165.219c0,.082.082.082.165.082a10.151,10.151,0,0,0,6.555-5.211,20.047,20.047,0,0,1,1.371-2.77.851.851,0,0,1,.631-.165h1.892c.219,0,.74,0,.74.686a22.958,22.958,0,0,1-.549,4.278C-35-.11-35.681-.11-36.092-.11a7.092,7.092,0,0,1-1.481-.219,4.726,4.726,0,0,0-.576-.192c-.055,0-.165,0-.165.11,0,.082.932,1.262,1.1,1.508.055.11.274.549.329.631a.61.61,0,0,0,.6.3A3.253,3.253,0,0,0-33.267-.219a23.477,23.477,0,0,0,.878-4.8c.082-.768.192-.932.439-1.207.3-.3.384-.384.384-.6,0-.384-1.536-1.4-1.755-1.4-.192,0-.247.082-.576.576-.219.329-.384.329-1.673.329H-36.5c-.439,0-.631-.082-.631-.411a8.448,8.448,0,0,1,.357-1.454c.055-.137.521-.658.521-.8,0-.439-2.551-1.015-2.578-1.015a.249.249,0,0,0-.192.063.249.249,0,0,0-.082.184,4.5,4.5,0,0,0,.219.658,1.452,1.452,0,0,1,.11.631,11.683,11.683,0,0,1-.165,1.371c-.11.549-.11.768-.686.768-.85,0-3.236-.082-3.4-.11-.137,0-.85-.082-.987-.082a.088.088,0,0,0-.082.082c0,.027,0,.055.11.165Zm-2.77-6.034c.658,0,.823,0,.823.3,0,.384-.713,1.92-.713,2.167,0,.027,0,.137.11.137.137,0,.466-.329.549-.439,1.207-1.316,1.673-1.371,2.139-1.4.74-.027,1.207-.055,1.207-.686,0-.411-.219-.521-.932-.987a18.219,18.219,0,0,0-1.646-.932c-.137,0-.165.055-.549.576-.357.466-.384.521-.768.521h-4.333c-1.4,0-3.319-.082-3.593-.082-.192-.027-1.042-.11-1.234-.11a.088.088,0,0,0-.082.082c0,.027.055.082.11.165l.521.631c.11.11.165.192.247.192s1.042-.11,1.179-.11c1.07-.027,1.975-.027,3.319-.027.247,0,.494.137.494.384a25.553,25.553,0,0,1-3.648,6.664c-.357.466-2.249,2.825-2.249,2.88,0,.137.165.219.247.219a15.759,15.759,0,0,0,3.51-3.1c1.015-1.179,1.7-2.112,1.865-2.331.055-.082.192-.219.3-.219.192,0,.192.357.192.6,0,1.673,0,4.059.027,5.7,0,1.646-.027,1.892-1.81,1.892-.192,0-1.07-.082-1.234-.082-.082,0-.329,0-.329.137,0,.11.357.219.658.329,1.152.439,1.344.74,1.454,1.015.165.357.219.466.466.466,2.386,0,2.386-2.3,2.386-2.989s-.027-7.844-.027-9.215c0-2.249,0-2.359.85-2.359Zm27.371,3.949c.768,0,.768.494.768.878,0,.576.055.85.713.85.219,0,1.646-.027,1.646-1.865,0-.768-.055-4.553-.055-5.43,0-.74,0-.823.11-.96.439-.521.466-.576.466-.8,0-.439-1.481-1.7-2-1.7-.384,0-.439.082-1.015.878a.714.714,0,0,1-.713.329h-2.276a2.362,2.362,0,0,1-1.4-.439c-.247-.137-1.454-.823-1.563-.823-.082,0-.082.082-.082.137,0,.137.11.74.137.878a30.31,30.31,0,0,1,.274,4.69c0,7.158-1.316,10.5-2,12.2-.11.247-.713,1.454-.713,1.563,0,.082.082.082.11.082.165,0,.357-.165.85-.713C-24.189-.521-22.955-3.291-22.3-7.4c.165-1.1.192-1.316.768-1.316Zm-2.386-.713c-.768,0-.768-.576-.768-.823,0-.494.11-3.648.11-4.333.027-.85.027-1.207.823-1.207h2.413c.3,0,.713.11.768.466.082.384.082,3.922.082,4.525,0,1.015,0,1.371-.85,1.371Zm.494-11.656c-.905,0-2.249-.055-3.181-.11-.192,0-1.042-.082-1.234-.082-.027,0-.11,0-.11.055,0,.027.027.055.11.165l.549.631c.11.137.165.192.274.192.165,0,.96-.082,1.124-.082.768-.027,1.618-.055,2.386-.055h4.772c.878,0,1.426-.027,1.426-.247a12.214,12.214,0,0,0-2.523-1.92c-.247,0-.932,1.1-1.1,1.289-.11.11-.274.165-1.426.165Zm18.211,8.365c.932,0,1.481,0,1.481-.384A9.173,9.173,0,0,0-3.84-15.3c-.247,0-.329.137-1.1,1.4-.3.466-.6.466-1.755.466h-3.867c-.521,0-.521-.329-.521-.768,0-.411-.027-2.468-.027-2.907,0-.3,0-1.728.055-1.865s.137-.165.357-.219c1.1-.247,6.363-1.7,6.8-1.783.8-.165.905-.192.905-.357,0-.137-.082-.192-.823-.549-.329-.165-2.112-1.1-2.167-1.1-.082,0-1.508,1.207-1.755,1.4a10.5,10.5,0,0,1-3.51,2c-.247,0-1.81-.576-2.112-.576-.082,0-.082.082-.082.192,0,.219.11,1.207.137,1.426.027.439.3,4.114.3,6.226C-13-5.9-14.015-2.743-16.757.329a1.879,1.879,0,0,0-.411.576c0,.055.055.082.11.082a6.619,6.619,0,0,0,2.221-1.7c2.221-2.331,3.373-4.608,3.73-11.162.027-.713.11-.85.631-.85h2.112a.755.755,0,0,1,.713.329c.11.219.11,4.827.11,5.321,0,1.892,0,4.114-.082,6.006-.027.384-.137,2.194-.137,2.441,0,.439.082.658.631.658.384,0,1.673-.247,1.673-1.508,0-1.4-.082-8.255-.082-9.791a26.767,26.767,0,0,1,.11-3.1.693.693,0,0,1,.713-.357Z" transform="translate(263.07 24.135)" fill="#fff"/>
          <path id="パス_4096" data-name="パス 4096" d="M2.98-6.533v.183a1.5,1.5,0,0,0-.521.053.258.258,0,0,0-.173.27.549.549,0,0,0,.029.157,1.068,1.068,0,0,0,.131.248L3.905-3.428,5.323-5.655a.994.994,0,0,0,.11-.231.549.549,0,0,0,.026-.135.275.275,0,0,0-.227-.28,1.788,1.788,0,0,0-.463-.048v-.183H6.932v.183a1,1,0,0,0-.535.179,3.562,3.562,0,0,0-.824.95L4.113-2.994v1.923q0,.574.185.716a1.708,1.708,0,0,0,.832.176V0H2.112V-.179a1.455,1.455,0,0,0,.832-.2A1.278,1.278,0,0,0,3.1-1.186V-2.9L1.812-4.8A11.518,11.518,0,0,0,.878-6.052a.951.951,0,0,0-.658-.3v-.183ZM9.737-2.671a4.414,4.414,0,0,0-.916.4,1.194,1.194,0,0,0-.694.974.74.74,0,0,0,.29.646.7.7,0,0,0,.419.135,1.152,1.152,0,0,0,.61-.178.523.523,0,0,0,.292-.453ZM7.269-.96a1.373,1.373,0,0,1,.7-1.166,10.547,10.547,0,0,1,1.77-.785v-.41a1.688,1.688,0,0,0-.1-.685.688.688,0,0,0-.68-.323.937.937,0,0,0-.467.125.4.4,0,0,0-.219.357,1.308,1.308,0,0,0,.024.2,1.386,1.386,0,0,1,.024.176.4.4,0,0,1-.179.376.449.449,0,0,1-.241.063.4.4,0,0,1-.329-.143A.488.488,0,0,1,7.458-3.5,1,1,0,0,1,7.874-4.2,1.791,1.791,0,0,1,9.1-4.571a1.316,1.316,0,0,1,1.268.608,2.1,2.1,0,0,1,.179.969v1.934a1.293,1.293,0,0,0,.038.386.251.251,0,0,0,.26.188.439.439,0,0,0,.183-.034,1.873,1.873,0,0,0,.251-.163v.246a1.569,1.569,0,0,1-.329.308A.97.97,0,0,1,10.4.053a.536.536,0,0,1-.475-.212.951.951,0,0,1-.172-.5,4.539,4.539,0,0,1-.626.473,1.646,1.646,0,0,1-.834.26,1,1,0,0,1-.722-.294.987.987,0,0,1-.3-.74Zm4.937.834a1.1,1.1,0,0,0,.5-.125A.658.658,0,0,0,12.9-.811V-3.3a.784.784,0,0,0-.094-.467.387.387,0,0,0-.31-.11.878.878,0,0,0-.151.01.81.81,0,0,0-.118.034V-4l.347-.115q.188-.063.618-.227t.453-.163a.026.026,0,0,1,.019.006.026.026,0,0,1,.009.018.562.562,0,0,1,0,.091v.651a3.678,3.678,0,0,1,.824-.6,1.633,1.633,0,0,1,.713-.167A1,1,0,0,1,16-4.173a1.465,1.465,0,0,1,.256.5,4.021,4.021,0,0,1,.622-.535,1.693,1.693,0,0,1,.936-.3,1.011,1.011,0,0,1,1.037.632A3.128,3.128,0,0,1,19-2.75v2a.576.576,0,0,0,.151.465,1.07,1.07,0,0,0,.549.161V0H17.531V-.135A.95.95,0,0,0,18.079-.3a.768.768,0,0,0,.132-.53V-2.912a1.755,1.755,0,0,0-.1-.689.691.691,0,0,0-.7-.395,1.107,1.107,0,0,0-.622.207,3.08,3.08,0,0,0-.439.386V-.934a1.058,1.058,0,0,0,.137.593.694.694,0,0,0,.581.219V0H14.86V-.125a.878.878,0,0,0,.584-.219,1.582,1.582,0,0,0,.125-.805V-2.5a3.62,3.62,0,0,0-.1-1.022.647.647,0,0,0-.675-.473,1.16,1.16,0,0,0-.578.161,1.818,1.818,0,0,0-.5.422V-.778a.759.759,0,0,0,.127.506.79.79,0,0,0,.557.145V0H12.209ZM23.316-2.671a4.415,4.415,0,0,0-.916.4,1.194,1.194,0,0,0-.694.974A.74.74,0,0,0,22-.646a.7.7,0,0,0,.419.135,1.152,1.152,0,0,0,.61-.179.523.523,0,0,0,.292-.453ZM20.848-.96a1.373,1.373,0,0,1,.7-1.166,10.547,10.547,0,0,1,1.77-.785v-.41a1.688,1.688,0,0,0-.1-.685.688.688,0,0,0-.68-.323.937.937,0,0,0-.467.125.4.4,0,0,0-.219.357,1.308,1.308,0,0,0,.024.2,1.386,1.386,0,0,1,.024.176.4.4,0,0,1-.179.376.449.449,0,0,1-.241.063.4.4,0,0,1-.329-.143.488.488,0,0,1-.115-.316,1,1,0,0,1,.417-.706,1.791,1.791,0,0,1,1.222-.369,1.316,1.316,0,0,1,1.268.608,2.1,2.1,0,0,1,.179.969v1.934a1.293,1.293,0,0,0,.038.386.251.251,0,0,0,.26.188A.439.439,0,0,0,24.6-.521a1.873,1.873,0,0,0,.251-.163v.246a1.569,1.569,0,0,1-.329.308.97.97,0,0,1-.549.183A.536.536,0,0,1,23.5-.159a.951.951,0,0,1-.169-.5,4.539,4.539,0,0,1-.626.473,1.646,1.646,0,0,1-.834.26,1,1,0,0,1-.719-.294.987.987,0,0,1-.3-.74Zm7.126-3.6a1.369,1.369,0,0,1,.646.155,1.542,1.542,0,0,1,.371.28V-5.657a.878.878,0,0,0-.065-.4q-.065-.11-.31-.11a.929.929,0,0,0-.1,0l-.193.02v-.159l.395-.1q.219-.058.439-.121t.381-.121q.077-.024.256-.091l.029.01-.01.506q0,.274-.01.566t0,.576l-.01,3.938a.9.9,0,0,0,.077.439q.077.125.41.125h.11A.794.794,0,0,0,30.5-.6v.158L29.8-.2l-.757.284L29.008.043V-.549a2.516,2.516,0,0,1-.485.423,1.52,1.52,0,0,1-.815.219A1.623,1.623,0,0,1,26.379-.54a2.279,2.279,0,0,1-.509-1.468,2.756,2.756,0,0,1,.61-1.8A1.857,1.857,0,0,1,27.974-4.556Zm.179,4.127a.841.841,0,0,0,.608-.219.614.614,0,0,0,.231-.419V-3.139a1.051,1.051,0,0,0-.335-.884A1.078,1.078,0,0,0,28-4.281a1.059,1.059,0,0,0-.945.538,2.442,2.442,0,0,0-.338,1.323,2.667,2.667,0,0,0,.359,1.383,1.168,1.168,0,0,0,1.073.608ZM34.164-2.67a4.414,4.414,0,0,0-.916.4,1.194,1.194,0,0,0-.694.974.74.74,0,0,0,.29.646.7.7,0,0,0,.419.135,1.152,1.152,0,0,0,.61-.179.523.523,0,0,0,.292-.453ZM31.7-.959a1.373,1.373,0,0,1,.7-1.166,10.547,10.547,0,0,1,1.77-.785v-.41a1.688,1.688,0,0,0-.1-.685.688.688,0,0,0-.68-.323.937.937,0,0,0-.476.124.4.4,0,0,0-.219.357,1.308,1.308,0,0,0,.024.2,1.386,1.386,0,0,1,.024.176.4.4,0,0,1-.179.376.449.449,0,0,1-.241.063.4.4,0,0,1-.329-.143.488.488,0,0,1-.115-.316,1,1,0,0,1,.417-.706,1.791,1.791,0,0,1,1.222-.369,1.316,1.316,0,0,1,1.268.608,2.1,2.1,0,0,1,.179.969v1.934A1.293,1.293,0,0,0,35-.675a.251.251,0,0,0,.26.188.439.439,0,0,0,.183-.034,1.872,1.872,0,0,0,.251-.163v.246a1.569,1.569,0,0,1-.329.308.97.97,0,0,1-.549.183.536.536,0,0,1-.479-.207.951.951,0,0,1-.163-.5,4.54,4.54,0,0,1-.626.473,1.646,1.646,0,0,1-.834.26,1,1,0,0,1-.72-.294.987.987,0,0,1-.3-.74ZM43.566-2.536,42.423-5.255,41.3-2.536ZM39.3,0V-.179a.8.8,0,0,0,.572-.29A8.023,8.023,0,0,0,40.534-1.8l2.054-4.844h.2l2.458,5.595a2.378,2.378,0,0,0,.393.692.934.934,0,0,0,.494.181V0H43.617V-.179a2.214,2.214,0,0,0,.559-.094q.125-.056.125-.272A1.2,1.2,0,0,0,44.253-.8a2.78,2.78,0,0,0-.135-.386l-.41-.95H41.122q-.386.969-.461,1.184a1.107,1.107,0,0,0-.071.341.351.351,0,0,0,.2.347,1.61,1.61,0,0,0,.473.087V0Zm7.789-.159a1.167,1.167,0,0,0,.588-.157.646.646,0,0,0,.149-.5V-2.994a1.865,1.865,0,0,0-.089-.682.329.329,0,0,0-.329-.205.9.9,0,0,0-.127.012q-.08.012-.167.032V-4l.564-.2q.29-.1.4-.145.241-.091.5-.207.034,0,.041.024a.439.439,0,0,1,.008.1v.791a3.684,3.684,0,0,1,.6-.67.917.917,0,0,1,.6-.241.556.556,0,0,1,.4.147.488.488,0,0,1,.155.369.487.487,0,0,1-.118.329.377.377,0,0,1-.3.135.555.555,0,0,1-.374-.168.521.521,0,0,0-.292-.169q-.169,0-.415.272a.836.836,0,0,0-.246.562V-.887a.721.721,0,0,0,.193.576.969.969,0,0,0,.641.151V0H47.093Zm6.458-4.388a1.743,1.743,0,0,1,1.039.31.86.86,0,0,1,.439.682.463.463,0,0,1-.11.3.414.414,0,0,1-.342.137.428.428,0,0,1-.3-.115.67.67,0,0,1-.185-.338l-.058-.231a.587.587,0,0,0-.219-.362.768.768,0,0,0-.419-.1,1.143,1.143,0,0,0-.928.479,2,2,0,0,0-.378,1.275,2.18,2.18,0,0,0,.417,1.307,1.316,1.316,0,0,0,1.126.578,1.348,1.348,0,0,0,.892-.329,3.059,3.059,0,0,0,.5-.6l.135.082a3.822,3.822,0,0,1-.578.916,1.773,1.773,0,0,1-1.349.646A1.808,1.808,0,0,1,51.9-.506a2.207,2.207,0,0,1-.578-1.61,2.512,2.512,0,0,1,.632-1.716,2.033,2.033,0,0,1,1.594-.714ZM56.327-.136a.844.844,0,0,0,.519-.193A1.168,1.168,0,0,0,56.969-1V-5.631a.862.862,0,0,0-.07-.4q-.07-.127-.34-.127a.732.732,0,0,0-.1.008l-.11.016v-.173l.523-.151q.31-.089.431-.127l.463-.145.01.034v2.962a3.156,3.156,0,0,1,.54-.511,1.6,1.6,0,0,1,.916-.29,1.058,1.058,0,0,1,1.065.658,2.268,2.268,0,0,1,.155.912V-1a1.226,1.226,0,0,0,.118.665.715.715,0,0,0,.485.2V0H58.967V-.135a.9.9,0,0,0,.54-.2A1.174,1.174,0,0,0,59.628-1V-2.955a1.586,1.586,0,0,0-.157-.757.61.61,0,0,0-.59-.29,1.183,1.183,0,0,0-.738.272q-.352.27-.352.352V-1a1.134,1.134,0,0,0,.133.674.937.937,0,0,0,.535.193V0h-2.13ZM62.75-6.223a.5.5,0,0,1,.143-.359.477.477,0,0,1,.357-.149.483.483,0,0,1,.354.149.488.488,0,0,1,.147.359.483.483,0,0,1-.147.354.483.483,0,0,1-.354.147.48.48,0,0,1-.357-.147.487.487,0,0,1-.143-.354ZM62.133-.135a1.23,1.23,0,0,0,.651-.176q.135-.127.135-.692v-2.3a1.463,1.463,0,0,0-.044-.439.292.292,0,0,0-.3-.2.549.549,0,0,0-.1.01q-.05.01-.292.077v-.149l.207-.068q.844-.274,1.176-.415a.628.628,0,0,1,.173-.058.262.262,0,0,1,.01.072V-1a1.131,1.131,0,0,0,.133.689.987.987,0,0,0,.6.179V0H62.13Zm5.822-4.31V-4.1h-.987l-.009,2.782a1.857,1.857,0,0,0,.063.554.445.445,0,0,0,.453.329.548.548,0,0,0,.3-.082,1.581,1.581,0,0,0,.292-.26l.125.11-.11.145a1.542,1.542,0,0,1-.53.477,1.207,1.207,0,0,1-.54.139.76.76,0,0,1-.768-.506,2.1,2.1,0,0,1-.11-.761V-4.1h-.525a.142.142,0,0,1-.036-.029.058.058,0,0,1-.012-.038.11.11,0,0,1,.022-.075,1.446,1.446,0,0,1,.137-.123,4.151,4.151,0,0,0,.479-.445q.147-.171.692-.9a.161.161,0,0,1,.075.01q.012.01.012.072v1.186Zm3.253-.077a1.7,1.7,0,0,1,1.19.47A1.72,1.72,0,0,1,72.91-2.72H69.846a2.575,2.575,0,0,0,.507,1.63,1.412,1.412,0,0,0,1.085.511,1.365,1.365,0,0,0,.857-.265,2.662,2.662,0,0,0,.641-.753l.169.058A2.743,2.743,0,0,1,72.36-.4a1.845,1.845,0,0,1-1.328.521,1.625,1.625,0,0,1-1.4-.685,2.624,2.624,0,0,1-.494-1.576,2.565,2.565,0,0,1,.574-1.673,1.836,1.836,0,0,1,1.494-.7Zm-.28.352a.922.922,0,0,0-.839.487,1.916,1.916,0,0,0-.219.658H71.9a2,2,0,0,0-.183-.719.832.832,0,0,0-.79-.426Zm5.615-.376a1.743,1.743,0,0,1,1.039.31.86.86,0,0,1,.439.682.463.463,0,0,1-.11.3.414.414,0,0,1-.342.137.428.428,0,0,1-.3-.115.67.67,0,0,1-.185-.338L77.029-3.8a.587.587,0,0,0-.219-.362.768.768,0,0,0-.419-.1,1.143,1.143,0,0,0-.928.479,2,2,0,0,0-.378,1.275A2.18,2.18,0,0,0,75.5-1.207a1.316,1.316,0,0,0,1.126.578,1.348,1.348,0,0,0,.892-.329,3.058,3.058,0,0,0,.5-.6l.135.082a3.822,3.822,0,0,1-.578.916,1.773,1.773,0,0,1-1.349.646A1.808,1.808,0,0,1,74.9-.5a2.207,2.207,0,0,1-.578-1.61,2.512,2.512,0,0,1,.632-1.716,2.033,2.033,0,0,1,1.591-.715Zm5.2.1V-4.1h-.987l-.008,2.782a1.857,1.857,0,0,0,.063.554.445.445,0,0,0,.453.329.549.549,0,0,0,.3-.082,1.581,1.581,0,0,0,.292-.26l.125.11-.11.145a1.542,1.542,0,0,1-.53.477A1.207,1.207,0,0,1,80.8.1a.76.76,0,0,1-.768-.506,2.1,2.1,0,0,1-.11-.761V-4.1H79.4a.142.142,0,0,1-.036-.029.058.058,0,0,1-.012-.038.11.11,0,0,1,.022-.075,1.446,1.446,0,0,1,.137-.123,4.151,4.151,0,0,0,.479-.445q.147-.171.692-.9a.161.161,0,0,1,.075.01q.012.01.012.072v1.186Zm2.523-.02v3.086a1.264,1.264,0,0,0,.091.525.658.658,0,0,0,.658.366,1.115,1.115,0,0,0,.641-.219,1.881,1.881,0,0,0,.362-.329V-3.678a.614.614,0,0,0-.145-.487A1.1,1.1,0,0,0,85.3-4.3v-.159h1.557v3.393a.658.658,0,0,0,.118.451.678.678,0,0,0,.5.11v.135l-.391.11q-.125.036-.419.133-.125.044-.549.207a.026.026,0,0,1-.029-.022.235.235,0,0,1,0-.05V-.777a3.261,3.261,0,0,1-.6.578,1.48,1.48,0,0,1-.868.29,1.24,1.24,0,0,1-.8-.3,1.18,1.18,0,0,1-.376-.987V-3.7a.638.638,0,0,0-.163-.516.987.987,0,0,0-.453-.115v-.135ZM88.473-.159a1.167,1.167,0,0,0,.588-.157.646.646,0,0,0,.145-.5V-2.994a1.865,1.865,0,0,0-.089-.682.329.329,0,0,0-.329-.205.9.9,0,0,0-.127.012q-.08.012-.167.032V-4l.564-.2q.29-.1.4-.145.241-.091.5-.207.034,0,.041.024a.439.439,0,0,1,.008.1v.791a3.684,3.684,0,0,1,.6-.67.917.917,0,0,1,.6-.241.556.556,0,0,1,.4.147.488.488,0,0,1,.155.369.487.487,0,0,1-.118.329.377.377,0,0,1-.3.135.555.555,0,0,1-.369-.169.521.521,0,0,0-.292-.169q-.169,0-.415.272a.836.836,0,0,0-.246.562V-.887a.721.721,0,0,0,.193.576.969.969,0,0,0,.641.151V0H88.473Zm6.834-2.512a4.414,4.414,0,0,0-.916.4,1.194,1.194,0,0,0-.694.974.74.74,0,0,0,.29.646.7.7,0,0,0,.419.135,1.152,1.152,0,0,0,.61-.179.523.523,0,0,0,.292-.453ZM92.839-.96a1.373,1.373,0,0,1,.7-1.166,10.546,10.546,0,0,1,1.77-.785v-.41a1.688,1.688,0,0,0-.1-.685.688.688,0,0,0-.68-.323.937.937,0,0,0-.467.125.4.4,0,0,0-.219.357,1.309,1.309,0,0,0,.024.2,1.386,1.386,0,0,1,.024.176.4.4,0,0,1-.179.376.449.449,0,0,1-.241.063.4.4,0,0,1-.329-.143.488.488,0,0,1-.115-.316,1,1,0,0,1,.417-.706,1.791,1.791,0,0,1,1.222-.369,1.316,1.316,0,0,1,1.268.608,2.1,2.1,0,0,1,.179.969v1.934a1.294,1.294,0,0,0,.038.386.251.251,0,0,0,.26.188A.439.439,0,0,0,96.6-.521a1.873,1.873,0,0,0,.251-.163v.246a1.569,1.569,0,0,1-.329.308.97.97,0,0,1-.549.183.536.536,0,0,1-.475-.212.951.951,0,0,1-.172-.5,4.539,4.539,0,0,1-.626.473,1.646,1.646,0,0,1-.834.26,1,1,0,0,1-.724-.294.987.987,0,0,1-.3-.74Zm4.984.824a1.141,1.141,0,0,0,.608-.181.7.7,0,0,0,.159-.538V-5.563A1.23,1.23,0,0,0,98.537-6a.388.388,0,0,0-.391-.2A.826.826,0,0,0,98-6.191q-.08.014-.2.044v-.159q.651-.173,1.567-.463a.037.037,0,0,1,.041.029.658.658,0,0,1,.008.125V-.834a.723.723,0,0,0,.145.542,1.126,1.126,0,0,0,.6.157V0H97.822Zm7.942-3.129a3.586,3.586,0,0,0,.612,2.3,1.877,1.877,0,0,0,1.5.742,1.9,1.9,0,0,0,1.493-.723,3.543,3.543,0,0,0,.62-2.321,3.518,3.518,0,0,0-.627-2.331,1.912,1.912,0,0,0-1.485-.719,1.879,1.879,0,0,0-1.5.745,3.585,3.585,0,0,0-.614,2.3Zm-1.119,0a3.355,3.355,0,0,1,1-2.535,3.118,3.118,0,0,1,2.241-.878,3.114,3.114,0,0,1,2.247.878,3.347,3.347,0,0,1,.987,2.531A3.32,3.32,0,0,1,110.1-.714a3.14,3.14,0,0,1-2.213.848,3.083,3.083,0,0,1-2.3-.94,3.391,3.391,0,0,1-.935-2.457Zm7.789,3.129a1.037,1.037,0,0,0,.668-.193,1.057,1.057,0,0,0,.161-.7V-4.122h-.819v-.323h.824a3.519,3.519,0,0,1,.207-1.287,1.446,1.446,0,0,1,1.451-1.007,1.665,1.665,0,0,1,.759.169.508.508,0,0,1,.335.453.408.408,0,0,1-.115.284.366.366,0,0,1-.28.125.364.364,0,0,1-.241-.084,1.41,1.41,0,0,1-.241-.3l-.082-.125a.7.7,0,0,0-.159-.171.412.412,0,0,0-.256-.07.491.491,0,0,0-.5.362,1.47,1.47,0,0,0-.072.506v1.143h1.207v.323h-1.194v3.094a1.088,1.088,0,0,0,.147.7,1.344,1.344,0,0,0,.768.2V0h-2.569Zm3.875,0a1.037,1.037,0,0,0,.672-.191,1.057,1.057,0,0,0,.161-.7V-4.122h-.824v-.323h.824a3.519,3.519,0,0,1,.207-1.287A1.446,1.446,0,0,1,118.8-6.738a1.665,1.665,0,0,1,.759.169.508.508,0,0,1,.335.453.408.408,0,0,1-.115.284.366.366,0,0,1-.28.125.364.364,0,0,1-.241-.084,1.41,1.41,0,0,1-.241-.3l-.082-.125a.705.705,0,0,0-.159-.171.412.412,0,0,0-.256-.07.491.491,0,0,0-.5.362,1.47,1.47,0,0,0-.072.506v1.143h1.207v.323h-1.2v3.094a1.088,1.088,0,0,0,.147.7,1.344,1.344,0,0,0,.768.2V0h-2.569Zm4.666-6.089a.5.5,0,0,1,.144-.358.477.477,0,0,1,.357-.149.483.483,0,0,1,.354.147.488.488,0,0,1,.147.359.483.483,0,0,1-.147.354.483.483,0,0,1-.354.147.481.481,0,0,1-.357-.147.487.487,0,0,1-.145-.352Zm-.617,6.089a1.23,1.23,0,0,0,.651-.176q.135-.127.135-.692v-2.3a1.462,1.462,0,0,0-.044-.439.292.292,0,0,0-.3-.2.549.549,0,0,0-.1.01q-.05.01-.292.077v-.149l.207-.068q.844-.274,1.176-.415a.628.628,0,0,1,.173-.058.262.262,0,0,1,.01.072V-1a1.131,1.131,0,0,0,.133.689.987.987,0,0,0,.6.179V0h-2.343Zm5.765-4.411a1.743,1.743,0,0,1,1.039.31.86.86,0,0,1,.439.682.463.463,0,0,1-.11.3.414.414,0,0,1-.342.137.428.428,0,0,1-.3-.115.67.67,0,0,1-.185-.338l-.058-.231a.587.587,0,0,0-.219-.362.768.768,0,0,0-.419-.1,1.143,1.143,0,0,0-.928.479,2,2,0,0,0-.378,1.275,2.18,2.18,0,0,0,.417,1.307,1.316,1.316,0,0,0,1.126.578,1.348,1.348,0,0,0,.892-.329,3.059,3.059,0,0,0,.5-.6l.135.082a3.821,3.821,0,0,1-.578.916,1.773,1.773,0,0,1-1.349.646,1.808,1.808,0,0,1-1.331-.593,2.207,2.207,0,0,1-.578-1.61,2.512,2.512,0,0,1,.632-1.716,2.033,2.033,0,0,1,1.591-.714Zm4.95.024a1.7,1.7,0,0,1,1.19.47,1.72,1.72,0,0,1,.511,1.333h-3.063a2.575,2.575,0,0,0,.5,1.631,1.412,1.412,0,0,0,1.085.511,1.365,1.365,0,0,0,.853-.265A2.661,2.661,0,0,0,132.8-1.6l.169.058a2.742,2.742,0,0,1-.74,1.133A1.845,1.845,0,0,1,130.9.116a1.625,1.625,0,0,1-1.4-.685A2.624,2.624,0,0,1,129-2.145a2.565,2.565,0,0,1,.574-1.673,1.836,1.836,0,0,1,1.5-.7Zm-.28.352a.922.922,0,0,0-.839.487,1.915,1.915,0,0,0-.219.658h2.034a2,2,0,0,0-.183-.719.832.832,0,0,0-.794-.425Z" transform="translate(63.17 42.853)" fill="#fff"/>
          <g id="グループ_1" data-name="グループ 1" transform="translate(0 2.758)">
            <path id="パス_1" data-name="パス 1" d="M0,0V41.327L23.85,23.533,47.7,41.327V0Z" fill="#fff"/>
            <path id="パス_2" data-name="パス 2" d="M40.59,67.654l.053,2.413,2.39-.034L42.98,67.62Z" transform="translate(-19.787 -32.776)" fill="#fff"/>
            <path id="パス_3" data-name="パス 3" d="M42.817,60.259l-2.39.033.053,2.413,2.39-.033Z" transform="translate(-19.709 -29.367)" fill="#fff"/>
            <path id="パス_4" data-name="パス 4" d="M50.173,62.565l-.053-2.413-2.389.034.052,2.413Z" transform="translate(-23.27 -29.317)" fill="#fff"/>
            <path id="パス_5" data-name="パス 5" d="M47.94,69.96l2.39-.033-.053-2.413-2.39.034Z" transform="translate(-23.348 -32.722)" fill="#fff"/>
          </g>
        </g>
      </g>
    </g>
  </g>
</svg>
