<svg xmlns="http://www.w3.org/2000/svg" xmlns:xlink="http://www.w3.org/1999/xlink" width="1200" height="630" viewBox="0 0 1200 630">
  <defs>
    <clipPath id="clip-ogp_1">
      <rect width="1200" height="630"/>
    </clipPath>
  </defs>
  <g id="ogp_1" clip-path="url(#clip-ogp_1)">
    <rect width="1200" height="630" fill="#fff"/>
    <g id="グループ_10171" data-name="グループ 10171" transform="translate(300 265)">
      <path id="パス_4095" data-name="パス 4095" d="M-140.112,28.68c1.7,0,1.821.942,1.821,1.947,0,1.947.063,3.329,1.884,3.329a3.156,3.156,0,0,0,2.4-1.03,3.156,3.156,0,0,0,.8-2.487c0-1.319-.063-8.039-.063-9.547,0-2.575-.126-15.136-.126-17.963a39.14,39.14,0,0,1,.377-6.909c.063-.188,1.068-1.193,1.068-1.445,0-1.382-5.778-2.7-6.092-2.7-.377,0-.5.188-.5.565,0,.44.251,2.638.251,3.078.063.754.188,7.976.188,13.378,0,2.2-.126,13.189-.126,15.639,0,1.507-.126,2.512-1.884,2.512h-12.813c-1.382,0-1.884-.565-1.884-2.2,0-10.614,0-25.562.188-37.182a7.3,7.3,0,0,1,.314-2.7c.126-.314,1.319-1.759,1.319-2.135,0-.816-.816-.942-2.135-1.193-.691-.126-3.517-.691-3.957-.691s-.565.126-.565.5c0,.44.314,2.638.314,3.14,0,.565.126,7.662.126,13.252,0,8.165-.314,27.572-.377,27.949a1.507,1.507,0,0,1-.614,1,1.507,1.507,0,0,1-1.145.257h-12.687c-1.633,0-1.821-.942-1.821-2.2,0-3.329.063-19.659.063-23.364a13.224,13.224,0,0,1,.5-4.773c.942-1,1.131-1.193,1.131-1.633,0-1.319-6.218-2.512-6.406-2.512-.5,0-.565.126-.565.565,0,.314.126,1.7.188,2.01a67.272,67.272,0,0,1,.377,8.353c0,4.145-.314,24.243-.314,28.766,0,1.821.44,2.512,2.073,2.512,2.952,0,2.952-2.01,2.952-3.831,0-1.068,0-2.261,1.821-2.261Zm67.517.251c.691,0,1.445,0,1.445,1.131,0,1.193,0,2.135,1.759,2.135a3.125,3.125,0,0,0,2.378-.933,3.125,3.125,0,0,0,.888-2.4c0-.691-.314-3.768-.314-4.4-.188-3.58-.126-10.363-.126-11.933V.04c0-1.445-.188-8.73-.188-8.981a6.5,6.5,0,0,1,.628-3.643,11.832,11.832,0,0,0,1.319-1.947c0-1.319-3.454-3.58-4.459-3.58-.628,0-.942.44-2.01,1.759-.691.816-1,.816-3.831.816h-31.341a6.7,6.7,0,0,1-3.14-.565,18.727,18.727,0,0,0-4.962-1.507c-.314,0-.377.314-.377.5,0,.5.565,2.512.628,2.952.377,2.449.377,11.556.377,14.885,0,7.851-.126,17.774-.44,25.06-.063.942-.314,5.025-.314,5.9,0,1.507.126,3.015,1.947,3.015,3.14,0,3.2-2.764,3.266-4.4.063-1.382.879-1.382,1.633-1.382ZM-94.389,6.384c.44,0,1.633.063,1.759,1.193V25.289c0,1.947-.942,1.947-2.01,1.947h-13.127c-.754,0-1.57,0-1.759-1.759-.063-.565-.063-10.928-.063-13.064,0-5.841,0-6.029,1.884-6.029Zm8.165-1.633c-1.193,0-1.821-.377-1.821-1.821,0-3.643.063-11.808.188-15.136.063-1.193.44-1.633,1.884-1.633h12.75c1.821,0,1.884,1.068,1.884,2.073,0,.314.188,12.938.188,14.508,0,1-.063,2.01-1.7,2.01Zm-21.48,0c-1.759,0-1.884-.942-1.884-1.884,0-2.2.126-11.808.126-13.818,0-2.2,0-2.889,2.073-2.889h12.938c1.821,0,1.947.754,1.947,2.135,0,2.2-.126,11.933-.063,13.943,0,1.445.063,2.512-1.821,2.512Zm34.921,1.633a1.568,1.568,0,0,1,1.57.816c.188.5.188,11.431.188,13,0,6.846-.063,7.034-1.821,7.034H-86.1c-1.382,0-2.2-.063-2.2-2.2,0-.942.188-17.209.314-17.586.251-1.068,1.319-1.068,1.759-1.068Zm58.536,4.208c-1.633,0-1.633-.628-1.633-4.962a1.447,1.447,0,0,1,.533-1.01,1.447,1.447,0,0,1,1.1-.309h4.522c1.131,0,1.382,0,1.759.565.5.691.754,1.068,1.759,1.068A2.512,2.512,0,0,0-3.7,3.934c.126-.565.188-3.831.188-5.778,0-1.382,0-2.073,1.947-2.073h2.2c2.261,0,3.392,0,3.392-.942A8.723,8.723,0,0,0,.073-8.564c-.565,0-1,.628-1.256,1.131-.628,1.319-.879,1.759-1.57,1.759-.754,0-.754-.5-.754-1.57,0-1.884,0-2.135.314-2.449.251-.251,1.7-1.319,1.7-1.7a10.614,10.614,0,0,0-4.082-3.517c-.44,0-.879.377-1.507,1.068-1,1.131-1.131,1.256-2.073,1.256h-4.962c-1.57,0-1.759-.628-1.759-1.633a22.164,22.164,0,0,1,.126-2.261c.126-.377,1.821-1.445,1.821-1.884,0-.565-1-.942-1.633-1.131a43.62,43.62,0,0,0-5.276-1.068c-.063,0-.251,0-.251.126a18.425,18.425,0,0,0,.754,1.759,18.489,18.489,0,0,1,.44,3.392c0,2.073,0,2.7-1.7,2.7-2.449,0-3.2,0-7.411-.188-.628,0-3.706-.251-3.957-.251-.126,0-.251,0-.251.126s.063.126.314.44l1.193,1.445c.251.251.314.377.565.377.188,0,1.131-.126,1.319-.126,1.7-.126,4.962-.188,7.537-.188,1.445,0,2.512,0,2.512,1.57,0,3.329,0,3.768-1.947,3.768h-3.517c-2.952,0-5.715-.063-8.6-.188-.377,0-2.324-.251-2.763-.251-.188,0-.251.063-.251.188,0,.063,0,.126.251.377l1.256,1.445c.188.251.314.44.5.44a10.428,10.428,0,0,0,1.382-.188c2.2-.126,6.469-.126,7.914-.126h3.768c.691,0,1.947,0,1.947,1.382,0,4.585,0,5.15-1.57,5.15-1.193,0-6.658-.44-7.348-.44a.166.166,0,0,0-.142.047.166.166,0,0,0-.047.142c0,.063,0,.126.251.377L-27.5,4.186c.251.314.377.44.565.44.5,0,4.648-.314,5.4-.314,1.57,0,1.57,1.193,1.57,1.7,0,4.082,0,4.522-1.884,4.522-1.193,0-6.972-.377-8.291-.377-.126,0-.188,0-.188.126s.063.251.251.44l1.193,1.445c.251.251.377.377.565.377a4.241,4.241,0,0,0,.879-.126c1.131-.063,4.145-.188,5.4-.188,1,0,2.01.126,2.01,1.57,0,3.831,0,4.271-1.7,4.271-2.7,0-3.329,0-7.788-.188-.628,0-3.706-.251-3.957-.251a.166.166,0,0,0-.142.047.166.166,0,0,0-.047.142c0,.063,0,.126.251.377l1.193,1.445c.251.251.377.44.565.44a9.53,9.53,0,0,0,1.319-.188c2.2-.126,6.532-.126,7.976-.126,1.193,0,2.261,0,2.261,1.759,0,.565-.251,3.329-.251,3.957,0,.314,0,1.884,1.507,1.884.691,0,2.952-.314,3.2-2.261V21.96c0-1.193.063-2.2,1.821-2.2H1.518c2.073,0,3.329,0,3.329-.879A16.847,16.847,0,0,0-.3,14.8c-.691,0-.816.188-2.387,2.2-.816,1.068-1.13,1.068-4.02,1.068h-7.537a1.427,1.427,0,0,1-1.256-.691,17.5,17.5,0,0,1-.251-3.768,1.324,1.324,0,0,1,.427-1.047,1.324,1.324,0,0,1,1.08-.335H-4.072c2.01,0,3.329,0,3.329-.816,0-1.068-3.643-3.768-4.334-3.768-.5,0-2.261,2.449-2.826,2.7a7.688,7.688,0,0,1-3.015.251ZM-9.6-10.951c2.01,0,2.01.5,2.01,3.643,0,1.7-1.131,1.7-2.01,1.7H-14c-2.01,0-2.01-.5-2.01-3.266,0-1.821.628-2.073,2.01-2.073Zm.126,7.034c1.884,0,1.884,1.131,1.884,2.7,0,3.015,0,3.831-1.884,3.831h-4.711c-1.821,0-1.821-.754-1.821-3.894,0-1.507,0-2.638,1.821-2.638Zm-31.4,6.846c-.942,0-1.633,0-1.633-1.131,0-.44,2.638-10.3,3.266-12.624.565-2.135.628-2.324,1.57-2.826,1.193-.628,1.319-.691,1.319-1.193,0-.879-3.2-3.768-3.894-3.768-.5,0-.628.188-1.7,1.759-.565.816-.816.942-1.7.942-1.382,0-7.537-.377-8.73-.377-.126,0-.251,0-.251.126,0,.063.063.126.251.44l1.256,1.445c.188.251.314.377.565.377s1.445-.188,1.7-.188c1.507-.063,3.015-.126,4.522-.126.565,0,1.131.251,1.131,1,0,.377-.816,4.271-2.764,11.368-.377,1.319-2.7,8.479-2.7,8.73,0,.754.816,1.256,1.7,1.256,1.821,0,2.449-1.193,3.2-2.638.44-.879.879-.879,2.073-.879h4.9c1.13,0,1.57.126,1.57,1A58.67,58.67,0,0,1-38.742,17.5c-.942,2.2-1.256,2.952-1.947,2.952-.942,0-3.831-4.271-5.276-9.358-.251-1-.377-1.319-.754-1.319-.251,0-.251.377-.251.565a28.186,28.186,0,0,0,2.387,8.73A28.435,28.435,0,0,1-42.2,23.593,31.8,31.8,0,0,1-49.67,33.2c-.44.44-3.015,2.324-3.015,2.7,0,.063,0,.126.063.126A24.789,24.789,0,0,0-41.505,27.8c.879-1.068,1.256-1.57,1.633-1.57a32.761,32.761,0,0,1,3.517,2.575c3.58,2.387,8.039,5.339,32.22,5.339,4.459,0,4.962,0,5.464-.565a15.077,15.077,0,0,0,.754-2.387,7.434,7.434,0,0,1,2.387-3.14c.942-.565,1.068-.628,1.068-.754,0-.188-.188-.188-.44-.188-.188,0-2.01.44-2.575.565a125.225,125.225,0,0,1-18.779,1.382c-4.208,0-13.189-.126-18.779-3.454-.816-.5-2.889-1.884-2.889-2.7a20.493,20.493,0,0,1,1.131-2.387A59.956,59.956,0,0,0-31.77,6.949a2.49,2.49,0,0,1,1-1.57c1.068-.754,1.13-.879,1.13-1.256,0-1.193-3.2-3.454-3.831-3.454-.377,0-.5.188-2.01,1.57a1.94,1.94,0,0,1-1.821.691Zm87.3-1.193c-.063.063,0,.251.126.44a16.938,16.938,0,0,1,1.57,4.648c.126,1.131.251,2.324,1.633,2.324A2.61,2.61,0,0,0,52.14,6.509c0-2.324-2.324-3.392-3.706-4.082-.251-.063-1.821-.816-2.01-.691ZM20.674-1.341c.188.251.314.377.565.377.565,0,4.208-.251,4.962-.251,1.759,0,1.759.691,1.759,3.957,0,2.952,0,3.266-.628,3.706a26.256,26.256,0,0,1-5.59.628c-.628,0-3.768-.44-4.208-.44-.251,0-.44.063-.44.44,0,.44,1.507,5.339,2.575,5.339a17.587,17.587,0,0,0,2.01-1.256c1.193-.565,16.455-4.648,16.455-5.778,0-.126-.188-.126-.377-.126-.691,0-3.894.565-4.208.565-1.382,0-1.507-.942-1.507-2.387,0-4.208,0-4.711,2.073-4.711h2.764c2.135,0,3.329,0,3.329-.879,0-.565-1.7-2.638-2.7-2.638-.44,0-.754.314-1.193.816-.879,1.068-1.193,1.068-4.02,1.068H30.786c-2.952,0-5.527-.126-8.6-.251-.377,0-2.324-.188-2.764-.188-.126,0-.251,0-.251.126s.063.126.314.44ZM34.805,18.066c.691,0,1.507,0,1.507.691,0,.628-.754,1.382-1.633,2.2A79.577,79.577,0,0,1,14.77,34.207c-.314.188-.44.377-.44.44,0,.126.188.126.251.126a37.775,37.775,0,0,0,7.662-2.01,57.689,57.689,0,0,0,15.011-9.17,14.345,14.345,0,0,1,2.7-1.884c.628,0,.628,1.193.628,1.382,0,3.831,0,5.653-.063,6.532,0,.691-.314,4.082-.314,4.836a1.711,1.711,0,0,0,1.7,2.01c.565,0,2.889-.5,2.889-2.387,0-.44-.251-2.575-.251-3.078-.188-2.952-.188-3.831-.188-10.426,0-.188,0-.5.314-.5.377,0,.5.188,1.821,1.947,6.469,8.793,16.9,13.127,18.4,13.127a1.2,1.2,0,0,0,.754-.44A13.476,13.476,0,0,1,69.1,31.381c.251-.126,1.884-.816,1.884-1.131,0-.188-4.648-.628-5.527-.816-10.426-1.947-19.91-9.861-19.91-10.991,0-.377.44-.377.816-.377H67.967c2.073,0,3.329,0,3.329-.879a12.391,12.391,0,0,0-4.773-4.145c-.628,0-2.638,2.512-3.2,2.952-.5.44-.754.44-3.392.44h-13.5c-.816,0-1.947,0-1.947-1.445a2.419,2.419,0,0,1,.628-1.759c.565-.565.691-.691.691-1.068,0-.628-1.884-1.319-2.952-1.633C40.96,9.9,40.772,9.9,40.772,9.4c0-.188.126-.314,1.131-1.382A13.009,13.009,0,0,0,45.545.606c.377-2.889.44-2.952,2.073-2.952h4.459c.691,0,1.7.063,1.884,1.068A66.655,66.655,0,0,1,54.087,5.5c0,2.512,0,5.025,8.479,5.025,4.711,0,7.6-1.382,7.6-2.889,0-.314-.063-.377-.565-1.256a8.361,8.361,0,0,1-.816-3.894C68.6.731,68.6.543,68.47.543s-.314.628-.5,1.068c-1.382,4.208-2.135,5.464-6.092,5.464a8.389,8.389,0,0,1-3.768-.754c-.5-.377-.5-2.449-.5-3.392,0-2.826.063-3.454.063-3.768.063-.251.44-.5.628-.628.314-.188,1.068-.691,1.068-1.193,0-.942-3.831-2.889-4.082-2.889S54.15-4.356,53.9-4.231a3.517,3.517,0,0,1-1.319.188H47.618a3.985,3.985,0,0,1-2.135-.5C43.1-5.926,42.97-6.052,42.405-6.052c-.377,0-.377.377-.377.628,0,.44.188,2.449.188,2.889a15.513,15.513,0,0,1-7.851,14.383,13.765,13.765,0,0,0-2.073,1.57.2.2,0,0,0,.188.188,17.3,17.3,0,0,0,3.266-1.256c.565-.251,3.329-1.947,3.643-1.947,1.131,0,1.131,3.329,1.131,4.271,0,1.507-.691,1.759-1.821,1.759H26.326c-2.952,0-5.527-.126-8.6-.251-.377,0-2.324-.188-2.764-.188-.126,0-.188.063-.188.126,0,.126,0,.126.251.44L16.215,18c.251.251.314.377.565.377.188,0,1.131-.126,1.319-.126,1.633-.126,3.266-.188,7.977-.188ZM38.2-12.709c3.015,0,3.329,0,3.329-.754a6.655,6.655,0,0,0-3.2-3.454c-.5,0-1.382.879-1.633,1.193-1.131,1.382-1.445,1.382-3.957,1.382H28.776c-.628,0-1.319,0-1.319-.565,0-.754,1.507-2.324,1.947-2.512,1.193-.628,1.382-.691,1.382-1.131,0-.628-.5-.816-1.759-1.256C28.839-19.869,25.2-21,24.882-21s-.942,2.889-1.131,3.454a53.9,53.9,0,0,1-8.6,13.189c-.314.44-.44.565-.44.691a29.084,29.084,0,0,0,9.107-7.348,3.889,3.889,0,0,1,3.831-1.7c1.068,0,3.015,0,3.015,5.087,0,1.947,0,2.889,1.507,2.889a2.846,2.846,0,0,0,2.7-2.889A4.55,4.55,0,0,0,33.235-10.7c-.754-.816-1.131-1.193-1.131-1.507,0-.5.754-.5,1.319-.5ZM65.832-12.9c3.015,0,3.392,0,3.392-.754,0-.879-3.517-4.145-4.208-4.145-.5,0-1.947,2.2-2.261,2.575-.565.628-1.068.691-3.392.691H50c-.565,0-1.131,0-1.131-.565a4.507,4.507,0,0,1,1.319-2.01c1.131-.816,1.445-1.068,1.445-1.445,0-1-4.9-2.073-5.15-2.073-.628,0-.691.126-.816,1.759a26.821,26.821,0,0,1-4.145,9.8c-.314.5-2.261,3.2-2.261,3.392,0,.377,2.073-1,6.029-5.4,1.131-1.256,1.57-1.821,3.329-1.821H51.01c1.884,0,2.512.314,4.02,4.208C56.223-5.612,56.348-5.3,57.6-5.3a2.261,2.261,0,0,0,1.621-.684,2.261,2.261,0,0,0,.64-1.64,4.246,4.246,0,0,0-2.512-3.58c-.628-.377-1.633-.879-1.633-1.256,0-.44.691-.44,1.319-.44Zm40.385,2.135c1.256,0,1.256,1.068,1.256,1.759,0,3.329,0,3.643-1.382,3.643H99.308A6.386,6.386,0,0,1,96.8-5.738,27.719,27.719,0,0,0,91.9-8.25c-.377,0-.44.251-.44.565a14.95,14.95,0,0,0,.314,1.633C91.9-4.8,91.9-.713,91.9-.525c0,.816-.188,4.773-.188,5.653,0,.816.188,1.633,1.633,1.633a2.8,2.8,0,0,0,2.889-1.947c.251-.942.314-1.193,1.507-1.193h8.291c1.319,0,1.319,1,1.319,1.7,0,2.7,0,3.392-1.382,3.392H97.612c-2.952,0-5.527,0-8.6-.188-.44,0-2.324-.251-2.764-.251-.188,0-.251.063-.251.188,0,.063.063.126.251.377L87.5,10.341c.188.251.314.377.565.377.188,0,1.068-.188,1.319-.188.565-.063,2.387-.126,7.914-.126h8.667c1.319,0,1.319,1,1.319,2.387,0,1.759,0,2.575-1.382,2.575H92.274c-2.952,0-5.527-.063-8.6-.188-.377,0-2.324-.251-2.764-.251-.126,0-.251.063-.251.188,0,.063.063.126.314.377l1.193,1.445c.188.251.377.44.628.44.188,0,1.068-.188,1.256-.188.628-.063,2.449-.126,7.914-.126H105.9c1.319,0,1.319,1,1.319,1.947,0,2.889,0,3.58-1.507,3.58H99.308c-2.952,0-5.527-.126-8.6-.251-.44,0-2.387-.188-2.826-.188-.126,0-.188.063-.188.126,0,.126,0,.126.251.44L89.2,24.158c.188.251.314.377.5.377s1.131-.126,1.382-.126c.565-.063,3.454-.188,7.914-.188h6.72a1.291,1.291,0,0,1,1.445,1.507c0,4.9,0,5.087-3.454,5.087-.754,0-4.459-.5-5.276-.5-.126,0-.816,0-.816.314,0,.565,1.319,1,2.01,1.193,3.831,1.256,4.773,2.7,5.213,3.706.314.691.377.879.816.879a14.908,14.908,0,0,0,3.14-.754,4.474,4.474,0,0,0,2.952-4.962c0-.628-.126-3.706-.126-4.4,0-1.193,0-2.073,1.507-2.073h9.735c.754,0,1.256.251,1.382,1.445.251,2.01.314,2.7,1.821,2.7a3.015,3.015,0,0,0,3.266-3.2c0-.691-.188-5.213-.188-6.218,0-.816,0-1.884,1.319-1.884h4.773c1.633,0,2.764,0,2.764-.754,0-1.193-4.208-3.894-4.836-3.894-.5,0-.628.251-1.947,2.01a2.281,2.281,0,0,1-1.382.816c-.691,0-.691-.565-.691-.942,0-2.2,0-2.449.377-2.826,1.131-1.256,1.193-1.382,1.193-1.7,0-.816-3.454-3.14-4.02-3.14-.691,0-1.131.44-1.884,1.193a3.1,3.1,0,0,1-2.638.879h-9.3c-1.382,0-1.382-.879-1.382-2.449,0-1.7,0-2.638,1.382-2.638h8.039a1.113,1.113,0,0,1,1.193.816c.377,1.319.5,1.821,2.135,1.821A2.54,2.54,0,0,0,126.943,4V-1.969a1.256,1.256,0,0,1,.565-1.193c.816-.754,1.131-1,1.131-1.445,0-.816-3.517-3.14-3.957-3.14-.565,0-.942.44-1.947,1.507a2.01,2.01,0,0,1-1.947.879h-7.851c-1.319,0-1.382-.942-1.382-1.57.063-3.454.063-3.831,1.57-3.831h20.161c2.135,0,3.392,0,3.392-.879,0-.816-5.527-4.145-5.9-4.145-.565,0-.754.251-2.512,2.324-.942,1.068-1.193,1.068-4.02,1.068H113.126a1.256,1.256,0,0,1-1.049-.38,1.256,1.256,0,0,1-.333-1.065,7.944,7.944,0,0,1,.188-1.759c.126-.377,1.445-1.947,1.445-2.387,0-1.319-5.276-2.764-5.9-2.764-.251,0-.565.126-.565.816,0,.754.565,4.773.565,5.715,0,.691,0,1.821-1.319,1.821H93.907c-2.952,0-5.527-.126-8.6-.251-.44,0-2.324-.188-2.764-.188-.188,0-.251,0-.251.126s.063.126.251.44l1.256,1.445c.188.251.314.377.565.377.188,0,1.068-.126,1.319-.126,1.193-.063,3.14-.188,7.914-.188ZM97.738,1.987c-1.57,0-1.57-.628-1.57-2.826s0-2.826,1.507-2.826h8.291c1.382,0,1.382.942,1.382,2.764,0,1.947,0,2.889-1.382,2.889ZM121.1-3.665c1.382,0,1.382,1,1.382,2.324,0,2.575,0,3.329-1.507,3.329h-8.039c-1.445,0-1.445-.754-1.445-3.392,0-1.193,0-2.261,1.445-2.261Zm-8.228,19.031c-1.382,0-1.382-.754-1.382-2.952,0-.942,0-2.01,1.382-2.01h10.489c1.382,0,1.382,1.068,1.382,2.01,0,2.2-.251,2.952-1.507,2.952Zm10.363,1.7c1.382,0,1.382,1,1.382,2.073,0,2.952-.251,3.454-1.7,3.454h-9.861c-1.507,0-1.507-.377-1.507-3.768,0-.754,0-1.759,1.382-1.759Zm60.734-28.452c-.44,0-1.193,0-1.193-.628a15.988,15.988,0,0,1,3.831-4.773c1.193-.754,1.319-.816,1.319-1.319,0-.377-.251-.565-.942-.879a52.042,52.042,0,0,0-5.213-1.947c-.188,0-.44.063-.44.314a10.646,10.646,0,0,0,.063,1.382c0,2.261-3.517,9.547-6.972,14.069-.251.377-1.884,1.947-1.884,2.449a.284.284,0,0,0,.06.209.284.284,0,0,0,.191.1c1.507,0,6.155-5.778,7.1-5.778.44,0,.628.251.879.565.942,1.256,2.2,3.454,3.14,4.773a10.886,10.886,0,0,1,1.57,2.575c0,1.445-5.276,4.962-7.1,6.029-1.131.691-7.034,3.329-7.034,3.706,0,.126.251.188.377.188a33.542,33.542,0,0,0,14.257-6.344c1.068-.816,1.256-1,1.759-1a2.045,2.045,0,0,1,1.319.754,52.419,52.419,0,0,0,11.18,7.1c.251,0,.377-.188.5-.44a3.432,3.432,0,0,1,1.382-1.947,21.767,21.767,0,0,0,3.078-1.7c0-.126-.188-.126-1.7-.44-5.653-1.193-12.813-4.522-12.813-5.778a1.058,1.058,0,0,1,.377-.691c.251-.377,1.759-2.01,2.073-2.324,2.449-2.764,2.764-3.078,4.334-3.706.377-.126.879-.377.879-.942,0-.377-.251-.628-.691-1-.314-.188-.377-.251-.377-.44,0-.44.251-.44,1.131-.44h2.638c1.759,0,2.575,0,2.575-.754,0-.942-4.02-4.208-4.962-4.208-.5,0-.628.188-1.884,2.261-.628,1-.942,1-3.706,1Zm6.658,1.7c.5,0,1.382,0,1.382,1a11.73,11.73,0,0,1-4.522,6.344c-1.445,0-5.841-5.778-5.841-6.658,0-.691.565-.691,1.57-.691ZM160.545-16.6c-3.517,0-6.783-.126-8.6-.251-.44,0-2.387-.188-2.764-.188-.063,0-.188,0-.188.126a.8.8,0,0,0,.251.44l1.193,1.445c.251.251.377.44.565.44.126,0,1.633-.188,1.821-.188,2.512-.126,5.653-.188,7.411-.188h6.029c.816,0,1.57.063,1.57.691A40.4,40.4,0,0,1,164.188-8.5c-.816,1.193-1.193,1.57-1.884,1.57a66.594,66.594,0,0,0-6.532-2.449c-.126,0-.5,0-.5.251,0,.126,1.256,1.319,1.445,1.57A19.3,19.3,0,0,1,160.8-1.4c.314.754.879,2.01,2.324,2.01.188,0,2.261,0,2.261-2.575A4.969,4.969,0,0,0,164.188-5.3a1.115,1.115,0,0,1-.251-.628c0-.5.44-.879,1.256-1.507,7.348-5.967,7.411-5.967,8.353-6.155,2.2-.44,2.449-.44,2.449-1.068,0-1.256-4.836-4.459-5.339-4.459s-.691.44-1.193,1.445c-.5.942-.754,1.068-3.454,1.068Zm13.818,33.162c.251.251.377.44.565.44.126,0,1.57-.188,1.821-.188,1.884-.126,3.894-.126,5.778-.126.565,0,1.131.063,1.131.816a28.738,28.738,0,0,1-9.672,14.634c-1,.754-2.764,1.759-3.768,2.512a.7.7,0,0,0-.377.5c0,.188.188.188.377.188A23.246,23.246,0,0,0,185.228,23.4a45.911,45.911,0,0,1,3.14-6.344,1.95,1.95,0,0,1,1.445-.377h4.334c.5,0,1.7,0,1.7,1.57a52.575,52.575,0,0,1-1.256,9.8c-.816,3.454-2.387,3.454-3.329,3.454a16.242,16.242,0,0,1-3.392-.5,10.823,10.823,0,0,0-1.319-.44c-.126,0-.377,0-.377.251,0,.188,2.135,2.889,2.512,3.454.126.251.628,1.256.754,1.445a1.4,1.4,0,0,0,1.382.691,7.449,7.449,0,0,0,6.909-5.15,53.762,53.762,0,0,0,2.01-10.991c.188-1.759.44-2.135,1-2.764.691-.691.879-.879.879-1.382,0-.879-3.517-3.2-4.02-3.2-.44,0-.565.188-1.319,1.319-.5.754-.879.754-3.831.754h-2.135c-1,0-1.445-.188-1.445-.942a19.347,19.347,0,0,1,.816-3.329c.126-.314,1.193-1.507,1.193-1.821,0-1-5.841-2.324-5.9-2.324a.57.57,0,0,0-.628.565,10.3,10.3,0,0,0,.5,1.507,3.326,3.326,0,0,1,.251,1.445,26.755,26.755,0,0,1-.377,3.14c-.251,1.256-.251,1.759-1.57,1.759-1.947,0-7.411-.188-7.788-.251-.314,0-1.947-.188-2.261-.188a.2.2,0,0,0-.188.188c0,.063,0,.126.251.377ZM168.019,2.741c1.507,0,1.884,0,1.884.691,0,.879-1.633,4.4-1.633,4.962,0,.063,0,.314.251.314.314,0,1.068-.754,1.256-1,2.764-3.015,3.831-3.14,4.9-3.2,1.7-.063,2.763-.126,2.763-1.57,0-.942-.5-1.193-2.135-2.261a41.721,41.721,0,0,0-3.768-2.135c-.314,0-.377.126-1.256,1.319-.816,1.068-.879,1.193-1.759,1.193H158.6c-3.2,0-7.6-.188-8.228-.188-.44-.063-2.387-.251-2.826-.251a.2.2,0,0,0-.188.188c0,.063.126.188.251.377L148.8,2.615c.251.251.377.44.565.44s2.387-.251,2.7-.251c2.449-.063,4.522-.063,7.6-.063.565,0,1.131.314,1.131.879a58.519,58.519,0,0,1-8.353,15.262c-.816,1.068-5.15,6.469-5.15,6.595,0,.314.377.5.565.5a36.089,36.089,0,0,0,8.039-7.1c2.324-2.7,3.894-4.836,4.271-5.339.126-.188.44-.5.691-.5.44,0,.44.816.44,1.382,0,3.831,0,9.3.063,13.064,0,3.768-.063,4.334-4.145,4.334-.44,0-2.449-.188-2.826-.188-.188,0-.754,0-.754.314,0,.251.816.5,1.507.754,2.638,1,3.078,1.7,3.329,2.324.377.816.5,1.068,1.068,1.068,5.464,0,5.464-5.276,5.464-6.846s-.063-17.963-.063-21.1c0-5.15,0-5.4,1.947-5.4ZM230.7,11.785c1.759,0,1.759,1.131,1.759,2.01,0,1.319.126,1.947,1.633,1.947.5,0,3.768-.063,3.768-4.271,0-1.759-.126-10.426-.126-12.436,0-1.7,0-1.884.251-2.2,1-1.193,1.068-1.319,1.068-1.821,0-1-3.392-3.894-4.585-3.894-.879,0-1,.188-2.324,2.01a1.635,1.635,0,0,1-1.633.754H225.3a5.409,5.409,0,0,1-3.2-1C221.531-7.434,218.767-9,218.516-9c-.188,0-.188.188-.188.314,0,.314.251,1.7.314,2.01a69.412,69.412,0,0,1,.628,10.74c0,16.393-3.015,24.055-4.585,27.949-.251.565-1.633,3.329-1.633,3.58,0,.188.188.188.251.188.377,0,.816-.377,1.947-1.633,3.266-3.58,6.092-9.924,7.6-19.345.377-2.512.44-3.015,1.759-3.015Zm-5.464-1.633c-1.759,0-1.759-1.319-1.759-1.884,0-1.131.251-8.353.251-9.924.063-1.947.063-2.764,1.884-2.764h5.527c.691,0,1.633.251,1.759,1.068.188.879.188,8.981.188,10.363,0,2.324,0,3.14-1.947,3.14Zm1.131-26.693c-2.073,0-5.15-.126-7.286-.251-.44,0-2.387-.188-2.826-.188-.063,0-.251,0-.251.126,0,.063.063.126.251.377l1.256,1.445c.251.314.377.44.628.44.377,0,2.2-.188,2.575-.188,1.759-.063,3.706-.126,5.464-.126h10.928c2.01,0,3.266-.063,3.266-.565a27.971,27.971,0,0,0-5.778-4.4c-.565,0-2.135,2.512-2.512,2.952-.251.251-.628.377-3.266.377Zm41.7,19.156c2.135,0,3.392,0,3.392-.879a21.008,21.008,0,0,0-6.344-5.025c-.565,0-.754.314-2.512,3.2-.691,1.068-1.382,1.068-4.02,1.068h-8.856c-1.193,0-1.193-.754-1.193-1.759,0-.942-.063-5.653-.063-6.658,0-.691,0-3.957.126-4.271s.314-.377.816-.5c2.512-.565,14.571-3.894,15.576-4.082,1.821-.377,2.073-.44,2.073-.816,0-.314-.188-.44-1.884-1.256-.754-.377-4.836-2.512-4.962-2.512-.188,0-3.454,2.764-4.02,3.2a24.045,24.045,0,0,1-8.039,4.585c-.565,0-4.145-1.319-4.836-1.319-.188,0-.188.188-.188.44,0,.5.251,2.764.314,3.266.063,1,.691,9.421.691,14.257,0,14.7-2.324,21.92-8.6,28.954a4.3,4.3,0,0,0-.942,1.319c0,.126.126.188.251.188a15.159,15.159,0,0,0,5.087-3.894c5.087-5.339,7.725-10.552,8.542-25.562.063-1.633.251-1.947,1.445-1.947h4.836a1.728,1.728,0,0,1,1.633.754c.251.5.251,11.054.251,12.185,0,4.334,0,9.421-.188,13.755-.063.879-.314,5.025-.314,5.59,0,1,.188,1.507,1.445,1.507.879,0,3.831-.565,3.831-3.454,0-3.2-.188-18.9-.188-22.422a61.3,61.3,0,0,1,.251-7.1,1.588,1.588,0,0,1,1.633-.816Z" transform="translate(328.538 22)" fill="#35829f"/>
      <path id="パス_4096" data-name="パス 4096" d="M6.521-5.63v.42a3.442,3.442,0,0,0-1.193.121.59.59,0,0,0-.4.618A1.256,1.256,0,0,0,5-4.112a2.447,2.447,0,0,0,.3.568L8.641,1.48l3.246-5.1a2.276,2.276,0,0,0,.251-.53,1.256,1.256,0,0,0,.06-.309.631.631,0,0,0-.52-.641,4.1,4.1,0,0,0-1.06-.111v-.42h4.954v.42a2.3,2.3,0,0,0-1.226.41A8.157,8.157,0,0,0,12.46-2.625l-3.344,5.1v4.4q0,1.314.425,1.641a3.912,3.912,0,0,0,1.9.4v.41H4.534v-.41a3.331,3.331,0,0,0,1.9-.457,2.927,2.927,0,0,0,.369-1.849V2.684L3.848-1.655a26.378,26.378,0,0,0-2.14-2.874A2.178,2.178,0,0,0,.2-5.207v-.42ZM22,3.214a10.109,10.109,0,0,0-2.1.927,2.733,2.733,0,0,0-1.59,2.231,1.7,1.7,0,0,0,.663,1.48,1.608,1.608,0,0,0,.96.309,2.638,2.638,0,0,0,1.4-.407A1.2,1.2,0,0,0,22,6.716ZM16.344,7.133a3.145,3.145,0,0,1,1.6-2.671A24.153,24.153,0,0,1,22,2.664v-.94A3.866,3.866,0,0,0,21.775.156a1.575,1.575,0,0,0-1.558-.739,2.145,2.145,0,0,0-1.07.286.912.912,0,0,0-.5.816A3,3,0,0,0,18.7.968a3.173,3.173,0,0,1,.055.4.917.917,0,0,1-.41.862,1.028,1.028,0,0,1-.553.143.925.925,0,0,1-.754-.327,1.118,1.118,0,0,1-.264-.724,2.3,2.3,0,0,1,.955-1.618,4.1,4.1,0,0,1,2.8-.844,3.015,3.015,0,0,1,2.9,1.392,4.8,4.8,0,0,1,.41,2.218V6.9a2.962,2.962,0,0,0,.088.884.575.575,0,0,0,.6.43,1,1,0,0,0,.42-.078,4.289,4.289,0,0,0,.575-.374v.563a3.593,3.593,0,0,1-.754.706,2.221,2.221,0,0,1-1.256.42,1.228,1.228,0,0,1-1.088-.485,2.178,2.178,0,0,1-.394-1.143,10.4,10.4,0,0,1-1.435,1.083,3.768,3.768,0,0,1-1.909.6,2.3,2.3,0,0,1-1.653-.673,2.261,2.261,0,0,1-.688-1.7ZM27.649,9.042A2.512,2.512,0,0,0,28.8,8.756a1.507,1.507,0,0,0,.442-1.281V1.769A1.8,1.8,0,0,0,29.023.7a.887.887,0,0,0-.711-.251,2.01,2.01,0,0,0-.347.023,1.854,1.854,0,0,0-.271.078V.161L28.488-.1q.43-.143,1.414-.52T30.94-1a.06.06,0,0,1,.044.014.06.06,0,0,1,.021.041,1.287,1.287,0,0,1,0,.209V.757A8.424,8.424,0,0,1,32.892-.618,3.741,3.741,0,0,1,34.525-1a2.281,2.281,0,0,1,1.811.774A3.354,3.354,0,0,1,36.922.912,9.208,9.208,0,0,1,38.346-.314,3.876,3.876,0,0,1,40.489-1,2.316,2.316,0,0,1,42.864.45a7.163,7.163,0,0,1,.342,2.583V7.608a1.319,1.319,0,0,0,.347,1.065,2.449,2.449,0,0,0,1.256.369v.289H39.844V9.022A2.176,2.176,0,0,0,41.1,8.635a1.759,1.759,0,0,0,.3-1.213V2.664a4.02,4.02,0,0,0-.231-1.578,1.583,1.583,0,0,0-1.6-.9,2.535,2.535,0,0,0-1.424.475,7.054,7.054,0,0,0-1,.884V7.193a2.422,2.422,0,0,0,.314,1.359,1.59,1.59,0,0,0,1.332.5v.276H33.729V9.045a2.01,2.01,0,0,0,1.337-.5A3.623,3.623,0,0,0,35.352,6.7V3.608a8.29,8.29,0,0,0-.221-2.341A1.482,1.482,0,0,0,33.586.184a2.655,2.655,0,0,0-1.324.369,4.163,4.163,0,0,0-1.148.967V7.55a1.738,1.738,0,0,0,.291,1.158,1.809,1.809,0,0,0,1.276.332v.291H27.657ZM53.094,3.214a10.11,10.11,0,0,0-2.1.927,2.733,2.733,0,0,0-1.59,2.231,1.7,1.7,0,0,0,.663,1.48,1.608,1.608,0,0,0,.96.309,2.638,2.638,0,0,0,1.4-.409,1.2,1.2,0,0,0,.668-1.038ZM47.441,7.133a3.145,3.145,0,0,1,1.6-2.671,24.153,24.153,0,0,1,4.052-1.8v-.94A3.866,3.866,0,0,0,52.872.156a1.575,1.575,0,0,0-1.558-.739,2.145,2.145,0,0,0-1.07.286.912.912,0,0,0-.5.816A3,3,0,0,0,49.8.968a3.173,3.173,0,0,1,.055.4.917.917,0,0,1-.41.862,1.028,1.028,0,0,1-.553.143.925.925,0,0,1-.754-.327,1.118,1.118,0,0,1-.264-.724,2.3,2.3,0,0,1,.955-1.618,4.1,4.1,0,0,1,2.8-.844,3.015,3.015,0,0,1,2.9,1.392,4.8,4.8,0,0,1,.409,2.218V6.9a2.962,2.962,0,0,0,.088.884.575.575,0,0,0,.6.43,1,1,0,0,0,.42-.078,4.289,4.289,0,0,0,.575-.374v.563a3.593,3.593,0,0,1-.754.706,2.221,2.221,0,0,1-1.256.42,1.229,1.229,0,0,1-1.088-.485,2.178,2.178,0,0,1-.387-1.143A10.4,10.4,0,0,1,51.7,8.907a3.768,3.768,0,0,1-1.909.6,2.3,2.3,0,0,1-1.646-.673,2.261,2.261,0,0,1-.7-1.7ZM63.761-1.1a3.135,3.135,0,0,1,1.48.354,3.532,3.532,0,0,1,.849.641V-3.625a2.01,2.01,0,0,0-.148-.927Q65.793-4.8,65.23-4.8A2.127,2.127,0,0,0,65-4.8l-.442.045v-.364l.9-.231q.5-.133,1-.276t.872-.276q.176-.055.585-.209l.065.023-.023,1.158q0,.628-.023,1.3t0,1.319L67.921,6.7a2.05,2.05,0,0,0,.176,1q.176.286.94.286h.251a1.819,1.819,0,0,0,.251-.028v.362l-1.6.553-1.733.651-.078-.1V8.075a5.763,5.763,0,0,1-1.11.97,3.482,3.482,0,0,1-1.867.5A3.716,3.716,0,0,1,60.108,8.1a5.218,5.218,0,0,1-1.166-3.361,6.311,6.311,0,0,1,1.4-4.113A4.253,4.253,0,0,1,63.761-1.1Zm.41,9.451a1.927,1.927,0,0,0,1.392-.5,1.407,1.407,0,0,0,.53-.96V2.143A2.407,2.407,0,0,0,65.326.119a2.47,2.47,0,0,0-1.507-.59A2.424,2.424,0,0,0,61.655.759a5.592,5.592,0,0,0-.774,3.03A6.107,6.107,0,0,0,61.7,6.957,2.676,2.676,0,0,0,64.16,8.349ZM77.935,3.216a10.109,10.109,0,0,0-2.1.927,2.733,2.733,0,0,0-1.59,2.231,1.7,1.7,0,0,0,.663,1.48,1.608,1.608,0,0,0,.96.309,2.638,2.638,0,0,0,1.4-.409,1.2,1.2,0,0,0,.668-1.038ZM72.282,7.135a3.145,3.145,0,0,1,1.6-2.671,24.153,24.153,0,0,1,4.052-1.8v-.94A3.866,3.866,0,0,0,77.714.159,1.575,1.575,0,0,0,76.156-.58a2.145,2.145,0,0,0-1.09.284.912.912,0,0,0-.5.816,3,3,0,0,0,.055.447,3.173,3.173,0,0,1,.055.4.917.917,0,0,1-.41.862,1.027,1.027,0,0,1-.553.143.925.925,0,0,1-.754-.327,1.118,1.118,0,0,1-.264-.724,2.3,2.3,0,0,1,.955-1.618,4.1,4.1,0,0,1,2.8-.844,3.015,3.015,0,0,1,2.9,1.392,4.8,4.8,0,0,1,.409,2.218V6.9a2.962,2.962,0,0,0,.088.884.575.575,0,0,0,.6.43,1,1,0,0,0,.42-.078,4.288,4.288,0,0,0,.575-.374v.563a3.592,3.592,0,0,1-.754.706,2.221,2.221,0,0,1-1.256.42,1.228,1.228,0,0,1-1.1-.475,2.178,2.178,0,0,1-.374-1.153,10.4,10.4,0,0,1-1.435,1.083,3.768,3.768,0,0,1-1.909.6,2.3,2.3,0,0,1-1.648-.673,2.261,2.261,0,0,1-.7-1.7ZM99.468,3.523,96.85-2.7,94.267,3.523Zm-9.76,5.808v-.41a1.831,1.831,0,0,0,1.309-.663A18.372,18.372,0,0,0,92.524,5.2l4.7-11.094h.45l5.63,12.813a5.447,5.447,0,0,0,.9,1.585,2.138,2.138,0,0,0,1.131.415v.412H99.583v-.41a5.07,5.07,0,0,0,1.281-.216q.286-.128.286-.623a2.746,2.746,0,0,0-.111-.585,6.368,6.368,0,0,0-.309-.884l-.94-2.176H93.87q-.884,2.218-1.055,2.711a2.535,2.535,0,0,0-.163.781.8.8,0,0,0,.465.794,3.688,3.688,0,0,0,1.083.2v.41Zm17.837-.364a2.673,2.673,0,0,0,1.347-.359,1.48,1.48,0,0,0,.342-1.153V2.475a4.271,4.271,0,0,0-.2-1.563.754.754,0,0,0-.754-.47,2.053,2.053,0,0,0-.291.028Q107.8.5,107.6.543V.179l1.291-.452q.663-.231.917-.332.553-.209,1.138-.475.078,0,.093.055a1,1,0,0,1,.018.231V1.018a8.436,8.436,0,0,1,1.364-1.535,2.1,2.1,0,0,1,1.364-.553,1.274,1.274,0,0,1,.917.337,1.118,1.118,0,0,1,.354.844,1.115,1.115,0,0,1-.271.754.864.864,0,0,1-.678.309,1.271,1.271,0,0,1-.857-.384A1.193,1.193,0,0,0,112.584.4q-.387,0-.95.623a1.914,1.914,0,0,0-.563,1.286V7.3a1.651,1.651,0,0,0,.442,1.319,2.218,2.218,0,0,0,1.467.347v.367h-5.437Zm14.79-10.049a3.992,3.992,0,0,1,2.379.711,1.97,1.97,0,0,1,1,1.563,1.06,1.06,0,0,1-.251.678.947.947,0,0,1-.784.314.98.98,0,0,1-.678-.264,1.535,1.535,0,0,1-.425-.774l-.133-.53a1.344,1.344,0,0,0-.5-.829,1.759,1.759,0,0,0-.96-.231,2.618,2.618,0,0,0-2.125,1.1,4.582,4.582,0,0,0-.867,2.919,4.992,4.992,0,0,0,.955,2.992,3.015,3.015,0,0,0,2.578,1.324,3.088,3.088,0,0,0,2.042-.754,7,7,0,0,0,1.148-1.369l.309.188a8.753,8.753,0,0,1-1.324,2.1,4.06,4.06,0,0,1-3.09,1.48,4.14,4.14,0,0,1-3.047-1.359,5.055,5.055,0,0,1-1.324-3.688A5.753,5.753,0,0,1,118.687.556a4.655,4.655,0,0,1,3.65-1.635Zm6.356,10.1a1.932,1.932,0,0,0,1.188-.442,2.676,2.676,0,0,0,.281-1.54v-10.6A1.975,1.975,0,0,0,130-4.476q-.161-.291-.779-.291a1.675,1.675,0,0,0-.236.018l-.251.038v-.4l1.2-.347q.711-.2.987-.291l1.06-.332L132-6V.782a7.228,7.228,0,0,1,1.236-1.171,3.653,3.653,0,0,1,2.1-.663A2.422,2.422,0,0,1,137.775.455a5.193,5.193,0,0,1,.354,2.088V7.035a2.809,2.809,0,0,0,.271,1.522,1.638,1.638,0,0,0,1.11.465v.309h-4.773V9.022a2.063,2.063,0,0,0,1.236-.452,2.688,2.688,0,0,0,.276-1.535V2.563A3.633,3.633,0,0,0,135.891.83a1.4,1.4,0,0,0-1.352-.663,2.708,2.708,0,0,0-1.691.623q-.806.618-.806.806V7.035a2.6,2.6,0,0,0,.3,1.543,2.145,2.145,0,0,0,1.226.442v.312h-4.879ZM143.4-4.921a1.133,1.133,0,0,1,.327-.822,1.093,1.093,0,0,1,.816-.342,1.105,1.105,0,0,1,.811.342,1.118,1.118,0,0,1,.337.822,1.105,1.105,0,0,1-.337.811,1.105,1.105,0,0,1-.811.337,1.1,1.1,0,0,1-.816-.337,1.116,1.116,0,0,1-.327-.811ZM141.988,9.022a2.816,2.816,0,0,0,1.49-.4q.309-.291.309-1.585V1.759a3.349,3.349,0,0,0-.1-1,.668.668,0,0,0-.7-.452,1.256,1.256,0,0,0-.236.023q-.116.023-.668.176V.159L142.561,0q1.932-.628,2.693-.95a1.437,1.437,0,0,1,.4-.133.6.6,0,0,1,.023.166V7.035a2.59,2.59,0,0,0,.3,1.578,2.261,2.261,0,0,0,1.374.41v.309H141.98ZM155.321-.849v.794H153.06l-.02,6.371a4.253,4.253,0,0,0,.143,1.269,1.02,1.02,0,0,0,1.038.754,1.256,1.256,0,0,0,.691-.188,3.62,3.62,0,0,0,.668-.6l.286.251-.251.332A3.532,3.532,0,0,1,154.4,9.231a2.763,2.763,0,0,1-1.236.319,1.741,1.741,0,0,1-1.759-1.158,4.8,4.8,0,0,1-.251-1.744v-6.7h-1.2a.324.324,0,0,1-.083-.065.133.133,0,0,1-.028-.088.251.251,0,0,1,.05-.171,3.313,3.313,0,0,1,.314-.281,9.505,9.505,0,0,0,1.1-1.02q.337-.392,1.585-2.07a.369.369,0,0,1,.171.023q.028.023.028.166V-.844Zm7.449-.176a3.85,3.85,0,0,1,3.9,4.128h-7.017a5.9,5.9,0,0,0,1.161,3.733,3.233,3.233,0,0,0,2.485,1.171,3.125,3.125,0,0,0,1.962-.608,6.1,6.1,0,0,0,1.467-1.723l.387.133a6.281,6.281,0,0,1-1.7,2.6A4.226,4.226,0,0,1,162.365,9.6a3.721,3.721,0,0,1-3.208-1.568,6.009,6.009,0,0,1-1.131-3.61A5.874,5.874,0,0,1,159.34.588a4.206,4.206,0,0,1,3.422-1.613Zm-.641.806A2.11,2.11,0,0,0,160.207.9a4.387,4.387,0,0,0-.5,1.507h4.648a4.583,4.583,0,0,0-.42-1.646,1.9,1.9,0,0,0-1.809-.975Zm12.858-.862a3.992,3.992,0,0,1,2.379.711,1.97,1.97,0,0,1,1,1.563,1.06,1.06,0,0,1-.251.678.947.947,0,0,1-.784.314.98.98,0,0,1-.678-.264,1.535,1.535,0,0,1-.425-.774L176.1.619a1.344,1.344,0,0,0-.5-.829,1.759,1.759,0,0,0-.96-.231,2.618,2.618,0,0,0-2.125,1.1,4.582,4.582,0,0,0-.867,2.919,4.992,4.992,0,0,0,.955,2.992,3.015,3.015,0,0,0,2.578,1.324,3.088,3.088,0,0,0,2.042-.754,7,7,0,0,0,1.148-1.369l.309.188a8.753,8.753,0,0,1-1.324,2.1,4.06,4.06,0,0,1-3.09,1.48,4.14,4.14,0,0,1-3.047-1.359,5.055,5.055,0,0,1-1.324-3.688A5.753,5.753,0,0,1,171.339.558a4.655,4.655,0,0,1,3.643-1.638Zm11.908.231v.794h-2.261l-.018,6.371a4.254,4.254,0,0,0,.143,1.269,1.02,1.02,0,0,0,1.038.754,1.256,1.256,0,0,0,.691-.188,3.621,3.621,0,0,0,.668-.6l.286.251-.251.332a3.532,3.532,0,0,1-1.213,1.093,2.764,2.764,0,0,1-1.236.319,1.741,1.741,0,0,1-1.759-1.158,4.8,4.8,0,0,1-.251-1.744v-6.7h-1.2a.324.324,0,0,1-.083-.065.133.133,0,0,1-.028-.088.251.251,0,0,1,.05-.171,3.314,3.314,0,0,1,.314-.281,9.508,9.508,0,0,0,1.1-1.02q.337-.392,1.585-2.07a.369.369,0,0,1,.171.023q.028.023.028.166V-.844Zm5.778-.045V6.173a2.894,2.894,0,0,0,.209,1.2,1.507,1.507,0,0,0,1.507.839,2.552,2.552,0,0,0,1.467-.5,4.308,4.308,0,0,0,.829-.754V.907a1.407,1.407,0,0,0-.332-1.115,2.512,2.512,0,0,0-1.324-.319V-.891h3.565v7.77a1.507,1.507,0,0,0,.271,1.033,1.553,1.553,0,0,0,1.143.251v.309l-.894.251q-.286.083-.96.3-.286.1-1.256.475a.06.06,0,0,1-.065-.05.54.54,0,0,1,0-.116V7.552a7.467,7.467,0,0,1-1.369,1.324,3.389,3.389,0,0,1-1.987.663,2.839,2.839,0,0,1-1.842-.683,2.7,2.7,0,0,1-.862-2.261V.862A1.462,1.462,0,0,0,190.4-.319a2.261,2.261,0,0,0-1.038-.264V-.891Zm9.635,9.861a2.673,2.673,0,0,0,1.347-.359,1.48,1.48,0,0,0,.332-1.153V2.475a4.271,4.271,0,0,0-.2-1.563.754.754,0,0,0-.754-.47,2.053,2.053,0,0,0-.291.028q-.183.028-.382.073V.179l1.291-.452q.663-.231.917-.332.553-.209,1.138-.475.078,0,.093.055a1,1,0,0,1,.018.231V1.018a8.436,8.436,0,0,1,1.364-1.535,2.1,2.1,0,0,1,1.364-.553,1.274,1.274,0,0,1,.917.337,1.118,1.118,0,0,1,.354.844,1.115,1.115,0,0,1-.271.754.864.864,0,0,1-.678.309,1.271,1.271,0,0,1-.844-.387A1.193,1.193,0,0,0,207.35.4q-.387,0-.95.623a1.914,1.914,0,0,0-.563,1.286V7.3a1.651,1.651,0,0,0,.442,1.319,2.218,2.218,0,0,0,1.467.347v.367h-5.439Zm15.652-5.753a10.109,10.109,0,0,0-2.1.927,2.733,2.733,0,0,0-1.59,2.231,1.7,1.7,0,0,0,.663,1.48,1.608,1.608,0,0,0,.96.309,2.638,2.638,0,0,0,1.4-.409,1.2,1.2,0,0,0,.668-1.038Zm-5.653,3.919a3.145,3.145,0,0,1,1.6-2.671,24.151,24.151,0,0,1,4.052-1.8v-.94a3.867,3.867,0,0,0-.221-1.568,1.575,1.575,0,0,0-1.558-.739,2.146,2.146,0,0,0-1.07.286.912.912,0,0,0-.5.816,3,3,0,0,0,.055.447,3.173,3.173,0,0,1,.055.4.917.917,0,0,1-.409.862,1.027,1.027,0,0,1-.553.143A.925.925,0,0,1,213,2.048a1.118,1.118,0,0,1-.264-.724,2.3,2.3,0,0,1,.955-1.618,4.1,4.1,0,0,1,2.8-.844A3.015,3.015,0,0,1,219.4.254a4.8,4.8,0,0,1,.41,2.218V6.9a2.963,2.963,0,0,0,.088.884.575.575,0,0,0,.6.43,1,1,0,0,0,.42-.078,4.289,4.289,0,0,0,.575-.374v.563a3.593,3.593,0,0,1-.754.706,2.221,2.221,0,0,1-1.256.42,1.228,1.228,0,0,1-1.088-.485,2.178,2.178,0,0,1-.394-1.143,10.394,10.394,0,0,1-1.434,1.083,3.769,3.769,0,0,1-1.909.6,2.3,2.3,0,0,1-1.658-.673,2.261,2.261,0,0,1-.683-1.7ZM223.72,9.02a2.613,2.613,0,0,0,1.392-.415,1.6,1.6,0,0,0,.364-1.231V-3.409a2.816,2.816,0,0,0-.121-1,.889.889,0,0,0-.894-.465,1.892,1.892,0,0,0-.337.033q-.183.033-.457.1v-.364q1.49-.4,3.588-1.06a.085.085,0,0,1,.093.065,1.506,1.506,0,0,1,.018.286V7.422a1.656,1.656,0,0,0,.332,1.241,2.578,2.578,0,0,0,1.369.359v.309h-5.349Zm18.189-7.165a8.213,8.213,0,0,0,1.4,5.276,4.3,4.3,0,0,0,3.442,1.7,4.346,4.346,0,0,0,3.419-1.656,8.115,8.115,0,0,0,1.419-5.316,8.057,8.057,0,0,0-1.437-5.339,4.379,4.379,0,0,0-3.4-1.646,4.3,4.3,0,0,0-3.439,1.706,8.21,8.21,0,0,0-1.407,5.278Zm-2.563,0a7.683,7.683,0,0,1,2.284-5.806,7.575,7.575,0,0,1,10.278,0,7.665,7.665,0,0,1,2.261,5.8A7.6,7.6,0,0,1,251.827,7.7a7.19,7.19,0,0,1-5.067,1.942,7.06,7.06,0,0,1-5.276-2.153,7.766,7.766,0,0,1-2.14-5.628ZM257.184,9.02a2.374,2.374,0,0,0,1.53-.442,2.422,2.422,0,0,0,.369-1.605V-.108h-1.877V-.846h1.887a8.059,8.059,0,0,1,.475-2.947A3.311,3.311,0,0,1,262.891-6.1a3.814,3.814,0,0,1,1.739.387,1.163,1.163,0,0,1,.766,1.038.934.934,0,0,1-.264.651.839.839,0,0,1-.641.286.834.834,0,0,1-.553-.193,3.229,3.229,0,0,1-.553-.678L263.2-4.9a1.614,1.614,0,0,0-.364-.392.944.944,0,0,0-.585-.161,1.126,1.126,0,0,0-1.138.829,3.367,3.367,0,0,0-.166,1.158V-.844h2.763v.739h-2.733V6.98a2.492,2.492,0,0,0,.337,1.6,3.078,3.078,0,0,0,1.759.447v.309h-5.884Zm8.873,0a2.374,2.374,0,0,0,1.54-.437,2.422,2.422,0,0,0,.369-1.605V-.108h-1.887V-.846h1.887a8.059,8.059,0,0,1,.475-2.947A3.311,3.311,0,0,1,271.765-6.1a3.814,3.814,0,0,1,1.738.387,1.163,1.163,0,0,1,.766,1.038.935.935,0,0,1-.264.651.839.839,0,0,1-.641.286.834.834,0,0,1-.553-.193,3.229,3.229,0,0,1-.553-.678l-.188-.286a1.616,1.616,0,0,0-.364-.392.945.945,0,0,0-.585-.161,1.126,1.126,0,0,0-1.138.829,3.367,3.367,0,0,0-.166,1.158V-.844h2.763v.739h-2.738V6.98a2.492,2.492,0,0,0,.337,1.6,3.077,3.077,0,0,0,1.759.447v.309h-5.884ZM276.742-4.924a1.133,1.133,0,0,1,.329-.819,1.093,1.093,0,0,1,.816-.342,1.105,1.105,0,0,1,.811.337,1.118,1.118,0,0,1,.337.822,1.105,1.105,0,0,1-.337.811,1.105,1.105,0,0,1-.811.337,1.1,1.1,0,0,1-.816-.337,1.115,1.115,0,0,1-.332-.806ZM275.33,9.02a2.816,2.816,0,0,0,1.49-.4q.309-.291.309-1.585V1.757a3.349,3.349,0,0,0-.1-1,.668.668,0,0,0-.7-.452,1.256,1.256,0,0,0-.236.023q-.116.023-.668.176V.156L275.9,0q1.932-.628,2.693-.95a1.438,1.438,0,0,1,.4-.133.6.6,0,0,1,.023.166V7.035a2.59,2.59,0,0,0,.3,1.578,2.261,2.261,0,0,0,1.374.41v.309h-5.366Zm13.2-10.1a3.992,3.992,0,0,1,2.379.711,1.97,1.97,0,0,1,1,1.563,1.06,1.06,0,0,1-.251.678.947.947,0,0,1-.784.314.98.98,0,0,1-.678-.264,1.535,1.535,0,0,1-.425-.774l-.133-.53a1.344,1.344,0,0,0-.5-.829,1.759,1.759,0,0,0-.96-.231,2.618,2.618,0,0,0-2.125,1.1,4.582,4.582,0,0,0-.867,2.919,4.992,4.992,0,0,0,.955,2.992,3.015,3.015,0,0,0,2.578,1.324,3.088,3.088,0,0,0,2.043-.754,7,7,0,0,0,1.148-1.369l.309.188a8.751,8.751,0,0,1-1.324,2.1,4.06,4.06,0,0,1-3.09,1.48,4.14,4.14,0,0,1-3.047-1.359,5.055,5.055,0,0,1-1.324-3.688A5.753,5.753,0,0,1,284.884.556a4.655,4.655,0,0,1,3.643-1.635Zm11.335.055a3.85,3.85,0,0,1,3.9,4.128h-7.014a5.9,5.9,0,0,0,1.156,3.736,3.233,3.233,0,0,0,2.485,1.171,3.125,3.125,0,0,0,1.955-.608,6.1,6.1,0,0,0,1.467-1.723l.387.133a6.28,6.28,0,0,1-1.7,2.6A4.226,4.226,0,0,1,299.46,9.6a3.721,3.721,0,0,1-3.208-1.568,6.009,6.009,0,0,1-1.131-3.61A5.874,5.874,0,0,1,296.435.588a4.206,4.206,0,0,1,3.427-1.613Zm-.641.806A2.11,2.11,0,0,0,297.3.895a4.386,4.386,0,0,0-.5,1.507h4.658a4.583,4.583,0,0,0-.42-1.646,1.9,1.9,0,0,0-1.819-.972Z" transform="translate(144.967 87.294)" fill="#35829f"/>
      <g id="グループ_1" data-name="グループ 1" transform="translate(0 4.804)">
        <path id="パス_1" data-name="パス 1" d="M0,0V94.643L54.619,53.893l54.619,40.749V0Z" fill="#35829f"/>
        <path id="パス_2" data-name="パス 2" d="M37,61.717l.121,5.527,5.474-.078-.121-5.527Z" transform="translate(10.64 18.156)" fill="#35829f"/>
        <path id="パス_3" data-name="パス 3" d="M42.325,54.929,36.851,55l.121,5.527,5.474-.075Z" transform="translate(10.593 15.814)" fill="#35829f"/>
        <path id="パス_4" data-name="パス 4" d="M49.1,60.358l-.121-5.527-5.472.078.118,5.527Z" transform="translate(12.507 15.782)" fill="#35829f"/>
        <path id="パス_5" data-name="パス 5" d="M43.773,67.144l5.474-.075-.121-5.527-5.474.078Z" transform="translate(12.545 18.132)" fill="#35829f"/>
      </g>
    </g>
  </g>
</svg>
